<svg width="270" height="249" viewBox="0 0 270 249" fill="none" xmlns="http://www.w3.org/2000/svg">
<path d="M135 37.9475L263.5 109.812V242.5H6.5V109.812L135 37.9475Z" stroke="#FCC127" stroke-width="13"/>
<rect x="33.5" y="137.5" width="34" height="34" stroke="#FCC127" stroke-width="5"/>
<path d="M141 168C144.785 163.472 154.778 157.133 164.467 168C174.157 178.867 182.383 172.528 185.285 168C188.187 163.987 195.656 158.368 202.318 168C208.979 177.632 218.215 172.013 222 168" stroke="#FCC127" stroke-width="3"/>
<path d="M141 184C144.785 179.472 154.778 173.133 164.467 184C174.157 194.867 182.383 188.528 185.285 184C188.187 179.987 195.656 174.368 202.318 184C208.979 193.632 218.215 188.013 222 184" stroke="#FCC127" stroke-width="3"/>
<path d="M7.74023 113.5H261.5" stroke="#FCC127" stroke-width="3"/>
<path d="M246 4H24V100L135.5 39L246 100V4Z" fill="#FBD45D" stroke="#FCC127" stroke-width="7"/>
</svg>
