<svg width="373" height="373" viewBox="0 0 373 373" fill="none" xmlns="http://www.w3.org/2000/svg">
<path fill-rule="evenodd" clip-rule="evenodd" d="M373 186.5C373 289.501 289.501 373 186.5 373C83.4989 373 0 289.501 0 186.5C0 83.4989 83.4989 0 186.5 0C289.501 0 373 83.4989 373 186.5ZM307 250.841V122.04L231.34 173.313L307 250.841ZM222.93 179.013L300.014 258H72.9864L149.783 179.307L183.179 202.128L185.988 204.048L188.805 202.139L222.93 179.013ZM141.4 173.579L66 250.841V122.056L141.4 173.579ZM298.087 116L186.012 191.952L74.8623 116H298.087Z" fill="black"/>
</svg>
