<svg width="316" height="316" viewBox="0 0 316 316" fill="none" xmlns="http://www.w3.org/2000/svg">
<path fill-rule="evenodd" clip-rule="evenodd" d="M208.558 314.555C271.024 293.005 316 232.621 316 161.5C316 72.306 245.261 0 158 0C70.739 0 0 72.306 0 161.5C0 232.827 45.2373 293.354 107.986 314.741C116.016 316.477 118.679 311.206 119 308V280C105 282.5 90.5 283 80.5 276.5C70.5 270 68 265 63 252.5C59 242.5 48.3333 234 43.5 231C41.3333 228.833 39.9 224.6 51.5 225C63.1 225.4 74.6667 241.5 79 249.5C84.2 257.1 94.5 259 103 259C110.5 259 119.5 258 120.5 249.5C121.319 242.541 125.079 237.485 128.492 234.479C84.5352 227.852 56 204.521 56 158.5C56 138.92 62.443 122.672 73.4697 110.022C70.0683 101.768 67.4801 86.0474 75.5 67.0002C83.209 65.6396 102.433 70.8594 117.508 83.4056C129.78 79.829 143.299 78 157.5 78C172.226 78 186.219 79.7252 198.849 83.2753C213.899 70.8232 233.017 65.6443 240.699 67.0002C248.69 85.9781 246.15 101.654 242.767 109.932C253.037 122.293 259 138.396 259 158.5C259 205.894 229.792 227.691 188.393 234.258C193.462 238.776 196.188 250.866 197 257.5V308.5C197 316 205 316 208.5 314.5L208.558 314.555Z" fill="#030305"/>
</svg>
