<svg width="336" height="315" viewBox="0 0 336 315" fill="none" xmlns="http://www.w3.org/2000/svg">
<path fill-rule="evenodd" clip-rule="evenodd" d="M43.7905 73.257C67.9753 73.257 87.581 58.933 87.581 36.6285C87.581 14.324 67.9753 0 43.7905 0C19.6057 0 0 14.324 0 36.6285C0 58.933 19.6057 73.257 43.7905 73.257ZM255.786 191.737V213.428L255.965 213.421C255.847 214.23 255.786 215.057 255.786 215.899V297.309C255.786 306.698 263.397 314.309 272.786 314.309H319C328.389 314.309 336 306.698 336 297.309V215.899C336 213.972 335.679 212.12 335.089 210.393L336 210.358L335.795 175.776C335.727 167.318 333.135 146.064 323.313 128.711C311.035 107.021 294.256 89.0745 254.353 87.9903C230.77 87.3495 209.495 97.5379 196.853 106.083V104.99C196.853 95.6014 189.241 87.9903 179.853 87.9903H172.895H126.272C116.883 87.9903 109.272 95.6014 109.272 104.99V150.386V297.309C109.272 306.698 116.883 314.309 126.272 314.309H172.895C182.284 314.309 189.895 306.698 189.895 297.309V192.146C190.509 179.664 201.475 161.043 223.25 161.043C245.35 161.043 255.786 182.529 255.786 191.737ZM17 87.9903C7.61116 87.9903 0 95.6014 0 104.99V297.309C0 306.698 7.61115 314.309 17 314.309H70.581C79.9698 314.309 87.581 306.698 87.581 297.309V104.99C87.581 95.6014 79.9698 87.9903 70.581 87.9903H17Z" fill="#030305"/>
</svg>
