<svg width="344" height="344" viewBox="0 0 344 344" fill="none" xmlns="http://www.w3.org/2000/svg">
<rect x="3" y="3" width="338" height="338" rx="41" fill="#020A3D" stroke="#FCC127" stroke-width="6"/>
<path d="M86 241H257V289" stroke="#FCC127" stroke-width="7"/>
<circle cx="224.392" cy="200.165" r="28.8875" fill="#FCC127"/>
<path fill-rule="evenodd" clip-rule="evenodd" d="M257.507 250.189C259.154 254.877 256.401 258.989 253.279 261.462H193.391L157.457 221.302L174.367 209.324L201.846 244.488H247.314C251.87 244.488 255.86 245.502 257.507 250.189Z" fill="#FCC127" stroke="#020A3D" stroke-width="3"/>
<path d="M160.98 229.052C176.934 229.052 189.868 216.119 189.868 200.165C189.868 184.21 176.934 171.277 160.98 171.277H87V229.052H160.98Z" fill="#FCC127"/>
<path d="M157.457 123.076C157.457 113.897 144.524 106.456 128.57 106.456C112.616 106.456 99.6824 113.897 99.6824 123.076L99.6824 165.64L157.457 165.64L157.457 123.076Z" fill="#FCC127"/>
<circle cx="128.57" cy="95.8875" r="30.3875" fill="#FCC127" stroke="#020A3D" stroke-width="3"/>
<circle cx="151.821" cy="164.231" r="15.5915" fill="#FCC127" stroke="#020A3D" stroke-width="3"/>
<circle cx="119.41" cy="164.231" r="15.5915" fill="#FCC127" stroke="#020A3D" stroke-width="3"/>
<path d="M99.6824 180.436C101.796 183.959 108.419 191.005 118.001 191.005C127.584 191.005 133.502 187.482 135.616 185.368C137.729 187.482 143.366 191.005 151.821 191.005C160.276 191.005 168.966 183.959 171.549 180.436" stroke="#020A3D" stroke-width="2"/>
</svg>
