<svg width="344" height="344" viewBox="0 0 344 344" fill="none" xmlns="http://www.w3.org/2000/svg">
<rect x="3" y="3" width="338" height="338" rx="41" fill="#020A3D" stroke="#FCC127" stroke-width="6"/>
<path fill-rule="evenodd" clip-rule="evenodd" d="M158.991 132.954C156.137 145.332 143.79 153.052 131.412 150.199C119.034 147.345 111.313 134.998 114.167 122.62C117.021 110.242 133.921 66.334 148.71 75.167C163.5 84 161.845 120.576 158.991 132.954ZM110 174C110 183.941 101.941 192 92 192C82.0589 192 74 183.941 74 174C74 164.059 79.5 139 92 139C104.5 139 110 164.059 110 174ZM227.351 205.055C243.334 206.012 256 219.277 256 235.5C256 252.345 242.345 266 225.5 266C220.511 266 215.801 264.802 211.643 262.678L210.881 262.39L210.88 262.39C201.358 258.797 185.993 253 170.5 253C156.757 253 141.857 257.509 134.18 261.039C129.387 264.176 123.657 266 117.5 266C100.655 266 87 252.345 87 235.5C87 220.564 97.7355 208.136 111.911 205.511C120.946 202.92 135.489 195.09 141.466 183.132C145.419 170.87 156.924 162 170.5 162C185.065 162 197.245 172.209 200.275 185.861C205.121 196.155 217.591 202.535 227.351 205.055ZM246 192C255.941 192 264 183.941 264 174C264 164.059 258.5 139 246 139C233.5 139 228 164.059 228 174C228 183.941 236.059 192 246 192ZM210.011 150.281C222.333 147.196 229.822 134.706 226.737 122.383C223.652 110.061 205.623 69.6712 191.311 75.5856C177 81.5 179.029 121.232 182.114 133.555C185.199 145.877 197.689 153.365 210.011 150.281Z" fill="#FCC127"/>
</svg>
