<svg width="243" height="264" viewBox="0 0 243 264" fill="none" xmlns="http://www.w3.org/2000/svg">
<path fill-rule="evenodd" clip-rule="evenodd" d="M53.6137 87.8082C50.0972 89.308 46.2951 90.9296 49.2905 98.7176C49.5904 99.4974 49.9463 100.475 50.3693 101.636L50.3695 101.637C55.3762 115.386 69.7688 154.911 111.657 197.272C111.995 197.614 112.348 197.983 112.712 198.366C116.22 202.04 120.891 206.933 125.773 201.122C130.846 195.082 133.814 191.711 134.756 190.856C140.06 185.209 153.286 175.559 163.757 182.13C176.846 190.342 195.582 205.485 200.458 212.158C200.564 212.302 200.67 212.447 200.777 212.593L201.087 213.015C205.896 219.553 211.96 227.8 205.078 239.106C197.892 250.912 180.183 259.638 170.687 262.462C161.191 265.285 140.915 264.001 131.162 260.408C78.5487 241.024 11.8192 170.067 0.526517 74.079C-1.09895 63.043 0.321194 36.5052 19.0055 18.6422C37.6897 0.779191 53.6535 -0.264528 59.2998 1.44649C62.2085 2.38754 68.6933 5.80955 71.3625 11.9692C74.6989 19.6688 81.4116 35.6675 85.4783 56.6267C88.6072 72.7522 77.0654 77.8184 67.5738 81.9846C66.9439 82.2611 66.3231 82.5336 65.7161 82.8052L53.9102 87.6816L53.7723 87.7406L53.6137 87.8082ZM123.72 80.4953C119.356 79.4807 112.416 79.2387 109.347 86.9116C105.241 97.1777 112.026 102.628 120.126 104.364C127.313 105.904 136.552 113.603 138.605 122.586C139.957 128.499 139.335 132.674 138.866 135.826C138.765 136.506 138.671 137.137 138.605 137.729C138.206 141.322 140.299 147.995 149.128 150.048C157.957 152.101 161.704 144.402 162.474 140.295C164.014 133.708 164.784 117.043 155.544 103.081C146.305 89.1189 134.756 83.0618 123.72 80.4953ZM122.18 48.6705C125.67 41.4842 134.413 42.4253 138.349 43.7941C199.432 59.7065 206.96 116.683 201.998 141.578C201.314 146.369 197.392 155.826 187.626 153.384C176.333 150.561 177.531 140.894 178.643 135.932C184.546 90.7614 149.128 72.2824 138.349 68.4326C135.847 67.5392 133.744 67.0873 131.923 66.6963C129.198 66.1108 127.106 65.6614 125.259 64.0696C122.778 61.9308 118.689 55.8567 122.18 48.6705ZM150.668 6.83615C146.048 5.62134 137.109 4.3958 133.985 13.7658C130.136 25.3151 141.172 29.1649 145.535 29.9348C168.377 33.9658 229.46 65.6095 216.884 142.605C216.114 146.711 217.089 155.232 227.15 156.464C237.211 157.696 240.142 148.251 240.753 144.145C249.379 86.1416 219.964 25.0584 150.668 6.83615Z" fill="#030305"/>
</svg>
