<svg width="344" height="344" viewBox="0 0 344 344" fill="none" xmlns="http://www.w3.org/2000/svg">
<rect x="3" y="3" width="338" height="338" rx="41" fill="#020A3D" stroke="#FCC127" stroke-width="6"/>
<path fill-rule="evenodd" clip-rule="evenodd" d="M140 66.5C140 49.6553 153.655 36 170.5 36C187.345 36 201 49.6553 201 66.5C201 77.3641 195.321 86.9033 186.761 92.3089C185.827 92.8987 185.548 94.1339 186.137 95.0678C186.727 96.0018 187.962 96.2808 188.896 95.6911C198.569 89.5835 205 78.7936 205 66.5C205 47.4462 189.554 32 170.5 32C151.446 32 136 47.4462 136 66.5C136 78.7936 142.431 89.5835 152.104 95.6911C153.038 96.2808 154.273 96.0018 154.863 95.0678C155.452 94.1339 155.173 92.8987 154.239 92.3089C145.679 86.9033 140 77.3641 140 66.5ZM158 94V81V80C158 72.8203 163.82 67 171 67C178.18 67 184 72.8203 184 80V81V94H178V101.211C198.399 102.54 217.105 110.079 232.245 121.956L236.201 118L235.243 117.042C232.9 114.698 232.9 110.899 235.243 108.556L246.556 97.2426C248.9 94.8995 252.698 94.8995 255.042 97.2426L266.355 108.556C268.698 110.899 268.698 114.698 266.355 117.042L255.042 128.355C252.698 130.698 248.9 130.698 246.556 128.355L246.101 127.899L242.634 131.366C259.585 149.059 270 173.063 270 199.5C270 253.9 225.9 298 171.5 298C117.1 298 73 253.9 73 199.5C73 173.266 83.2556 149.428 99.9762 131.775L95.799 127.598L95.0416 128.355C92.6985 130.698 88.8995 130.698 86.5563 128.355L75.2426 117.042C72.8995 114.698 72.8995 110.899 75.2426 108.556L86.5563 97.2426C88.8995 94.8995 92.6985 94.8995 95.0416 97.2426L106.355 108.556C108.698 110.899 108.698 114.698 106.355 117.042L105.698 117.698L110.308 122.308C125.28 110.424 143.789 102.803 164 101.281V94H158ZM256 199.5C256 246.168 218.168 284 171.5 284C124.832 284 87 246.168 87 199.5C87 152.832 124.832 115 171.5 115C218.168 115 256 152.832 256 199.5Z" fill="#FCC127"/>
<path fill-rule="evenodd" clip-rule="evenodd" d="M171 123C168.791 123 167 124.791 167 127V139C167 141.209 168.791 143 171 143C173.209 143 175 141.209 175 139V127C175 124.791 173.209 123 171 123ZM171 256C168.791 256 167 257.791 167 260V272C167 274.209 168.791 276 171 276C173.209 276 175 274.209 175 272V260C175 257.791 173.209 256 171 256ZM227.5 199.5C227.5 201.709 229.291 203.5 231.5 203.5H243.5C245.709 203.5 247.5 201.709 247.5 199.5C247.5 197.291 245.709 195.5 243.5 195.5H231.5C229.291 195.5 227.5 197.291 227.5 199.5ZM94.5 199.5C94.5 201.709 96.2909 203.5 98.5 203.5H110.5C112.709 203.5 114.5 201.709 114.5 199.5C114.5 197.291 112.709 195.5 110.5 195.5H98.5C96.2909 195.5 94.5 197.291 94.5 199.5ZM216.608 159.548C215.046 161.111 212.514 161.111 210.952 159.548C209.389 157.986 209.389 155.454 210.952 153.892L219.437 145.406C220.999 143.844 223.532 143.844 225.094 145.406C226.656 146.968 226.656 149.501 225.094 151.063L216.608 159.548ZM122.563 253.594C121.001 255.156 118.468 255.156 116.906 253.594C115.344 252.032 115.344 249.499 116.906 247.937L125.392 239.452C126.954 237.889 129.486 237.889 131.048 239.452C132.611 241.014 132.611 243.546 131.048 245.108L122.563 253.594ZM116.906 145.406C115.344 146.968 115.344 149.501 116.906 151.063L125.392 159.548C126.954 161.111 129.486 161.111 131.048 159.548C132.611 157.986 132.611 155.454 131.048 153.892L122.563 145.406C121.001 143.844 118.468 143.844 116.906 145.406ZM210.952 239.452C209.389 241.014 209.389 243.546 210.952 245.108L219.437 253.594C220.999 255.156 223.532 255.156 225.094 253.594C226.656 252.032 226.656 249.499 225.094 247.937L216.608 239.452C215.046 237.889 212.514 237.889 210.952 239.452ZM186.785 206.126L201.259 226.465L179.342 238.73L169.607 215.822C161.905 214.667 156 208.023 156 200C156 196.551 157.091 193.356 158.948 190.743L133.899 131.805L171.06 184.027C171.371 184.009 171.684 184 172 184C180.837 184 188 191.163 188 200C188 202.17 187.568 204.239 186.785 206.126Z" fill="#FCC127"/>
<circle cx="172" cy="200" r="11" fill="#020A3D"/>
<circle cx="172" cy="200" r="7" fill="#FCC127"/>
</svg>
