<svg width="255" height="273" viewBox="0 0 255 273" fill="none" xmlns="http://www.w3.org/2000/svg">
<path d="M5 5H250V262.356C250 265.117 247.761 267.356 245 267.356H10C7.23858 267.356 5 265.117 5 262.356V5Z" stroke="#FCC127" stroke-width="10"/>
<path d="M37.3293 219.269C42.9811 212.508 57.9017 203.043 72.3702 219.269C86.8387 235.495 99.1219 226.03 103.455 219.269C107.788 213.277 118.941 204.887 128.888 219.269C138.835 233.651 152.625 225.262 158.277 219.269C163.503 213.545 176.046 205.532 184.408 219.269C192.769 233.006 203.321 224.993 207.552 219.269C208.298 217.278 210.986 213.296 215.764 213.296" stroke="#FCC127" stroke-width="3"/>
<path d="M37.3293 193.885C42.9811 187.124 57.9017 177.659 72.3702 193.885C86.8387 210.111 99.1219 200.646 103.455 193.885C107.788 187.893 118.941 179.503 128.888 193.885C138.835 208.267 152.625 199.878 158.277 193.885C163.503 188.161 176.046 180.148 184.408 193.885C192.769 207.622 203.321 199.609 207.552 193.885C208.298 191.894 210.986 187.912 215.764 187.912" stroke="#FCC127" stroke-width="3"/>
<path d="M37.3293 165.515C42.9811 158.754 57.9017 149.289 72.3702 165.515C86.8387 181.74 99.1219 172.275 103.455 165.515C107.788 159.522 118.941 151.133 128.888 165.515C138.835 179.897 152.625 171.507 158.277 165.515C163.503 159.791 176.046 151.777 184.408 165.515C192.769 179.252 203.321 171.238 207.552 165.515C208.298 163.524 210.986 159.542 215.764 159.542" stroke="#FCC127" stroke-width="3"/>
<path fill-rule="evenodd" clip-rule="evenodd" d="M142.692 88.6158C139.001 92.7398 133.637 95.3351 127.667 95.3351C121.697 95.3351 116.333 92.7398 112.642 88.6158C109.45 92.1822 107.509 96.8917 107.509 102.054V125.199H147.825V102.054C147.825 96.8917 145.884 92.1822 142.692 88.6158Z" fill="#FCC127"/>
<circle cx="127.667" cy="70.6977" r="20.1579" fill="#FCC127"/>
<circle cx="126.92" cy="89.3624" r="46.2818" stroke="#FCC127" stroke-width="3"/>
</svg>
