<svg width="344" height="344" viewBox="0 0 344 344" fill="none" xmlns="http://www.w3.org/2000/svg">
<rect x="3" y="3" width="338" height="338" rx="41" fill="#020A3D" stroke="#FCC127" stroke-width="6"/>
<path fill-rule="evenodd" clip-rule="evenodd" d="M210.221 138.696C206.3 142.891 203.273 147.931 201.44 153.514C197.086 151.888 192.373 151 187.453 151H185.453C164.096 151 146.649 167.737 145.512 188.81C140.337 186.366 134.554 185 128.453 185H126.453C114.89 185 104.473 189.906 97.1701 197.75C85.5834 185.782 78.4527 169.474 78.4527 151.5C78.4527 114.773 108.226 85 144.953 85C177.3 85 204.253 108.095 210.221 138.696Z" fill="#FCC127"/>
<path fill-rule="evenodd" clip-rule="evenodd" d="M246.453 138C228.721 138 213.685 149.537 208.44 165.514C204.086 163.888 199.373 163 194.453 163H192.453C171.096 163 153.649 179.737 152.512 200.81C147.337 198.366 141.554 197 135.453 197H133.453C113.749 197 97.3732 211.246 94.0631 230H85.9527C76.84 230 69.4527 237.387 69.4527 246.5C69.4527 255.613 76.84 263 85.9527 263H271.953C280.898 263 288.181 255.881 288.445 247H288.453V246.5V178C288.453 155.909 270.544 138 248.453 138H246.453Z" fill="#FCC127"/>
<path d="M147.953 55C147.953 53.067 146.386 51.5 144.453 51.5C142.52 51.5 140.953 53.067 140.953 55H147.953ZM147.953 78V55H140.953V78H147.953Z" fill="#FCC127"/>
<path d="M204.822 74.0605C205.96 72.498 205.616 70.3088 204.054 69.1708C202.491 68.0328 200.302 68.377 199.164 69.9395L204.822 74.0605ZM191.282 92.6523L204.822 74.0605L199.164 69.9395L185.623 88.5313L191.282 92.6523Z" fill="#FCC127"/>
<path d="M236.84 118.186C238.6 117.387 239.378 115.312 238.578 113.552C237.779 111.792 235.704 111.014 233.944 111.814L236.84 118.186ZM215.901 127.702L236.84 118.186L233.944 111.814L213.005 121.329L215.901 127.702Z" fill="#FCC127"/>
<path d="M84.0222 74.0605C82.8842 72.498 83.2284 70.3088 84.7909 69.1708C86.3534 68.0328 88.5426 68.377 89.6806 69.9395L84.0222 74.0605ZM97.5627 92.6523L84.0222 74.0605L89.6806 69.9395L103.221 88.5313L97.5627 92.6523Z" fill="#FCC127"/>
<path d="M52.0046 118.186C50.2448 117.387 49.4665 115.312 50.2663 113.552C51.066 111.792 53.1409 111.014 54.9007 111.814L52.0046 118.186ZM72.9438 127.702L52.0046 118.186L54.9007 111.814L75.8399 121.329L72.9438 127.702Z" fill="#FCC127"/>
<path d="M47.583 173.736C45.677 174.058 43.8709 172.774 43.5489 170.868C43.2269 168.962 44.511 167.156 46.417 166.834L47.583 173.736ZM70.2617 169.905L47.583 173.736L46.417 166.834L69.0957 163.003L70.2617 169.905Z" fill="#FCC127"/>
</svg>
