<svg width="1920" height="960" viewBox="0 0 1920 960" fill="none" xmlns="http://www.w3.org/2000/svg">
<mask id="mask0_200_2" style="mask-type:alpha" maskUnits="userSpaceOnUse" x="0" y="0" width="1920" height="960">
<rect width="1920" height="960" fill="#020A3D"/>
</mask>
<g mask="url(#mask0_200_2)">
<rect width="1920" height="960" fill="#020A3D"/>
<path d="M1752 997C1790.17 982 1865.5 962.5 1872 894C1880.63 803 1959.83 854.667 2001 864L1957 109C1916 92.5 1771.5 175.9 1801.5 217.5C1831.5 259.1 1939.67 203.167 1988 171L2052.5 252C2024.33 230 1971.61 330.011 1885 302.5C1800 275.5 1827.5 454 1948.5 354L2078.5 313.5C2131.17 328.333 2177.33 363.356 1957 437.5C1747.5 508 1770.5 460.5 1780 432C1789.5 403.5 1790 378.5 1761.5 354C1733 329.5 1689.79 367.153 1684.5 398.5C1676.9 443.54 1716.06 485.658 1670.5 500C1643.5 508.5 1596.5 398.5 1566.5 483C1543.83 546.853 1485.17 542.5 1457 491.5C1442.09 464.5 1419.93 454.255 1378.5 483C1354 500 1308 483 1326.5 419C1338.17 374.833 1380.6 303.2 1457 370C1533.4 436.8 1613.17 364.5 1643.5 320C1676.5 265.5 1767.5 286.5 1727 232.5C1637.5 72.9999 1803.77 135.08 1827.5 70C1860.5 -20.5 1767.17 -64.3332 1704.5 -63.4999C1732 -19.6665 1750.4 66.4001 1604 60C1457.6 53.5999 1523.67 -25 1575 -63.4999L1007 -36.5C1007 -6 937.5 92.8209 1014.5 105.5C1091.5 118.179 1140.75 82.4359 1104 24C1032 -90.5001 1082 -259.5 1176.5 -13.5C1252.1 183.3 1348.5 18.5 1354 -63.4999L1443 -20.5C1404.17 41.5 1361.1 158.9 1499.5 132.5C1637.9 106.1 1619.17 188.167 1592.5 232.5C1564.83 277.833 1489.5 345.2 1409.5 252C1329.5 158.8 1308.5 222.167 1308 265.5C1303.5 342 1257.9 476 1111.5 400C965.1 324 874.5 408.333 859 455C842 518.5 832 548.5 749 541.5C700 530.5 660.6 525.4 681 593C701.4 660.6 763.833 647.833 792.5 633C846 609 889 699.5 962 699.5C1008.67 699.5 1085 686.2 1017 633C834.6 489 947.667 454.333 1027 455C1068.5 455.349 1117.5 490.4 1121.5 558C1125.5 625.6 1205.5 569.5 1245 533C1264 515.443 1316.5 528.5 1398 593C1479.5 657.5 1509.5 760.775 1509.5 851C1509.5 961 1594 891 1656 803C1718 715 1591 682.5 1557.5 651.5C1494.7 594.3 1583.67 565.333 1636 558C1670.83 557.333 1735.9 567.7 1717.5 614.5C1694.5 673 1792 722.5 1847 682.5C1891 650.5 1865.33 623.833 1847 614.5C1797.17 599.5 1727.4 562.2 1847 533C1966.6 503.8 2032.17 716.5 2045 813C1879.8 623 1687.83 905.5 1612.5 1070.5C1413.33 1107.67 1022 1141.4 1050 979C1078 816.6 1145 938 1175 1019C1218.17 1038.5 1295.2 1065.8 1258 1019C1211.5 960.5 1178.5 809.5 1245 803C1311.5 796.5 1338 838 1326.5 972.5C1317.3 1080.1 1400.33 1057.33 1443 1032.5C1450.67 974.833 1445.1 827.5 1361.5 699.5C1277.9 571.5 1219 646.167 1200 699.5C1192.17 734 1150.2 796.6 1045 771C913.5 739 1042 1065.5 918.5 1032.5C795 999.5 947 773 812.5 739.5C678 706 617.167 853.369 701 831.5C724 825.5 802.459 835.5 779.5 898C765.541 936 719.1 956.2 599.5 891C479.9 825.8 477.333 918.166 491 972.5C515.5 1000.17 540.9 1050.9 446.5 1032.5C328.5 1009.5 310 766 461 784.5C612 803 666 699.5 579.5 633C409.1 497 466.167 427.667 516 410C660.5 350 692.5 546.5 792.5 410C840.679 344.235 932 265.5 1088.5 313.5C1245 361.5 1258 87.5 1067 184.5C914.2 262.1 892.333 190.833 900.5 145.5C908.833 106.833 905.5 10.9 825.5 -63.4999C677.5 -209.5 699.5 -124.333 729 -63.4999C789.5 48.8335 859.5 279.1 655.5 301.5C400.5 329.5 857.5 29.5 621 68.0001C431.8 98.8002 390.833 55.1667 394 29.5C383.5 -57 347.8 -188.3 289 -21.5C215.5 187 652 85.5 471.5 232.5C291 379.5 295.5 165.5 236 135.5C188.4 111.5 166.639 155.5 178.5 184.5C247.7 353.7 70.6667 351.333 -26.5 329L-80.5 216C-16.5 238.667 104.7 260.9 77.5 168.5C50.3 76.1 -47.1667 87 -92.5 104L-49 -29C-12 2.83333 74.6 64.6 125 57C188 47.5 208 34 154 -54C110.8 -124.4 -52 -66.6667 -128 -29L-107 469C-49.8333 493.5 69.5 526.3 89.5 461.5C110.951 392 147.951 401.575 178.5 416.5C244 448.5 245.092 362.298 291.5 346.5C315 338.5 442.961 321.718 394 455C367 528.5 323.5 510.628 305.5 486.5C282 455 232 462.5 232 514C232 613.684 305.833 600.333 369.5 593C388.833 590.333 434.9 586.1 452.5 618.5C472.599 655.5 548.3 651.189 543 693C537.93 733 467.454 724.991 438.5 719C409.5 713 385.5 741.594 350 695C326 663.5 279.5 657.215 244 659.5C163.2 664.7 150.333 604 154 573C163.5 538 123.5 518.5 41.5 608C-43.9422 701.257 69.5 718.5 118.5 718.5C197 719.333 336.2 749.8 265 865C193.8 980.2 286 1044 341 1061.5L96 1043C63 975 21.5349 852.944 32 824.5C51.5 771.5 161.5 769.5 147 865C135.4 941.4 167.5 1008.5 185 1032.5" stroke="#202F92" stroke-opacity="0.5" stroke-width="43"/>
<path d="M1611.5 561.5C1611.5 559 1606.1 558.8 1606.5 562C1606.79 564.361 1611.5 562.5 1611.5 566C1611.5 568.5 1606 568.5 1606 566M1614 559V568C1614 565.833 1614 562 1616.5 562C1618.8 562 1618.5 566 1618.5 568M1621 563C1621.75 561.509 1625 561.346 1625 563.5M1625 568C1625 567.408 1625 566.847 1625 566.324M1625 563.5C1625 563.673 1625 563.865 1625 564.072M1625 563.5V564.072M1625 564.072C1624.5 564.382 1623.5 564.5 1622 565C1620.63 565.457 1621 567.5 1622.5 567.5C1624.5 567.5 1625 566.716 1625 566.324M1625 564.072C1625 564.691 1625 565.454 1625 566.324M1628 561.5V563.5M1628 568V563.5M1628 563.5C1628 562 1632 561.149 1632 563.5C1632 566.7 1632 567.833 1632 568M1639.5 566.5C1639 567.5 1636.38 568.336 1635 566.5C1634.5 565.833 1634.5 565 1634.5 564.5M1634.5 564.5C1634.5 563 1635.7 562.133 1636.5 562C1637.5 561.833 1639.5 562.1 1639.5 564.5H1634.5ZM1645.5 568V559.5L1648.79 567.5H1649.24L1653 559.5V568M1656 568V561.5M1656 560.5V559M1659 561.5V563.5M1659 563.5V568M1659 563.5C1659 562 1663 561.149 1663 563.5V568M1670.5 568V565.75M1670.5 559.5V563.5M1670.5 563.5C1669.5 561.5 1667 561.5 1666 563C1665.16 564.257 1665.5 567 1667 567.5C1667.83 567.833 1669.7 567.95 1670.5 565.75M1670.5 563.5V565.75M1673.5 561.5V563.5M1673.5 568V563.5M1673.5 563.5C1673.67 563 1674.4 562 1676 562M1682 566.5C1681.5 567.5 1678.88 568.336 1677.5 566.5C1677 565.833 1677 565 1677 564.5M1677 564.5C1677 563 1678.2 562.133 1679 562C1680 561.833 1682 562.1 1682 564.5H1677ZM1684.5 563C1685.25 561.509 1688.5 561.346 1688.5 563.5V564.072M1688.5 564.072C1688 564.382 1687 564.5 1685.5 565C1684.13 565.457 1684.5 567.5 1686 567.5C1688 567.5 1688.5 566.716 1688.5 566.324M1688.5 564.072V566.324M1688.5 566.324V568M1695.5 561.5V566M1695.5 568V566M1691.5 561.5V566C1691.5 566.5 1691.8 567.5 1693 567.5C1694.5 567.5 1695 567 1695.5 566" stroke="#111D68"/>
</g>
<circle cx="542" cy="495" r="428" fill="#111D68"/>
<circle cx="539.5" cy="496.5" r="356.5" fill="#020A3D"/>
<path d="M539.683 190.76C540.727 190.76 541.771 190.76 542.847 190.76C543.23 192.079 543.613 193.398 544.008 194.757C546.783 204.073 549.65 213.046 553.857 221.813C555.5 225.557 555.5 225.557 557.045 230.388C561.386 243.663 567.125 250.964 577.279 260.125C578.443 261.244 579.607 262.363 580.807 263.517C580.807 264.561 580.807 265.604 580.807 266.68C581.688 267.067 582.568 267.455 583.476 267.854C595.495 274.391 604.245 284.152 609.277 296.732C614.128 294.577 617.372 292.15 621.04 288.329C621.919 287.422 622.798 286.514 623.703 285.58C624.684 284.562 625.665 283.545 626.675 282.497C634.595 274.459 642.894 266.87 651.25 259.295C653.324 257.407 655.385 255.505 657.443 253.6C658.544 252.599 659.645 251.598 660.78 250.567C661.728 249.696 662.676 248.826 663.653 247.929C666.217 246.118 665.426 246.118 668.589 244.537C670.171 243.746 672.006 242.987 672.543 241.373C674.897 238.834 674.897 238.834 677.783 236.332C678.723 235.494 679.662 234.656 680.631 233.792C683.615 231.883 683.615 231.883 689.942 231.883C689.453 234.455 688.957 237.025 688.459 239.594C688.046 241.741 688.046 241.741 687.625 243.931C686.778 247.7 686.778 247.7 685.197 250.863C681.791 281.923 682.614 307.276 698.561 334.593C702.186 341.752 703.386 348.136 705.758 356.044C709.713 354.463 711.464 353.548 715.248 350.508C748.853 329.611 786.054 314.987 824.186 304.838C825.933 304.365 847.318 298.652 849.69 298.313C852.458 297.918 856.017 297.523 867.088 298.313C866.044 299.879 865.001 301.445 863.925 303.058C862.881 303.058 860.256 303.058 859.18 303.058C858.821 303.907 858.462 304.755 858.093 305.629C856.017 309.385 856.017 309.385 852.458 313.537C835.358 333.796 828.989 359.888 821.743 384.815C817.04 400.964 812.048 417.013 806.985 433.052C806.59 434.302 806.196 435.553 805.789 436.841C803.557 443.916 801.319 450.99 799.077 458.062C801.55 458.024 801.55 458.024 804.072 457.986C810.307 457.899 816.542 457.846 822.777 457.801C825.453 457.777 828.129 457.745 830.805 457.704C858.146 457.29 881.031 461.118 905.74 473.186C906.734 473.669 907.729 474.152 908.753 474.649C915.932 478.247 915.932 478.247 917.702 481.787C912.375 483.355 907.144 484.843 901.706 485.976C877.504 491.472 857.762 507.561 840.2 524.492C838.266 526.184 836.322 527.865 834.368 529.533C830.222 533.12 826.215 536.819 822.264 540.617C809.456 552.892 796.417 563.663 781.678 573.523C779.18 575.23 779.18 575.23 776.631 576.971C758.417 589.3 739.468 599.735 719.993 609.902C722.376 610.134 722.376 610.134 724.806 610.371C762.145 614.309 795.293 629.155 819.54 658.538C821.69 661.299 823.832 664.067 825.965 666.842C827.503 668.663 829.05 670.477 830.611 672.279C833.391 675.732 835.162 678.699 837.037 682.658C835.522 682.43 834.007 682.202 832.446 681.966C807.117 678.346 778.224 675.97 753.925 685.883C737.776 692.209 718.295 691.102 702.496 684.537C695.564 681.488 688.788 678.174 682.033 674.75C684.969 680.009 687.947 685.179 691.208 690.245C699.71 703.518 706.209 717.078 712.085 731.69C712.539 732.808 712.992 733.926 713.46 735.078C714.805 738.421 716.12 741.774 717.423 745.134C717.82 746.137 718.217 747.14 718.626 748.173C721.343 755.388 722.432 762.033 723.157 769.65C717.514 766.515 713.461 763.117 708.922 758.578C697.936 749.79 684.336 746.703 670.803 743.795C643.285 737.833 622.498 726.96 602.95 706.383C602.314 708.136 602.314 708.136 601.665 709.924C590.544 738.713 567.625 759.869 542.847 777.558C531.628 772.545 523.808 765.331 515.39 756.527C511.861 752.914 508.296 749.707 504.392 746.518C494.781 738.282 487.081 726.208 482.743 714.292C482.743 712.204 482.743 710.116 482.743 707.965C480.731 709.709 478.722 711.456 476.713 713.204C475.594 714.177 474.475 715.149 473.321 716.151C470.183 718.873 470.183 718.873 467.858 721.394C452.649 735.846 426.021 741.177 406.484 746.198C392.915 749.76 380.139 753.84 370.544 764.608C368.983 766.339 367.38 768.035 365.7 769.65C364.656 769.65 363.612 769.65 362.537 769.65C364.274 753.663 369.928 739.796 376.772 725.363C377.716 723.264 378.657 721.163 379.595 719.061C386.432 703.912 394.272 690.044 403.66 676.332C402.039 677.113 400.418 677.893 398.748 678.698C396.596 679.722 394.444 680.746 392.292 681.769C391.227 682.283 390.161 682.798 389.064 683.329C367.546 693.51 345.26 689.415 322.896 684.24C298.081 678.536 271.791 676.001 247.075 684.24C250.885 675.224 258.428 668.648 265.077 661.66C267.614 658.958 270.078 656.202 272.542 653.435C290.575 633.719 315.021 616.805 341.975 613.065C343.743 612.753 345.51 612.441 347.332 612.12C351.866 611.324 356.403 610.588 360.955 609.902C356.778 604.737 352 603.438 345.83 601.301C321.878 592.327 301.492 575.338 281.872 559.288C280.171 557.909 280.171 557.909 278.437 556.502C274.798 553.55 271.166 550.589 267.538 547.624C266.407 546.701 265.276 545.779 264.112 544.829C256.79 538.798 250.071 532.474 243.621 525.505C233.213 514.465 221.97 506.972 209.115 499.185C206.939 497.704 204.764 496.222 202.591 494.737C191.259 487.709 178.013 484.383 164.828 483.368C164.977 480.545 164.977 480.545 166.41 477.042C169.865 474.872 172.985 473.225 176.691 471.605C177.751 471.131 178.81 470.658 179.902 470.17C197.025 462.76 214.297 457.943 232.84 455.788C234.05 455.641 235.259 455.493 236.505 455.341C244.205 454.609 250.462 455.468 257.936 457.362C262.901 458.392 267.464 457.997 272.481 457.469C274.26 457.293 276.04 457.118 277.874 456.937C279.853 456.711 279.853 456.711 281.872 456.48C280.138 450.874 278.387 445.274 276.632 439.675C275.9 437.305 275.9 437.305 275.153 434.887C272.643 426.909 269.822 419.672 266.055 412.193C265.233 408.06 265.233 408.06 264.77 403.791C262.99 391.822 258.848 380.941 254.636 369.658C253.456 366.473 252.315 363.277 251.19 360.072C246.236 345.962 241.156 333.365 233.167 320.673C231.258 317.293 230.971 317.006 229.677 315.712C228.886 314.921 228.91 313.478 227.7 313.141C224.141 308.594 222.559 305.431 217.023 301.477C215.458 299.911 215.458 299.911 213.86 298.313C231.258 296.732 245.446 300.12 260.562 306.265C264.474 307.804 268.176 308.706 272.283 309.583C295.539 315.34 317.696 324.567 339.306 334.791C340.936 335.553 342.567 336.315 344.247 337.101C354.524 342.084 363.319 347.862 372.027 355.253C372.296 354.394 372.565 353.535 372.842 352.65C375.319 344.96 378.167 337.586 381.449 330.206C396.074 297.23 395.693 266.949 389.425 231.883C398.023 232.369 402.293 237.432 408.108 243.153C409.962 244.938 411.818 246.722 413.675 248.503C414.627 249.421 415.578 250.339 416.558 251.285C419.414 253.968 422.347 256.519 425.328 259.062C434.368 266.901 442.689 275.489 451.11 283.979C452.805 285.682 454.5 287.384 456.195 289.086C460.304 293.212 464.407 297.343 468.508 301.477C469.499 299.915 470.49 298.353 471.511 296.744C472.817 294.697 474.122 292.65 475.428 290.603C476.081 289.573 476.733 288.543 477.405 287.483C480.023 283.387 482.459 279.618 485.907 276.17C487.272 274.804 487.488 274.588 489.07 273.798C490.652 272.624 491.135 271.732 492.233 270.634C496.188 266.68 498.406 265.285 502.811 261.737C520.655 246.127 528.818 224.245 534.938 201.832C535.982 201.832 537.026 201.832 538.102 201.832C538.624 198.178 539.146 194.524 539.683 190.76Z" fill="#EE95B6"/>
<path d="M283.447 462.998L281.872 458.062C255.892 454.272 229.98 455.854 204.37 461.225V462.807C214.626 467.21 224.392 471.988 233.904 477.835L237.981 480.403C242.321 483.133 246.648 485.879 250.957 488.659L254.983 491.277C273.602 503.304 286.189 516.317 298.668 534.564C309.428 550.365 319.812 565.339 333.82 578.441C336.32 580.729 338.815 583.016 341.271 585.352C351.008 594.681 361.028 603.139 372.051 610.909L375.19 613.065C371.964 613.065 371.236 612.274 368.073 611.483C366.491 610.692 366.491 610.692 365.7 609.902L362.537 608.32C356.951 608.692 353.646 609.493 348.994 612.67L345.138 616.228L341.085 619.787C332.474 629.502 329.201 639.613 329.322 652.607C332.023 658.01 332.023 658.01 341.975 665.26C363.011 675.593 386.526 673.853 408.776 669.06L411.568 668.423V670.005C411.371 674.355 411.371 674.355 411.568 679.495C413.818 688.269 419.894 695.359 427.157 700.588C440.154 707.904 440.154 707.904 467.674 701.095L471.672 700.057C472.957 703.912 474.539 708.657 476.417 712.71C478.03 713.248 478.789 711.919 480.371 711.128C480.44 706.891 479.782 701.123 479.58 696.893C478.789 693.73 478.789 692.148 478.789 688.985C478.657 687.378 478.127 684.218 477.998 682.658C477.762 679.858 477.722 677.551 477.498 674.75C489.655 687.755 502.192 698.842 517.905 707.252L521.198 708.954C527.559 712.334 532.859 714.614 540.147 714.724C561.215 713.17 585.332 697.236 599.984 682.757L604.532 677.913C604.532 687.593 602.159 696.988 602.159 706.383C603.235 706.921 606.651 711.397 607.695 711.919C607.695 707.965 609.814 700.547 610.858 696.894L610.858 696.893C628.515 704.058 644.608 702.332 662.522 696.683C668.686 694.395 672.639 691.863 675.701 685.933C678.067 680.19 679.314 677.662 677.288 671.587C674.916 670.005 674.916 670.005 670.962 668.423C669.197 667.718 668.589 667.632 666.217 666.842C670.56 666.809 674.903 666.783 679.247 666.764L684.604 666.743L689.849 666.703L694.946 666.687C699.878 666.661 704.399 666.876 709.281 667.622C720.031 669.586 729.63 668.684 739.987 665.211C749.472 661.316 755.854 656.288 760.091 646.799C762.168 639.342 763.071 629.628 759.535 622.555C756.491 618.098 754.695 615.116 749.452 613.46L745.3 613.065C735.724 610.963 722.72 609.03 713.463 612.886C704.907 617.977 696.436 621.722 686.778 624.137C693.325 619.464 699.845 614.768 706.685 610.532C715.48 605.17 723.505 599.313 731.461 592.8C738.494 587.034 745.587 581.602 753.193 576.61C779.365 559.622 795.685 537.118 813.312 511.838C824.742 494.884 837.917 481.932 854.435 470.023C859.711 466.388 864.254 462.713 868.67 458.062C858.55 458.176 848.404 458.468 838.31 457.654C831.506 456.898 825.359 456.356 818.551 457.271C813.666 457.967 809.414 457.997 804.514 457.37L799.077 456.48C796.039 462.838 793.091 468.784 791.86 475.757C791.355 480.37 791.355 480.37 788.994 484.851L786.423 489.695C784.054 495.364 781.678 500.767 778.781 506.191L775.648 511.641C771.847 518.266 767.91 524.711 763.588 531.016C761.321 534.192 761.321 534.192 759.535 537.145C758.447 538.945 757.953 540.308 756.372 541.89C753.999 544.262 753.208 545.053 751.058 547.988C747.337 554.229 743.888 559.563 738.183 564.132L726.32 571.942C712.398 580.759 697.45 586.825 682.033 592.503C682.822 589.255 683.657 586.033 684.585 582.822L685.691 579.158C686.565 576.221 687.456 573.288 688.36 570.36L688.471 570.033C692.193 559.098 695.556 549.214 694.996 537.534L694.687 533.982C693.367 518.141 693.367 518.141 684.795 484.969C683.615 481.787 683.615 481.787 680.452 480.205C679.243 483.882 678.851 486.385 679.362 490.253C681.466 499.786 682.622 509.073 683.105 518.82L683.319 523.899C683.978 534.928 684.182 544.27 680.149 554.675L678.87 557.707L677.078 562.458C674.577 568.909 672.61 574.402 671.95 581.333L671.666 584.354C667.427 604.842 651.894 619.737 635.374 631.056L602.95 646.28C597.297 647.171 591.838 647.863 586.114 648.062L579.902 648.066C576.295 648.075 572.688 648.081 569.08 648.077C566.511 648.074 563.942 648.072 561.373 648.073C556.005 648.077 550.637 648.079 545.269 648.073C538.297 648.064 531.325 648.059 524.353 648.068C518.898 648.075 513.444 648.079 507.99 648.076C505.394 648.074 502.799 648.073 500.204 648.072C496.465 648.077 492.727 648.082 488.989 648.075L485.583 648.066C482 648.064 478.415 648.019 474.835 647.862C473.253 646.28 473.253 646.28 468.348 645.532C464.322 644.988 460.307 644.353 456.312 643.617L450.517 642.425C444.826 641.357 444.826 641.357 440.038 639.953L438.457 636.79L442.905 639.261C447.947 641.535 447.947 641.535 452.692 639.953C447.795 634.675 443.497 629.8 436.974 626.608L433.712 625.718C433.712 622.555 433.712 622.555 431.222 619.41L427.879 615.734C425.631 613.24 423.356 610.769 421.058 608.32C406.094 594.537 402.544 574.218 399.619 554.846L398.915 549.798H397.333C397.035 524.849 396.352 499.937 399.805 475.163L400.497 470.715H397.333C383.126 502.796 379.764 534.635 391.896 568.185C395.748 582.47 395.748 582.47 397.333 597.248H394.17C367.225 584.336 342.44 561.907 325.653 537.518C322.636 533.134 319.611 528.975 316.174 524.899C300.292 506.757 290.935 485.718 283.447 462.998Z" fill="#B95479"/>
<path d="M541.895 265.203L539.683 263.517L536.52 269.843L534.938 268.262C529.566 270.564 526.218 273.45 522.285 277.752C520.26 280.452 518.161 283.102 515.958 285.66H511.213C496.993 291.95 489.483 303.78 483.738 317.843L482.743 320.457H477.998L476.015 322.613C469.209 332.752 461.45 341.995 452.692 350.508C446.272 355.548 440.682 357.318 432.525 357.033C417.165 354.563 405.806 347.303 395.752 335.779C394.371 334.102 392.987 332.428 391.6 330.756C388.013 326.963 386.604 325.637 381.517 325.202L373.608 355.253C380.004 360.05 385.535 365.469 391.136 371.144C394.17 374.233 394.17 374.233 402.078 382.142C405.928 385.808 409.408 389.181 412.359 393.609C413.82 396.286 415.29 398.959 416.777 401.622C418.216 404.197 419.649 406.776 421.077 409.357L422.64 412.193H427.385L459.612 367.017C461.963 363.517 464.348 360.182 466.927 356.835C473.856 354.525 478.068 350.009 481.656 343.687L498.004 331.312L500.735 328.859C503.976 325.995 507.063 323.03 510.132 319.981C512.359 317.741 514.588 315.502 516.833 313.279C518.581 311.553 520.327 309.824 522.072 308.094L524.756 305.431C529.643 300.617 534.363 295.845 538.738 290.553L541.265 287.242C547.434 298.353 553.664 306.556 563.872 314.161C566.947 316.41 569.978 318.721 572.979 321.068L577.742 324.905C582.062 328.24 582.062 328.24 585.552 331.528L596.84 345.776C600.561 350.856 602.598 354.77 608.881 356.341C610.091 356.509 613.638 361.417 614.813 361.58C617.3 367.847 617.674 368.108 621.603 373.563L623.907 376.705C628.255 382.864 631.937 387.716 638.154 392.107L651.982 410.612L653.563 413.775C658.308 410.612 658.308 410.612 660.347 407.856C670.033 392.393 680.127 377.554 694.687 366.325C699.07 363.154 701.972 361.318 704.276 356.44C704.136 350.309 704.136 350.309 697.85 339.437C690.651 344.354 683.376 348.996 675.626 353.004C657.724 361.085 644.161 359.196 626.125 352.825C612.209 347.244 607.722 339.267 601.473 325.857L599.787 322.038H595.042C593.619 316.939 592.298 313.084 589.012 308.891C585.887 305.052 583.862 301.588 581.598 297.226L581.486 297.002C579.496 292.999 578.425 290.845 574.431 288.595L571.317 287.242C568.153 284.078 568.153 284.078 564.829 281.681C557.061 276.342 549.411 270.892 541.895 265.203Z" fill="#B95479"/>
<path d="M585.552 499.185C586.084 498.652 587.133 498.394 587.133 499.185C587.211 500.961 587.288 502.737 587.368 504.566C587.895 519.351 587.895 519.351 590.395 533.883C597.017 560.169 587.742 590.871 580.807 616.228C592.164 617.724 600.383 618.303 610.858 613.065C611.909 609.913 612.947 606.757 613.941 603.587C616.051 597.548 618.563 591.733 621.139 585.88C621.608 584.81 622.078 583.739 622.561 582.636C625.347 576.345 628.293 570.164 631.42 564.033C632.211 562.452 634.583 564.033 634.583 565.615C633.912 581.88 632.831 596.144 623.512 609.902C633.744 608.662 641.475 607.271 649.529 600.659C651.982 598.83 651.982 598.83 656.924 597.248C661.807 595.92 661.807 595.92 665.525 591.614C669.762 587.377 671.568 587.024 677.288 586.177C677.611 584.677 677.611 584.677 677.94 583.148C680.706 572.154 684.96 565.918 693.006 558.102C695.147 555.916 697.285 553.727 699.419 551.535C700.485 550.452 701.551 549.37 702.649 548.255C714.388 536.168 725.154 524.063 732.356 508.694C734.228 505.512 734.228 505.512 738.973 503.93C733.705 524.448 724.085 537.062 709.701 552.075C700.404 561.794 691.913 571.517 684.573 582.81C681.899 586.355 679.49 588.61 675.707 590.922C674.141 590.922 672.575 590.922 670.962 590.922C670.962 591.966 670.962 593.01 670.962 594.085C678.536 592.009 685.971 589.694 693.296 586.856C694.423 586.42 695.549 585.984 696.71 585.535C698.968 584.652 701.221 583.755 703.469 582.846C711.568 579.678 711.568 579.678 716.83 581.432C702.408 597.843 682.239 605.2 661.472 609.902C661.472 610.946 661.472 611.99 661.472 613.065C661.472 615.701 661.472 618.337 661.472 620.973C660.232 621.104 658.992 621.234 657.715 621.369C655.66 621.956 655.66 621.956 653.563 622.555C652.887 624.008 652.887 624.008 652.198 625.49C649.833 629.952 647.159 631.268 642.788 633.726C641.441 634.494 640.093 635.263 638.704 636.055C635.866 637.651 633.023 639.24 630.178 640.825C626.383 642.767 626.383 642.767 625.686 646.478C625.491 647.456 625.295 648.435 625.093 649.443C623.527 649.965 621.962 650.487 620.348 651.025C619.435 650.471 618.521 649.916 617.58 649.345C613.812 647.417 613.812 647.417 608.585 648.653C601.619 651.585 599.385 654.461 595.042 660.515C593.835 659.145 592.628 657.775 591.384 656.363C587.706 653.229 586.173 652.581 581.27 652.786C578.245 653.381 575.234 654.05 572.243 654.8C568.153 655.77 568.153 655.77 561.827 655.77C561.827 656.814 561.827 657.858 561.827 658.933C554.831 661.265 547.904 660.796 540.672 659.724C532.836 658.643 527.642 657.985 520.703 662.097C518.331 659.922 518.331 659.922 515.958 657.352C515.958 656.308 515.958 655.264 515.958 654.188C514.099 653.96 512.239 653.732 510.324 653.496C504.282 652.743 498.258 651.904 492.233 651.025C491.189 653.113 490.146 655.201 489.07 657.352C487.863 656.373 486.656 655.394 485.412 654.386C480.766 651.234 476.913 650.446 471.375 649.74C455.346 647.239 441.445 635.752 430.548 624.137C429.438 622.057 428.376 619.949 427.385 617.81C419.889 609.211 410.647 603.781 400.497 598.83C401.019 597.786 401.541 596.742 402.078 595.667C413.685 594.774 422.894 597.955 433.712 601.993C433.337 601.172 432.962 600.351 432.575 599.505C430.869 595.758 429.177 592.006 427.484 588.253C426.598 586.315 426.598 586.315 425.695 584.339C422.911 578.144 420.35 572.42 419.477 565.615C419.071 562.452 422.354 559.288 424.222 562.452C424.841 563.502 425.461 564.552 426.1 565.634C428.263 569.2 430.466 572.717 432.723 576.223C433.4 577.283 434.077 578.342 434.774 579.433C436.166 581.609 437.567 583.78 438.976 585.945C442.467 591.44 445.042 596.224 446.791 602.512C448.139 606.358 448.835 607.901 452.354 610.03C455.971 611.299 459.518 612.181 463.269 612.966C465.115 613.426 465.115 613.426 466.998 613.896C474.842 615.787 482.646 616.854 490.652 617.81C490.335 616.517 490.335 616.517 490.012 615.197C487.793 606.115 485.588 597.029 483.392 587.941C482.574 584.563 481.751 581.185 480.925 577.809C469.34 530.424 469.34 530.424 470.09 508.675C470.09 504.721 474.822 504.721 474.835 508.675C474.841 510.556 474.841 510.556 474.847 512.475C476.048 548.699 488.765 585.262 500.142 619.392C536.889 622.48 536.889 622.48 572.898 616.228C574.193 610.431 575.474 604.631 576.754 598.83C577.118 597.201 577.481 595.572 577.856 593.894C581.351 577.991 582.728 562.786 583.278 546.536C583.38 543.703 583.38 543.703 583.485 540.813C583.898 528.734 584.09 516.693 583.871 504.61C583.97 500.767 583.97 500.767 585.552 499.185Z" fill="#B95479"/>
<path d="M349.883 464.388C350.927 464.388 351.971 464.388 353.047 464.388C353.626 466.002 354.206 467.616 354.803 469.278C374.798 526.567 374.798 526.567 401.85 580.715C403.844 584.989 404.037 587.844 403.66 592.503C402.094 592.503 400.528 592.503 398.915 592.503C381.177 561.524 368.546 530.75 357.792 496.813C357.198 494.946 357.198 494.946 356.593 493.043C355.465 489.475 354.352 485.904 353.244 482.331C352.904 481.253 352.564 480.175 352.213 479.064C350.618 473.85 349.883 469.914 349.883 464.388Z" fill="#B95479"/>
<path d="M348.302 393.213C355.409 398.272 359.817 403.97 364.613 411.106C365.367 412.225 366.122 413.343 366.899 414.495C382.566 438.085 394.382 462.508 395.752 491.277C394.708 491.277 393.664 491.277 392.588 491.277C392.319 490.403 392.05 489.529 391.773 488.629C385.674 469.053 378.807 450.701 368.863 432.755C367.915 431.032 366.967 429.309 365.99 427.534C360.746 418.301 355.035 409.662 348.598 401.214C347.978 400.14 347.359 399.066 346.72 397.958C347.242 396.393 347.764 394.827 348.302 393.213Z" fill="#B95479"/>
<path d="M727.902 405.867C728.946 405.867 729.989 405.867 731.065 405.867C730.111 412.349 727.971 417.128 724.806 422.845C723.837 424.617 722.868 426.39 721.869 428.216C721.095 429.617 721.095 429.617 720.305 431.046C708.278 452.848 697.308 475.038 686.778 497.603C685.734 497.603 684.69 497.603 683.615 497.603C686.998 469.396 702.617 445.339 717.423 421.782C718.403 420.215 719.382 418.649 720.391 417.034C721.316 415.586 722.241 414.137 723.194 412.644C724.024 411.338 724.855 410.031 725.711 408.685C726.434 407.755 727.157 406.825 727.902 405.867Z" fill="#B95479"/>
<path d="M738.973 446.99C740.017 446.99 741.061 446.99 742.137 446.99C739.748 455.312 735.962 462.289 731.658 469.727C730.661 471.473 730.661 471.473 729.644 473.254C728.016 476.103 726.378 478.945 724.738 481.787C723.694 481.787 722.65 481.787 721.575 481.787C723.964 473.465 727.749 466.488 732.053 459.05C732.718 457.886 733.383 456.722 734.068 455.522C735.695 452.674 737.333 449.831 738.973 446.99Z" fill="#B95479"/>
<path d="M417.895 322.038C418.939 322.56 419.983 323.082 421.058 323.62C421.501 336.115 420.292 347.736 417.895 359.998C416.851 359.998 415.807 359.998 414.732 359.998C414.875 358.472 414.875 358.472 415.022 356.915C416.099 345.298 417.026 333.673 417.895 322.038Z" fill="#B95479"/>
<path d="M639.328 304.64C640.372 304.64 641.416 304.64 642.492 304.64C641.538 311.769 638.749 317.07 635.275 323.324C634.494 324.741 634.494 324.741 633.697 326.187C632.42 328.5 631.13 330.806 629.838 333.11C628.794 333.11 627.75 333.11 626.675 333.11C628.808 326.215 631.498 319.961 634.781 313.537C635.633 311.861 636.485 310.185 637.364 308.458C638.012 307.198 638.66 305.938 639.328 304.64Z" fill="#B95479"/>
<path d="M580.807 465.97C582.372 466.753 582.372 466.753 583.97 467.552C583.97 472.771 583.97 477.991 583.97 483.368C582.926 482.847 581.882 482.325 580.807 481.787C580.807 476.567 580.807 471.348 580.807 465.97Z" fill="#B95479"/>
<path d="M538.102 176.525C539.668 176.525 541.233 176.525 542.847 176.525C543.012 179.498 543.012 179.498 543.18 182.53C544.241 191.983 547.833 199.959 551.744 208.554C552.461 210.157 553.179 211.76 553.918 213.411C555.994 218.003 558.107 222.575 560.245 227.138C561.037 228.833 561.037 228.833 561.844 230.562C569.862 247.392 580.77 259.369 594.646 271.623C601.703 277.878 606.408 283.699 610.858 291.987C618.404 285.845 625.278 279.223 632.112 272.315C643.455 260.901 655.176 250.711 667.996 240.978C669.074 240.155 670.152 239.332 671.263 238.484C677.27 233.984 683.152 230.402 689.942 227.138C690.986 226.094 692.03 225.05 693.105 223.975C695.271 228.306 694.303 230.747 693.457 235.498C693.02 238.06 693.02 238.06 692.574 240.674C692.26 242.503 691.946 244.332 691.622 246.217C686.458 278.318 688.419 300.826 700.879 330.995C703.939 338.502 705.942 345.703 707.34 353.672C708.133 353.056 708.926 352.44 709.743 351.806C749.879 322.132 800.756 305.625 849.69 298.313C857.669 297.121 865.507 297.522 867.088 298.313C864.716 300.686 857.598 301.477 853.644 302.267C850.481 303.058 844.945 303.849 841.677 304.807C840.307 305.082 838.938 305.358 837.527 305.642C835.278 306.076 835.278 306.076 832.984 306.518C772.771 319.231 709.989 346.103 670.764 395.289C670.034 396.198 669.304 397.107 668.552 398.043C664.282 403.591 660.887 408.377 659.89 415.357C661.409 420.187 663.798 424.465 666.217 428.9C674.382 444.94 679.445 461.155 683.615 478.623C684.248 481.207 684.248 481.207 684.894 483.844C693.031 525.314 686.675 571.175 664.388 607.245C656.135 619.239 646.36 628.312 634.583 636.79C642.746 634.828 648.345 632.285 655.244 627.3C656.115 626.676 656.987 626.052 657.884 625.409C659.729 624.087 661.569 622.759 663.405 621.424C666.204 619.401 669.026 617.415 671.858 615.437C714.769 585.381 749.211 550.42 773.77 503.93C774.303 502.95 774.835 501.97 775.384 500.96C792.231 469.595 801.731 434.363 812.027 400.43C812.65 398.379 812.65 398.379 813.287 396.286C815.286 389.705 817.266 383.119 819.208 376.521C822.777 364.536 826.682 352.873 831.668 341.395C832.108 340.379 832.548 339.364 833.002 338.317C839.487 323.913 849.177 312.084 860.762 301.477C862.343 299.895 866.558 298.048 867.088 298.313C866.298 299.895 864.577 302.467 863.925 303.058C862.803 304.077 862.803 304.077 861.658 305.116C839.686 327.173 832.766 359.669 824.548 388.683C822.84 394.695 821.058 400.684 819.262 406.67C818.408 409.512 818.408 409.512 817.538 412.413C816.472 415.961 815.406 419.51 814.34 423.058C811.05 434.128 808.114 445.254 805.403 456.48C808.385 456.101 808.385 456.101 811.427 455.714C847.579 451.731 888.879 454.718 919.283 477.042C922.027 480.44 922.027 480.44 924.028 483.368C918.976 485.052 914.032 486.007 908.805 487.026C877.5 493.78 851.866 515.212 830.018 537.825C826.249 541.613 822.21 545.066 818.156 548.544C816.045 550.379 813.966 552.251 811.928 554.166C788.851 575.666 761.565 591.358 734.228 606.738C735.11 606.959 735.992 607.181 736.901 607.409C775.733 617.333 804.431 633.917 828.832 666.347C829.736 667.527 830.64 668.706 831.572 669.921C835.49 675.083 839.019 679.936 841.782 685.822C840.458 685.612 839.135 685.402 837.772 685.185C807.74 680.629 781.407 680.96 752.022 688.392C733.308 693.068 718.508 694.289 700.161 687.206C696.212 685.557 696.212 685.557 691.523 685.822C692.272 687.035 693.02 688.248 693.791 689.498C707.882 713.148 728.018 747.503 726.32 775.977C724.819 774.639 723.319 773.302 721.773 771.924C719.608 770.099 717.433 768.288 715.248 766.487C714.137 765.557 713.026 764.627 711.881 763.669C699.488 754.107 685.61 750.576 670.765 746.608C644.88 739.668 623.411 730.647 604.532 711.128C603.382 713.621 603.382 713.621 602.209 716.164C591.613 738.596 578.472 751.971 558.663 766.487C556.553 768.066 547.326 774.392 545.219 775.977C548.383 770.441 551.976 766.285 556.557 762.149C558.4 760.485 560.257 758.833 562.123 757.194C563.96 755.552 565.795 753.909 567.628 752.264C568.523 751.462 569.418 750.661 570.34 749.835C591.745 730.358 601.997 705.407 603.605 676.665C603.729 673.589 603.84 670.512 603.939 667.435C604 665.846 604.061 664.258 604.124 662.622C604.271 658.756 604.407 654.891 604.532 651.025C602.606 651.037 602.606 651.037 600.642 651.05C594.788 651.083 588.934 651.103 583.08 651.124C581.061 651.137 579.041 651.15 576.961 651.164C574.017 651.172 574.017 651.172 571.014 651.179C568.318 651.192 568.318 651.192 565.567 651.204C560.005 651.017 554.665 650.325 549.173 649.443C549.173 648.921 549.173 648.399 549.173 647.862C550.43 647.791 551.687 647.72 552.982 647.646C598.567 647.101 598.567 647.101 637.747 627.3C638.86 626.356 639.973 625.412 641.12 624.439C663.393 604.131 675.545 573.269 677.743 543.674C677.922 537.341 677.956 531.023 677.882 524.689C677.874 523.578 677.867 522.466 677.859 521.32C677.733 505.084 677.105 489.594 672.543 473.878C672.229 472.777 671.915 471.676 671.591 470.541C654.853 413.079 619.159 371.448 577.742 329.848C576.338 328.436 574.933 327.024 573.486 325.569C566.148 318.249 558.674 311.321 550.755 304.64C544.428 297.502 544.428 297.502 544.428 293.568C549.627 295.301 550.292 296.156 553.523 300.29C559.254 307.081 565.687 312.797 572.404 318.578C573.438 319.469 574.473 320.359 575.538 321.277C580.348 325.381 585.165 329.407 590.297 333.11C590.529 332.152 590.762 331.193 591.001 330.206C593.556 320.662 597.141 313.272 602.777 305.153C604.842 301.558 604.842 301.558 604.383 297.51C600.026 285.528 587.517 276.556 578.237 268.163C559.649 251.196 547.594 231.058 541.265 206.577C538.705 211.46 536.578 216.489 534.451 221.574C524.759 244.498 512.376 260.983 493.42 277.257C480.607 288.122 480.607 288.122 474.835 303.058C476.873 307.471 479.21 311.501 481.829 315.594C485.004 321.78 486.246 327.89 487.488 334.692C494.675 328.47 494.675 328.47 501.855 322.242C506.332 318.355 510.811 314.472 515.328 310.633C520.123 306.541 524.454 302.537 528.414 297.621C529.523 296.284 530.632 294.946 531.775 293.568C532.819 293.568 533.863 293.568 534.938 293.568C532.77 298.315 530.267 302.003 526.832 305.925C525.98 306.914 525.128 307.903 524.25 308.922C521.315 311.923 518.356 314.61 515.174 317.336C506.976 324.431 499.32 332.056 491.659 339.718C489.187 342.186 486.702 344.642 484.217 347.098C474.053 357.204 464.683 367.661 455.855 378.978C455.004 380.06 454.153 381.142 453.277 382.257C443.575 394.758 435.379 407.153 428.967 421.683C427.923 421.683 426.879 421.683 425.803 421.683C425.408 422.945 425.012 424.207 424.605 425.508C423.119 429.791 421.541 433.903 419.786 438.074C402.043 480.33 392.662 532.203 408.405 576.687C409.076 578.617 409.747 580.548 410.438 582.537C418.951 604.472 434.869 626.362 455.812 637.982C479.758 647.839 509.434 646.402 534.938 647.862C534.938 648.383 534.938 648.905 534.938 649.443C527.58 650.625 520.547 651.214 513.098 651.179C511.135 651.174 509.173 651.169 507.151 651.164C504.122 651.144 504.122 651.144 501.031 651.124C497.938 651.113 497.938 651.113 494.782 651.102C489.715 651.084 484.647 651.058 479.58 651.025C478.361 684.926 481.362 717.671 505.579 743.75C506.916 744.99 508.254 746.229 509.632 747.507C511.415 749.315 513.194 751.128 514.97 752.944C520.323 758.308 525.964 763.206 531.775 768.068C535.729 772.022 540.474 775.186 542.847 777.558C539.683 776.767 531.775 772.813 525.652 768.507C518.344 763.367 512.482 756.661 505.282 751.362C493.843 742.581 487.301 730.778 481.953 717.455C481.427 716.146 481.162 715.082 481.162 712.71C479.934 713.723 478.707 714.737 477.442 715.781C456.317 732.864 434.95 741.108 408.974 748.084C388.769 753.519 374.927 762.113 359.373 775.977C362.807 743.783 377.006 712.975 394.17 685.822C387.63 685.822 382.477 688.369 376.438 690.764C360.273 694.497 345.096 691.645 329.322 687.502C309.942 682.483 291.843 680.012 271.887 682.461C270.577 682.605 269.267 682.75 267.918 682.899C259.907 683.796 251.909 684.809 243.912 685.822C246.635 679.503 250.834 674.361 255.082 669.016C256.249 667.546 256.249 667.546 257.439 666.047C279.93 637.923 303.703 619.136 338.812 609.902C342.506 608.86 346.194 607.799 349.883 606.738C349.106 606.302 348.328 605.866 347.526 605.417C329.216 595.108 311.532 584.292 294.525 571.942C293.583 571.258 292.641 570.575 291.67 569.871C281.351 562.322 271.833 554.4 262.941 545.171C259.008 541.155 254.835 537.52 250.56 533.877C247.157 530.891 243.899 527.78 240.631 524.649C232.839 517.257 224.782 510.776 215.837 504.82C214.886 504.186 213.935 503.552 212.955 502.899C196.832 492.46 180.877 486.499 161.665 484.95C161.665 483.384 161.665 481.818 161.665 480.205C167.222 474.92 173.543 471.536 180.447 468.342C181.473 467.866 182.498 467.39 183.555 466.899C203.648 457.903 224.269 454.616 246.185 454.701C248.554 454.691 248.554 454.691 250.971 454.682C259.839 454.694 268.355 455.163 277.127 456.48C276.843 455.622 276.559 454.763 276.266 453.879C270.468 436.258 264.902 418.597 259.796 400.763C259.392 399.355 258.987 397.947 258.57 396.496C256.549 389.461 254.548 382.422 252.575 375.374C245.055 348.879 235.678 322.326 217.023 301.477C237.145 310.706 247.045 334.369 254.427 353.945C260.254 370.188 265.061 386.77 270.009 403.296C291.601 475.474 291.601 475.474 329.322 540.308C330.37 541.715 331.418 543.122 332.497 544.571C355.559 574.355 383.444 599.047 414.942 619.558C420.772 623.411 426.409 627.509 432.037 631.649C435.334 634.037 435.334 634.037 440.038 633.627C438.745 632.587 438.745 632.587 437.425 631.526C411.529 609.746 395.899 577.527 392.818 543.824C391.246 519.732 391.474 495.787 397.333 472.297C397.588 471.225 397.843 470.153 398.105 469.049C401.869 453.563 407.501 439.604 414.955 425.508C417.763 420.021 419.485 416.455 419.44 410.21C417.712 405.353 415.685 402.286 412.359 398.354C411.209 396.992 410.059 395.63 408.875 394.226C407.076 392.159 407.076 392.159 405.242 390.05C404.141 388.737 403.04 387.424 401.905 386.071C387.468 369.316 370.632 356.64 351.465 345.763C350.519 345.211 349.573 344.66 348.598 344.091C316.76 325.627 281.981 314.566 246.436 305.684C241.342 304.389 236.3 302.96 231.258 301.477C227.463 300.36 219.396 298.313 213.86 298.313C223.35 297.522 226.988 297.779 231.258 298.313C281.872 304.64 328.057 323.554 370.445 350.508C370.924 349.016 371.403 347.523 371.897 345.986C375.62 334.531 379.58 323.369 384.501 312.357C395.275 284.495 387.826 253.997 383.098 225.557C384.664 224.774 384.664 224.774 386.262 223.975C386.902 224.676 387.542 225.378 388.202 226.1C391.262 228.958 394.253 230.672 397.927 232.674C421.5 246.565 441.923 268.168 460.946 287.646C465.098 291.946 465.098 291.946 470.09 295.15C470.351 293.878 470.612 292.605 470.881 291.295C475.816 279.574 485.777 271.361 495.305 263.264C504.924 254.663 511.747 245.025 517.54 233.564C518.206 232.268 518.871 230.973 519.557 229.638C523.948 220.955 528.07 212.171 531.874 203.216C532.328 202.17 532.781 201.124 533.249 200.046C536.409 192.29 537.533 184.86 538.102 176.525ZM391.007 233.465C391.445 235.145 391.883 236.825 392.335 238.556C392.914 240.813 393.493 243.07 394.071 245.327C394.36 246.428 394.648 247.529 394.945 248.664C402.795 279.493 397.701 304.374 384.581 332.64C377.966 345.125 377.966 345.125 378.353 358.417C381.45 361.74 381.45 361.74 385.372 364.941C398.458 376.382 409.979 387.239 418.884 402.308C420.956 406.011 420.956 406.011 424.222 409.03C425.276 407.442 426.33 405.853 427.416 404.217C464.075 349.562 464.075 349.562 484.325 339.437C481.845 309.183 439.536 278.672 419.477 258.772C415.323 254.636 411.192 250.483 407.101 246.285C405.592 244.747 404.082 243.208 402.573 241.67C401.805 240.876 401.037 240.082 400.246 239.263C399.131 238.109 397.388 236.683 396.543 235.837C395.697 234.992 392.082 233.465 391.007 233.465ZM679.778 236.993C678.248 238.544 676.727 240.103 675.212 241.67C674.463 242.433 673.714 243.197 672.942 243.984C671.511 245.442 670.084 246.903 668.661 248.368C662.867 254.281 656.973 260.093 651.066 265.892C647.255 269.639 643.457 273.399 639.659 277.16C637.678 279.118 635.692 281.071 633.702 283.02C609.556 306.017 609.556 306.017 593.46 334.692C595.186 339.87 596.195 340.758 600.281 344.083C622.884 363.37 640.169 385.052 655.145 410.612C659.156 406.976 661.429 403.267 664.042 398.551C672.229 385.331 683.873 375.021 695.019 364.311C697.574 361.847 700.094 359.353 702.595 356.835C698.814 346.658 694.898 336.622 690.409 326.739C676.1 295.112 676.92 266.299 686.778 233.465C683.615 234.256 681.062 235.692 679.778 236.993ZM167.992 480.205C167.992 480.727 167.992 481.249 167.992 481.787C169.749 482.152 171.507 482.516 173.317 482.892C204.116 489.529 225.827 504.733 248.657 526.073C250.659 527.829 252.669 529.575 254.687 531.312C258.447 534.564 262.079 537.883 265.666 541.328C295.101 569.586 330.424 591.104 367.282 608.32C368.572 608.926 369.862 609.532 371.191 610.156C375.35 612.1 379.518 614.02 383.692 615.932C384.97 616.522 386.248 617.113 387.565 617.721C396.429 621.715 405.361 624.72 414.732 627.3C410.687 623.111 406.503 620.161 401.584 617.019C348.472 581.953 304.889 531.856 284.656 470.842C283.428 467.386 282.259 464.319 280.29 461.225C275.956 459.278 275.956 459.278 270.8 459.643C268.769 459.556 266.739 459.468 264.646 459.378C229.616 459.007 199.514 464.488 167.992 480.205ZM800.658 461.225C799.264 463.974 799.264 463.974 798.082 467.354C797.595 468.638 797.107 469.923 796.605 471.246C796.083 472.637 795.561 474.027 795.024 475.46C769.864 540.261 722.895 592.461 663.053 627.3C668.911 629.252 670.395 628.28 676.022 626.021C677.661 625.367 679.301 624.714 680.99 624.04C682.737 623.322 684.484 622.603 686.284 621.863C688.072 621.136 689.86 620.41 691.702 619.661C704.708 614.308 717.368 608.535 729.781 601.928C732.712 600.377 735.663 598.872 738.621 597.372C771.986 580.279 801.53 557.445 828.489 531.558C841.128 519.464 854.181 508.989 868.67 499.185C869.765 498.373 870.86 497.562 871.988 496.726C884.326 487.995 901.385 483.898 916.12 481.787C913.222 475.99 905.802 474.69 900.007 472.395C897.854 471.542 897.854 471.542 895.657 470.671C884.138 466.224 873.017 463.006 860.762 461.225C859.363 461.021 857.964 460.817 856.523 460.607C845.003 459.338 833.389 459.489 821.813 459.446C819.249 459.434 819.249 459.434 816.633 459.423C815.028 459.426 813.422 459.43 811.767 459.433C810.314 459.435 808.861 459.437 807.364 459.439C803.762 459.413 803.762 459.413 800.658 461.225ZM703.089 619.49C671.853 633.399 639.83 643.632 606.113 649.443C606.122 650.719 606.13 651.994 606.138 653.308C606.172 659.137 606.192 664.966 606.212 670.796C606.225 672.802 606.239 674.808 606.252 676.875C606.296 693.61 606.296 693.61 605.038 701.138C604.065 706.217 604.065 706.217 606.243 709.652C607.146 710.432 608.05 711.213 608.98 712.018C610.016 712.915 611.052 713.812 612.119 714.736C613.269 715.633 614.419 716.531 615.603 717.455C616.753 718.385 617.903 719.314 619.088 720.272C636.906 733.724 657.296 739.482 678.639 744.8C694.835 749.011 708.278 756.44 721.575 766.487C713.684 738.335 702.607 710.471 686.778 685.822C686.004 684.517 685.229 683.212 684.431 681.867C671.927 664.121 640.135 659.623 620.348 654.188C644.522 654.53 662.441 661.074 683.176 673.286C707.783 687.744 727.699 691.541 755.565 684.451C781.645 677.876 807.242 677.991 833.873 681.077C822.161 653.723 785.137 630.377 758.893 619.738C739.186 613.055 722.3 610.57 703.089 619.49ZM267.933 661.207C266.736 662.399 266.736 662.399 265.515 663.615C263.234 665.896 260.969 668.191 258.709 670.493C257.382 671.844 256.055 673.194 254.688 674.586C252.973 676.332 251.82 677.913 250.238 681.867C252.611 681.077 253.672 680.862 254.627 680.751C282.085 677.764 307.557 678.707 334.326 685.519C360.717 692.232 380.51 685.987 403.66 673.168C406.34 671.538 409.01 669.892 411.667 668.226C429.146 657.625 445.3 654.471 465.345 654.188C464.351 654.474 463.356 654.76 462.332 655.054C426.234 663.386 426.234 663.386 398.915 685.822C397.889 687.416 396.864 689.01 395.807 690.653C381.818 713.459 369.735 740.295 364.118 766.487C364.793 765.912 365.468 765.337 366.163 764.744C380.722 753.037 396.613 747.47 414.435 742.86C439.579 736.311 459.365 728.18 477.998 709.547C478.03 706.454 478.03 706.454 477.411 702.886C476.096 692.12 476.245 681.43 476.318 670.598C476.325 668.557 476.332 666.516 476.339 664.413C476.358 659.423 476.384 654.433 476.417 649.443C475.489 649.262 474.561 649.08 473.604 648.893C440.524 642.319 410.251 632.496 379.467 618.69C377.813 617.961 376.159 617.232 374.455 616.482C372.262 615.494 372.262 615.494 370.025 614.486C333.462 602.471 291.135 638.076 267.933 661.207Z" fill="#63243C"/>
<path d="M779.657 800.165C777.889 798.397 773.929 802.074 776.475 804.054C778.353 805.515 780.364 800.872 782.839 803.347C784.607 805.115 780.718 809.004 778.95 807.236M779.657 796.629L786.021 802.993C784.489 801.461 781.778 798.751 783.546 796.983C785.172 795.357 787.789 798.397 789.203 799.811M787.435 794.508C786.908 792.926 789.094 790.51 790.617 792.033M793.799 795.215C793.381 794.797 792.984 794.4 792.614 794.03M790.617 792.033C790.74 792.156 790.875 792.291 791.022 792.438M790.617 792.033L791.022 792.438M791.022 792.438C790.887 793.01 790.263 793.801 789.556 795.215C788.911 796.507 790.617 797.69 791.678 796.629C793.092 795.215 792.891 794.307 792.614 794.03M791.022 792.438C791.459 792.875 791.999 793.415 792.614 794.03M791.324 788.498L792.738 789.912M795.92 793.094L792.738 789.912M792.738 789.912C791.678 788.851 793.904 785.421 795.567 787.083C797.829 789.346 798.631 790.147 798.749 790.265M802.991 783.901C803.345 784.962 802.082 787.408 799.809 787.083C798.984 786.965 798.395 786.376 798.042 786.023M798.042 786.023C796.981 784.962 797.219 783.497 797.688 782.841C798.277 782.016 799.88 780.79 801.577 782.487L798.042 786.023ZM808.295 780.719L802.284 774.709L810.27 778.037L810.582 777.725L807.588 769.406L813.598 775.416M815.719 773.295L811.123 768.699M810.416 767.991L809.355 766.931M813.244 766.577L814.659 767.991M814.659 767.991L817.841 771.173M814.659 767.991C813.598 766.931 815.825 763.501 817.487 765.163L820.669 768.345M825.972 763.042L824.381 761.451M819.962 757.031L822.79 759.86M822.79 759.86C820.669 759.153 818.901 760.92 819.255 762.688C819.551 764.17 821.73 765.87 823.144 765.163C823.969 764.809 825.371 763.572 824.381 761.451M822.79 759.86L824.381 761.451M823.497 756.324L824.912 757.738M828.094 760.92L824.912 757.738M824.912 757.738C824.676 757.267 824.487 756.041 825.619 754.91M833.043 753.849C833.397 754.91 832.134 757.356 829.861 757.031C829.036 756.913 828.447 756.324 828.094 755.971M828.094 755.971C827.033 754.91 827.271 753.445 827.74 752.789C828.329 751.964 829.932 750.738 831.629 752.435L828.094 755.971ZM832.336 749.607C831.809 748.025 833.995 745.609 835.518 747.132L835.923 747.537M835.923 747.537C835.788 748.109 835.165 748.9 834.458 750.314C833.812 751.605 835.518 752.789 836.579 751.728C837.993 750.314 837.792 749.406 837.515 749.129M835.923 747.537L837.515 749.129M837.515 749.129L838.7 750.314M839.054 740.768L842.236 743.95M843.65 745.364L842.236 743.95M836.225 743.596L839.407 746.778C839.761 747.132 840.68 747.627 841.529 746.778C842.589 745.718 842.589 745.01 842.236 743.95" stroke="#111D68"/>
</svg>
