<svg width="1920" height="960" viewBox="0 0 1920 960" fill="none" xmlns="http://www.w3.org/2000/svg">
<mask id="mask0_200_2" style="mask-type:alpha" maskUnits="userSpaceOnUse" x="0" y="0" width="1920" height="960">
<rect width="1920" height="960" fill="#020A3D"/>
</mask>
<g mask="url(#mask0_200_2)">
<rect width="1920" height="960" fill="#020A3D"/>
<path d="M1752 997C1790.17 982 1865.5 962.5 1872 894C1880.63 803 1959.83 854.667 2001 864L1957 109C1916 92.5 1771.5 175.9 1801.5 217.5C1831.5 259.1 1939.67 203.167 1988 171L2052.5 252C2024.33 230 1971.61 330.011 1885 302.5C1800 275.5 1827.5 454 1948.5 354L2078.5 313.5C2131.17 328.333 2177.33 363.356 1957 437.5C1747.5 508 1770.5 460.5 1780 432C1789.5 403.5 1790 378.5 1761.5 354C1733 329.5 1689.79 367.153 1684.5 398.5C1676.9 443.54 1716.06 485.658 1670.5 500C1643.5 508.5 1596.5 398.5 1566.5 483C1543.83 546.853 1485.17 542.5 1457 491.5C1442.09 464.5 1419.93 454.255 1378.5 483C1354 500 1308 483 1326.5 419C1338.17 374.833 1380.6 303.2 1457 370C1533.4 436.8 1613.17 364.5 1643.5 320C1676.5 265.5 1767.5 286.5 1727 232.5C1637.5 72.9999 1803.77 135.08 1827.5 70C1860.5 -20.5 1767.17 -64.3332 1704.5 -63.4999C1732 -19.6665 1750.4 66.4001 1604 60C1457.6 53.5999 1523.67 -25 1575 -63.4999L1007 -36.5C1007 -6 937.5 92.8209 1014.5 105.5C1091.5 118.179 1140.75 82.4359 1104 24C1032 -90.5001 1082 -259.5 1176.5 -13.5C1252.1 183.3 1348.5 18.5 1354 -63.4999L1443 -20.5C1404.17 41.5 1361.1 158.9 1499.5 132.5C1637.9 106.1 1619.17 188.167 1592.5 232.5C1564.83 277.833 1489.5 345.2 1409.5 252C1329.5 158.8 1308.5 222.167 1308 265.5C1303.5 342 1257.9 476 1111.5 400C965.1 324 874.5 408.333 859 455C842 518.5 832 548.5 749 541.5C700 530.5 660.6 525.4 681 593C701.4 660.6 763.833 647.833 792.5 633C846 609 889 699.5 962 699.5C1008.67 699.5 1085 686.2 1017 633C834.6 489 947.667 454.333 1027 455C1068.5 455.349 1117.5 490.4 1121.5 558C1125.5 625.6 1205.5 569.5 1245 533C1264 515.443 1316.5 528.5 1398 593C1479.5 657.5 1509.5 760.775 1509.5 851C1509.5 961 1594 891 1656 803C1718 715 1591 682.5 1557.5 651.5C1494.7 594.3 1583.67 565.333 1636 558C1670.83 557.333 1735.9 567.7 1717.5 614.5C1694.5 673 1792 722.5 1847 682.5C1891 650.5 1865.33 623.833 1847 614.5C1797.17 599.5 1727.4 562.2 1847 533C1966.6 503.8 2032.17 716.5 2045 813C1879.8 623 1687.83 905.5 1612.5 1070.5C1413.33 1107.67 1022 1141.4 1050 979C1078 816.6 1145 938 1175 1019C1218.17 1038.5 1295.2 1065.8 1258 1019C1211.5 960.5 1178.5 809.5 1245 803C1311.5 796.5 1338 838 1326.5 972.5C1317.3 1080.1 1400.33 1057.33 1443 1032.5C1450.67 974.833 1445.1 827.5 1361.5 699.5C1277.9 571.5 1219 646.167 1200 699.5C1192.17 734 1150.2 796.6 1045 771C913.5 739 1042 1065.5 918.5 1032.5C795 999.5 947 773 812.5 739.5C678 706 617.167 853.369 701 831.5C724 825.5 802.459 835.5 779.5 898C765.541 936 719.1 956.2 599.5 891C479.9 825.8 477.333 918.166 491 972.5C515.5 1000.17 540.9 1050.9 446.5 1032.5C328.5 1009.5 310 766 461 784.5C612 803 666 699.5 579.5 633C409.1 497 466.167 427.667 516 410C660.5 350 692.5 546.5 792.5 410C840.679 344.235 932 265.5 1088.5 313.5C1245 361.5 1258 87.5 1067 184.5C914.2 262.1 892.333 190.833 900.5 145.5C908.833 106.833 905.5 10.9 825.5 -63.4999C677.5 -209.5 699.5 -124.333 729 -63.4999C789.5 48.8335 859.5 279.1 655.5 301.5C400.5 329.5 857.5 29.5 621 68.0001C431.8 98.8002 390.833 55.1667 394 29.5C383.5 -57 347.8 -188.3 289 -21.5C215.5 187 652 85.5 471.5 232.5C291 379.5 295.5 165.5 236 135.5C188.4 111.5 166.639 155.5 178.5 184.5C247.7 353.7 70.6667 351.333 -26.5 329L-80.5 216C-16.5 238.667 104.7 260.9 77.5 168.5C50.3 76.1 -47.1667 87 -92.5 104L-49 -29C-12 2.83333 74.6 64.6 125 57C188 47.5 208 34 154 -54C110.8 -124.4 -52 -66.6667 -128 -29L-107 469C-49.8333 493.5 69.5 526.3 89.5 461.5C110.951 392 147.951 401.575 178.5 416.5C244 448.5 245.092 362.298 291.5 346.5C315 338.5 442.961 321.718 394 455C367 528.5 323.5 510.628 305.5 486.5C282 455 232 462.5 232 514C232 613.684 305.833 600.333 369.5 593C388.833 590.333 434.9 586.1 452.5 618.5C472.599 655.5 548.3 651.189 543 693C537.93 733 467.454 724.991 438.5 719C409.5 713 385.5 741.594 350 695C326 663.5 279.5 657.215 244 659.5C163.2 664.7 150.333 604 154 573C163.5 538 123.5 518.5 41.5 608C-43.9422 701.257 69.5 718.5 118.5 718.5C197 719.333 336.2 749.8 265 865C193.8 980.2 286 1044 341 1061.5L96 1043C63 975 21.5349 852.944 32 824.5C51.5 771.5 161.5 769.5 147 865C135.4 941.4 167.5 1008.5 185 1032.5" stroke="#202F92" stroke-opacity="0.5" stroke-width="43"/>
<path d="M-151.91 729.657C-226.379 732.461 -174.72 903.041 -139.581 987.981L1214.79 1003C1212.74 978.302 1209.86 906.279 1214.79 815.765C1219.73 725.252 1135.06 713.637 1092.12 719.144C708.47 721.48 -77.4413 726.854 -151.91 729.657Z" fill="#111D68"/>
<path d="M1611.5 561.5C1611.5 559 1606.1 558.8 1606.5 562C1606.79 564.361 1611.5 562.5 1611.5 566C1611.5 568.5 1606 568.5 1606 566M1614 559V568C1614 565.833 1614 562 1616.5 562C1618.8 562 1618.5 566 1618.5 568M1621 563C1621.75 561.509 1625 561.346 1625 563.5M1625 568C1625 567.408 1625 566.847 1625 566.324M1625 563.5C1625 563.673 1625 563.865 1625 564.072M1625 563.5V564.072M1625 564.072C1624.5 564.382 1623.5 564.5 1622 565C1620.63 565.457 1621 567.5 1622.5 567.5C1624.5 567.5 1625 566.716 1625 566.324M1625 564.072C1625 564.691 1625 565.454 1625 566.324M1628 561.5V563.5M1628 568V563.5M1628 563.5C1628 562 1632 561.149 1632 563.5C1632 566.7 1632 567.833 1632 568M1639.5 566.5C1639 567.5 1636.38 568.336 1635 566.5C1634.5 565.833 1634.5 565 1634.5 564.5M1634.5 564.5C1634.5 563 1635.7 562.133 1636.5 562C1637.5 561.833 1639.5 562.1 1639.5 564.5H1634.5ZM1645.5 568V559.5L1648.79 567.5H1649.24L1653 559.5V568M1656 568V561.5M1656 560.5V559M1659 561.5V563.5M1659 563.5V568M1659 563.5C1659 562 1663 561.149 1663 563.5V568M1670.5 568V565.75M1670.5 559.5V563.5M1670.5 563.5C1669.5 561.5 1667 561.5 1666 563C1665.16 564.257 1665.5 567 1667 567.5C1667.83 567.833 1669.7 567.95 1670.5 565.75M1670.5 563.5V565.75M1673.5 561.5V563.5M1673.5 568V563.5M1673.5 563.5C1673.67 563 1674.4 562 1676 562M1682 566.5C1681.5 567.5 1678.88 568.336 1677.5 566.5C1677 565.833 1677 565 1677 564.5M1677 564.5C1677 563 1678.2 562.133 1679 562C1680 561.833 1682 562.1 1682 564.5H1677ZM1684.5 563C1685.25 561.509 1688.5 561.346 1688.5 563.5V564.072M1688.5 564.072C1688 564.382 1687 564.5 1685.5 565C1684.13 565.457 1684.5 567.5 1686 567.5C1688 567.5 1688.5 566.716 1688.5 566.324M1688.5 564.072V566.324M1688.5 566.324V568M1695.5 561.5V566M1695.5 568V566M1691.5 561.5V566C1691.5 566.5 1691.8 567.5 1693 567.5C1694.5 567.5 1695 567 1695.5 566" stroke="#111D68"/>
<mask id="mask1_200_2" style="mask-type:alpha" maskUnits="userSpaceOnUse" x="366" y="528" width="485" height="287">
<path d="M653.5 583C622.3 569 610.833 540.833 609 528.5L556.5 728.5L515.5 737.5C491.9 735.1 439.333 703.167 416 687.5C411 684.143 403.8 679.8 393 693C371.4 719.4 366 752 366 765C406.333 774 498.1 795.1 542.5 807.5C598 823 729 807.5 750.5 803C772 798.5 831 772.5 848 731C861.6 697.8 818.333 661.833 795 648C760.833 632.167 684.7 597 653.5 583Z" fill="#EA9C4A"/>
</mask>
<g mask="url(#mask1_200_2)">
<path d="M653.5 583C622.3 569 610.833 540.833 609 528.5L556.5 728.5L515.5 737.5C491.9 735.1 439.333 703.167 416 687.5C411 684.143 403.8 679.8 393 693C371.4 719.4 366 752 366 765C406.333 774 498.1 795.1 542.5 807.5C598 823 729 807.5 750.5 803C772 798.5 831 772.5 848 731C861.6 697.8 818.333 661.833 795 648C760.833 632.167 684.7 597 653.5 583Z" fill="#EA9C4A"/>
<path d="M593.5 583C614.7 619.4 781.667 691.5 862.5 723L886 662L616.5 522.5C600 527.5 572.3 546.6 593.5 583Z" fill="#C07826"/>
<path d="M561 775C624.6 803.4 789.833 754.5 864.5 726.5L877.5 815L537.5 835L561 775Z" fill="#D1832A"/>
</g>
<mask id="mask2_200_2" style="mask-type:alpha" maskUnits="userSpaceOnUse" x="26" y="286" width="891" height="422">
<path d="M73.4999 584.5C-3.30011 598.5 21.5 700.5 95.4999 686.5C123.667 678.667 186.1 660 210.5 648C241 633 283 595 301.5 575.5C320 556 351.5 523.5 361 507.5C370.5 491.5 378.5 446 382.5 417.5C386.5 389 402 365 408.5 360.5C413.7 356.9 426 357.333 431.5 358L547.5 360.5C566.5 362.333 602 372.2 592 397C582 421.8 604.833 497.667 617.5 532.5C619.833 533.333 625.9 537 631.5 545C643.5 562.5 664.5 577.5 681 589.5C697.5 601.5 700.5 618 718 631C735.5 644 785.5 667.5 800.5 672C815.5 676.5 851.5 705.5 868.5 707C885.5 708.5 915.5 697.5 916.5 655.5C917.5 613.5 866.5 596 858 599C849.5 602 845 603.5 827.5 592C810 580.5 752.5 542 742.5 537C732.5 532 719.5 520.5 712.5 505C705.5 489.5 673 439.5 660.5 417.5C648 395.5 593 345.5 581 331C571.4 319.4 567.333 296.5 566.5 286.5H402C400.167 290.833 396.3 302.8 395.5 316C394.7 329.2 390.5 336.5 388.5 338.5C372.667 352.333 335.5 385.4 313.5 407C286 434 269.5 463 264.5 481.5C260.5 496.3 243.833 511 236 516.5C213.833 533.333 150.3 570.5 73.4999 584.5Z" fill="#E29543"/>
</mask>
<g mask="url(#mask2_200_2)">
<path d="M73.4999 584.5C-3.30011 598.5 21.5 700.5 95.4999 686.5C123.667 678.667 186.1 660 210.5 648C241 633 283 595 301.5 575.5C320 556 351.5 523.5 361 507.5C370.5 491.5 378.5 446 382.5 417.5C386.5 389 402 365 408.5 360.5C413.7 356.9 426 357.333 431.5 358L547.5 360.5C566.5 362.333 602 372.2 592 397C582 421.8 604.833 497.667 617.5 532.5C619.833 533.333 625.9 537 631.5 545C643.5 562.5 664.5 577.5 681 589.5C697.5 601.5 700.5 618 718 631C735.5 644 785.5 667.5 800.5 672C815.5 676.5 851.5 705.5 868.5 707C885.5 708.5 915.5 697.5 916.5 655.5C917.5 613.5 866.5 596 858 599C849.5 602 845 603.5 827.5 592C810 580.5 752.5 542 742.5 537C732.5 532 719.5 520.5 712.5 505C705.5 489.5 673 439.5 660.5 417.5C648 395.5 593 345.5 581 331C571.4 319.4 567.333 296.5 566.5 286.5H402C400.167 290.833 396.3 302.8 395.5 316C394.7 329.2 390.5 336.5 388.5 338.5C372.667 352.333 335.5 385.4 313.5 407C286 434 269.5 463 264.5 481.5C260.5 496.3 243.833 511 236 516.5C213.833 533.333 150.3 570.5 73.4999 584.5Z" fill="#E29543"/>
<path d="M374.5 452C265.7 605.6 103.833 664.667 36.5 675L47 705.5H184.5L397 533.5L374.5 452Z" fill="#C07826"/>
<path d="M706.5 585C751.3 637.8 874.167 682 930 697.5L911 742.5L723 666L584.5 548.5V467C588.5 490.5 650.5 519 706.5 585Z" fill="#D1832A"/>
</g>
<path d="M360 507C356.8 505 362.333 476.5 365.5 462.5L371.5 412L410.5 342L511 335L595 370.5L606 453.5L621.5 531.5C619.833 530.833 616.4 533.1 616 547.5C615.5 565.5 630 595 634.5 605C639 615 640.5 648.5 618 686.5C595.5 724.5 506.5 745 475.5 745C444.5 745 390 712 351 681.5C319.8 657.1 332 609 342 588C358.4 570.4 360 541.5 362.5 518.5C363.102 512.957 363.2 509 360 507Z" fill="#E29543"/>
<path d="M366 765C406.333 774 498.1 795.1 542.5 807.5L556.5 728.5L515.5 737.5C491.9 735.1 439.333 703.166 416 687.5C411 684.143 403.8 679.8 393 693C371.4 719.4 366 752 366 765Z" fill="#EA9C4A"/>
<mask id="mask3_200_2" style="mask-type:alpha" maskUnits="userSpaceOnUse" x="100" y="555" width="489" height="285">
<path d="M306.5 589.5C344.1 578.7 354.667 561.667 357.5 555C349.5 604 330 656.5 378.5 699.641C417.874 736.264 475.596 753.683 495.5 740.5C527 722.5 553.6 707.7 564 706.5C574.4 705.3 578.333 710.667 579 713.5C593.391 758.273 587.035 790.961 584.505 803.977L584.5 804C581 822 548.5 823.899 526.5 827C452 837.5 322.5 849.5 234 827C172.321 811.319 114.5 756 104.5 738C94.5001 720 107 700.5 119 681C128.6 665.4 159.667 643.167 174 634C202.5 623.667 268.9 600.3 306.5 589.5Z" fill="#E29543"/>
</mask>
<g mask="url(#mask3_200_2)">
<path d="M306.5 589.5C344.1 578.7 354.667 561.667 357.5 555C349.5 604 330 656.5 378.5 699.641C417.874 736.264 475.596 753.683 495.5 740.5C527 722.5 553.6 707.7 564 706.5C574.4 705.3 578.333 710.667 579 713.5C593.391 758.273 587.035 790.961 584.505 803.977L584.5 804C581 822 548.5 823.899 526.5 827C452 837.5 322.5 849.5 234 827C172.321 811.319 114.5 756 104.5 738C94.5001 720 107 700.5 119 681C128.6 665.4 159.667 643.167 174 634C202.5 623.667 268.9 600.3 306.5 589.5Z" fill="#E29543"/>
<path d="M94.5 715.5C279.7 869.9 509.667 818.167 601.5 773L613.5 830.5L287 892L94.5 757V715.5Z" fill="#D1832A"/>
<path d="M104 688.5C154.4 701.3 306.333 626.5 376 587.5L386.5 536L188 587.5L104 688.5Z" fill="#D1832A"/>
<path d="M491 761C502.2 753.8 568.333 729.667 600 718.5L573 695.5L401.5 711.5C337.5 699.333 216 681.4 242 707C274.5 739 477 770 491 761Z" fill="#D1832A"/>
</g>
<path d="M412 424C416.278 410 417 379 414 363V352.5C417.833 348.167 428.8 351.3 442 356.5C455.2 361.7 455.167 385.333 453.5 396.5C451.167 402 444.7 416.8 437.5 432C428.5 451 422 453 417 451C412 449 406.5 442 412 424Z" fill="#F1B26F"/>
<path d="M582 404C582.4 392.8 580.833 370 580 360C575.2 349.2 553.333 349.5 543 351C541.667 359.667 539.1 379.1 539.5 387.5C540 398 553.5 424.5 559 432C564.5 439.5 568.5 450.5 578.5 447.5C586.5 445.1 585.833 436.167 584.5 432C583.5 427.333 581.6 415.2 582 404Z" fill="#F1B26F"/>
<path d="M335.5 379.5C354.3 385.9 403.333 364.167 425.5 352.5C420.5 283.667 409.2 144.3 404 137.5C397.5 129 334.5 102 328.5 101C322.5 99.9999 323 105 317.5 105C294.5 106.5 298 138.5 300 143.5C302 148.5 302.5 168.5 302.5 177.5C302.5 186.5 305.5 184.5 316.5 207C327.5 229.5 315.5 275.5 318 280.5C320.5 285.5 318.5 296 321.5 304.5C324.5 313 333 337 335.5 343C338 349 338 358 330.5 360.5C323 363 312 371.5 335.5 379.5Z" fill="#EA9C4A"/>
<path d="M653 388C627.8 394.4 582.167 366 562.5 351C567.667 325.167 581.4 259.8 595 205C608.6 150.2 655.667 130.167 677.5 127L681 134C680.667 140.167 680.9 154 684.5 160C689 167.5 689 207.5 684.5 220C680 232.5 673 255.5 675 276C677 296.5 667 317.5 660 343.5C653 369.5 684.5 380 653 388Z" fill="#EA9C4A"/>
<mask id="mask4_200_2" style="mask-type:alpha" maskUnits="userSpaceOnUse" x="372" y="92" width="309" height="553">
<path d="M376 203C376 185.4 388 151.333 394 136.5C404 111.5 425.5 95.9999 444 93.4999C462.5 90.9999 469 96.4999 482 94.9999C504 92.4999 513.5 94.4999 539 97.4999C559.4 99.8999 583.167 122.833 592.5 134C626 110.5 653.5 113 666 115C676 116.6 680.167 128.333 681 134C659.5 119 613.087 188 614.5 198.5C618 224.5 611.5 259 606.5 270C601.5 281 602.5 294 602 302C601.5 310 582.5 330 579 334C575.5 338 585 354.5 587 358.5C589 362.5 588 368.5 583.5 368.5C579 368.5 582.5 367 579 362.5C575.5 358 546 348 544 364.5C542 381.7 546.5 405.333 549 415C549.4 419.8 547.5 423.667 546.5 425C546.9 431.4 545 437 544 439C545.949 444.457 542.675 450.991 540.655 453.789C540.941 453.658 541.539 454.295 542.5 457.5C544 462.5 539.5 469 539.5 471.5C539.5 474 541.5 474 541 479C540.5 484 538 486.5 539 489.5C540 492.5 536 504.5 536.5 511.5C537 518.5 534 520 535 523.5C536.2 528.7 534.833 535.333 534 538C536.4 542 534.667 547.333 533.5 549.5C535.5 553.5 533.667 557.5 532.5 559C536.9 563 534.667 570.333 533 573.5C537.4 577.9 535.5 583.667 534 586C535.2 587.2 534.833 590.833 534.5 592.5C536.1 595.3 534.167 597.667 533 598.5C532.5 599.5 535.5 600 535 610C534.5 620 526.5 632 523 636C519.5 640 514.5 643 510 642.5C506.4 642.1 494.167 643.333 488.5 644C482 645 476.933 644 472.5 637C463 622 460.5 601.5 459 588.5C457.8 578.1 460.5 566.5 462 562C464 497.2 451.5 437 445 415L452.5 397.5C453 385.167 450 360.3 434 359.5C418 358.7 415.333 365.167 416 368.5C417 371.5 418 377.2 414 376C410 374.8 410 369.5 410.5 367C411.833 360.5 412.8 344.9 406 334.5C384 304 382 280 375 258C368 236 376 225 376 203Z" fill="#E29543"/>
</mask>
<g mask="url(#mask4_200_2)">
<path d="M376 203C376 185.4 388 151.333 394 136.5C404 111.5 425.5 95.9999 444 93.4999C462.5 90.9999 469 96.4999 482 94.9999C504 92.4999 513.5 94.4999 539 97.4999C559.4 99.8999 583.167 122.833 592.5 134C626 110.5 653.5 113 666 115C676 116.6 680.167 128.333 681 134C659.5 119 613.087 188 614.5 198.5C618 224.5 611.5 259 606.5 270C601.5 281 602.5 294 602 302C601.5 310 582.5 330 579 334C575.5 338 585 354.5 587 358.5C589 362.5 588 368.5 583.5 368.5C579 368.5 582.5 367 579 362.5C575.5 358 546 348 544 364.5C542 381.7 546.5 405.333 549 415C549.4 419.8 547.5 423.667 546.5 425C546.9 431.4 545 437 544 439C545.949 444.457 542.675 450.991 540.655 453.789C540.941 453.658 541.539 454.295 542.5 457.5C544 462.5 539.5 469 539.5 471.5C539.5 474 541.5 474 541 479C540.5 484 538 486.5 539 489.5C540 492.5 536 504.5 536.5 511.5C537 518.5 534 520 535 523.5C536.2 528.7 534.833 535.333 534 538C536.4 542 534.667 547.333 533.5 549.5C535.5 553.5 533.667 557.5 532.5 559C536.9 563 534.667 570.333 533 573.5C537.4 577.9 535.5 583.667 534 586C535.2 587.2 534.833 590.833 534.5 592.5C536.1 595.3 534.167 597.667 533 598.5C532.5 599.5 535.5 600 535 610C534.5 620 526.5 632 523 636C519.5 640 514.5 643 510 642.5C506.4 642.1 494.167 643.333 488.5 644C482 645 476.933 644 472.5 637C463 622 460.5 601.5 459 588.5C457.8 578.1 460.5 566.5 462 562C464 497.2 451.5 437 445 415L452.5 397.5C453 385.167 450 360.3 434 359.5C418 358.7 415.333 365.167 416 368.5C417 371.5 418 377.2 414 376C410 374.8 410 369.5 410.5 367C411.833 360.5 412.8 344.9 406 334.5C384 304 382 280 375 258C368 236 376 225 376 203Z" fill="#E29543"/>
<g filter="url(#filter0_f_200_2)">
<path d="M433.5 355.5C419.1 353.5 410.5 366.333 408 373L426.5 660.5L546.5 665L582 374C586.5 375.333 594.3 375.7 589.5 366.5C583.5 355 564 351.5 551 352.5C538 353.5 535.5 387 534.5 395C533.5 403 514.5 580.5 522 592C528 601.2 517.167 622.167 511 631.5C505.167 631 492.1 630.3 486.5 631.5C479.5 633 460 616.5 472.5 587.5C485 558.5 457 407.5 456 395C455 382.5 451.5 358 433.5 355.5Z" fill="#D1832A"/>
</g>
</g>
<path d="M549.5 275C558.167 246.333 580.9 188.1 602.5 184.5M433 252C425.667 229.5 407.6 184.5 394 184.5" stroke="#D1832A" stroke-width="4"/>
<path d="M600.974 223.423C601.76 223.161 602.185 222.312 601.923 221.526C601.661 220.74 600.812 220.315 600.026 220.577L600.974 223.423ZM578.972 219.092C582.075 222.013 590.698 226.848 600.974 223.423L600.026 220.577C591.102 223.552 583.592 219.321 581.028 216.908L578.972 219.092Z" fill="#C07826"/>
<path d="M387.526 223.423C386.74 223.161 386.315 222.312 386.577 221.526C386.839 220.74 387.688 220.315 388.474 220.577L387.526 223.423ZM409.528 219.092C406.425 222.013 397.802 226.848 387.526 223.423L388.474 220.577C397.398 223.552 404.908 219.321 407.472 216.908L409.528 219.092Z" fill="#C07826"/>
<path d="M471 436.5C493.319 445.391 504.452 444.816 522.5 436.5" stroke="#C07826"/>
<path d="M471 469.5C493.319 478.391 504.452 477.816 522.5 469.5" stroke="#C07826"/>
<path d="M471 505.5C493.319 514.391 504.452 513.816 522.5 505.5" stroke="#C07826"/>
<path d="M471 538.5C493.319 547.391 504.452 546.816 522.5 538.5" stroke="#C07826"/>
<mask id="mask5_200_2" style="mask-type:alpha" maskUnits="userSpaceOnUse" x="972" y="757" width="161" height="65">
<ellipse cx="1052.5" cy="789.5" rx="80.5" ry="32.5" fill="#E29543"/>
</mask>
<g mask="url(#mask5_200_2)">
<ellipse cx="1052.5" cy="789.5" rx="80.5" ry="32.5" fill="#E29543"/>
<ellipse cx="1051.5" cy="769.5" rx="58.5" ry="17.5" fill="#C07826"/>
</g>
<path d="M1036.54 586.288L1096 688.5L1099.5 689.5L1114.27 664.876C1123.09 650.186 1125.94 632.678 1122.24 615.951L1118.17 597.486C1112.57 572.16 1122.09 545.88 1142.62 530.019L1258.94 440.121C1283.34 421.26 1291.72 388.174 1279.23 359.973L1184 145H914.5L942.083 287.855C945.834 307.283 957.981 324.059 975.267 333.687L1056.74 379.062C1098.76 402.466 1103.16 461.21 1065.1 490.616L1053.5 499.579C1026.89 520.134 1019.64 557.225 1036.54 586.288Z" fill="url(#paint0_linear_200_2)"/>
<path d="M1145.52 664.901L1122.5 704.5L1124.5 708.5L1175.55 674.142C1192.54 662.703 1203.26 644.02 1204.56 623.575L1210.57 528.947C1211.5 514.393 1207.58 499.943 1199.42 487.853L1174.97 451.606C1162.51 433.134 1160.21 409.622 1168.86 389.086L1176.91 369.964C1178.3 366.66 1179.96 363.475 1181.87 360.441L1301 171L1114.5 241L1036.32 367.529C1016.72 399.242 1027.26 440.877 1059.59 459.448L1091.88 478.002C1106.41 486.353 1117.22 499.921 1122.12 515.953L1151.59 612.452C1156.95 630.017 1154.75 649.023 1145.52 664.901Z" fill="url(#paint1_linear_200_2)"/>
<mask id="mask6_200_2" style="mask-type:alpha" maskUnits="userSpaceOnUse" x="1018" y="681" width="112" height="119">
<path d="M1021.5 791.5L1102 682.5M1019.5 798L1128 702" stroke="#E29543" stroke-width="4"/>
</mask>
<g mask="url(#mask6_200_2)">
<path d="M1021.5 791.5L1102 682.5M1019.5 798L1128 702" stroke="#E29543" stroke-width="4"/>
<path d="M1114.5 700L1134.5 719.5L1145 706.5L1109.5 667L1086.5 681L1114.5 700Z" fill="#C07826"/>
</g>
</g>
<defs>
<filter id="filter0_f_200_2" x="389" y="333.338" width="221.008" height="350.662" filterUnits="userSpaceOnUse" color-interpolation-filters="sRGB">
<feFlood flood-opacity="0" result="BackgroundImageFix"/>
<feBlend mode="normal" in="SourceGraphic" in2="BackgroundImageFix" result="shape"/>
<feGaussianBlur stdDeviation="9.5" result="effect1_foregroundBlur_200_2"/>
</filter>
<linearGradient id="paint0_linear_200_2" x1="1107.5" y1="145" x2="1107.5" y2="689.5" gradientUnits="userSpaceOnUse">
<stop stop-color="#8B6740" stop-opacity="0"/>
<stop offset="0.88" stop-color="#F1B26F"/>
</linearGradient>
<linearGradient id="paint1_linear_200_2" x1="1150.75" y1="171" x2="1150.75" y2="708.5" gradientUnits="userSpaceOnUse">
<stop stop-color="#8B6740" stop-opacity="0"/>
<stop offset="1" stop-color="#F1B26F"/>
</linearGradient>
</defs>
</svg>
