<!-- Designed/Created by Shane Mindreau -->
<!-- copyright Shane Mindreau 2024 -->
<svg width="1920" height="960" viewBox="0 0 1920 960" fill="none" xmlns="http://www.w3.org/2000/svg">
<mask id="mask0_93_54" style="mask-type:alpha" maskUnits="userSpaceOnUse" x="0" y="0" width="1920" height="960">
<rect width="1920" height="960" fill="#020A3D"/>
</mask>
<g mask="url(#mask0_93_54)">
<rect width="1920" height="960" fill="#020A3D"/>
<path d="M1752 997C1790.17 982 1865.5 962.5 1872 894C1880.63 803 1959.83 854.667 2001 864L1957 109C1916 92.5 1771.5 175.9 1801.5 217.5C1831.5 259.1 1939.67 203.167 1988 171L2052.5 252C2024.33 230 1971.61 330.011 1885 302.5C1800 275.5 1827.5 454 1948.5 354L2078.5 313.5C2131.17 328.333 2177.33 363.356 1957 437.5C1747.5 508 1770.5 460.5 1780 432C1789.5 403.5 1790 378.5 1761.5 354C1733 329.5 1689.79 367.153 1684.5 398.5C1676.9 443.54 1716.06 485.658 1670.5 500C1643.5 508.5 1596.5 398.5 1566.5 483C1543.83 546.853 1485.17 542.5 1457 491.5C1442.09 464.5 1419.93 454.255 1378.5 483C1354 500 1308 483 1326.5 419C1338.17 374.833 1380.6 303.2 1457 370C1533.4 436.8 1613.17 364.5 1643.5 320C1676.5 265.5 1767.5 286.5 1727 232.5C1637.5 72.9999 1803.77 135.08 1827.5 70C1860.5 -20.5 1767.17 -64.3332 1704.5 -63.4999C1732 -19.6665 1750.4 66.4001 1604 60C1457.6 53.5999 1523.67 -25 1575 -63.4999L1007 -36.5C1007 -6 937.5 92.8209 1014.5 105.5C1091.5 118.179 1140.75 82.4359 1104 24C1032 -90.5001 1082 -259.5 1176.5 -13.5C1252.1 183.3 1348.5 18.5 1354 -63.4999L1443 -20.5C1404.17 41.5 1361.1 158.9 1499.5 132.5C1637.9 106.1 1619.17 188.167 1592.5 232.5C1564.83 277.833 1489.5 345.2 1409.5 252C1329.5 158.8 1308.5 222.167 1308 265.5C1303.5 342 1257.9 476 1111.5 400C965.1 324 874.5 408.333 859 455C842 518.5 832 548.5 749 541.5C700 530.5 660.6 525.4 681 593C701.4 660.6 763.833 647.833 792.5 633C846 609 889 699.5 962 699.5C1008.67 699.5 1085 686.2 1017 633C834.6 489 947.667 454.333 1027 455C1068.5 455.349 1117.5 490.4 1121.5 558C1125.5 625.6 1205.5 569.5 1245 533C1264 515.443 1316.5 528.5 1398 593C1479.5 657.5 1509.5 760.775 1509.5 851C1509.5 961 1594 891 1656 803C1718 715 1591 682.5 1557.5 651.5C1494.7 594.3 1583.67 565.333 1636 558C1670.83 557.333 1735.9 567.7 1717.5 614.5C1694.5 673 1792 722.5 1847 682.5C1891 650.5 1865.33 623.833 1847 614.5C1797.17 599.5 1727.4 562.2 1847 533C1966.6 503.8 2032.17 716.5 2045 813C1879.8 623 1687.83 905.5 1612.5 1070.5C1413.33 1107.67 1022 1141.4 1050 979C1078 816.6 1145 938 1175 1019C1218.17 1038.5 1295.2 1065.8 1258 1019C1211.5 960.5 1178.5 809.5 1245 803C1311.5 796.5 1338 838 1326.5 972.5C1317.3 1080.1 1400.33 1057.33 1443 1032.5C1450.67 974.833 1445.1 827.5 1361.5 699.5C1277.9 571.5 1219 646.167 1200 699.5C1192.17 734 1150.2 796.6 1045 771C913.5 739 1042 1065.5 918.5 1032.5C795 999.5 947 773 812.5 739.5C678 706 617.167 853.369 701 831.5C724 825.5 802.459 835.5 779.5 898C765.541 936 719.1 956.2 599.5 891C479.9 825.8 477.333 918.166 491 972.5C515.5 1000.17 540.9 1050.9 446.5 1032.5C328.5 1009.5 310 766 461 784.5C612 803 666 699.5 579.5 633C409.1 497 466.167 427.667 516 410C660.5 350 692.5 546.5 792.5 410C840.679 344.235 932 265.5 1088.5 313.5C1245 361.5 1258 87.5 1067 184.5C914.2 262.1 892.333 190.833 900.5 145.5C908.833 106.833 905.5 10.9 825.5 -63.4999C677.5 -209.5 699.5 -124.333 729 -63.4999C789.5 48.8335 859.5 279.1 655.5 301.5C400.5 329.5 857.5 29.5 621 68.0001C431.8 98.8002 390.833 55.1667 394 29.5C383.5 -57 347.8 -188.3 289 -21.5C215.5 187 652 85.5 471.5 232.5C291 379.5 295.5 165.5 236 135.5C188.4 111.5 166.639 155.5 178.5 184.5C247.7 353.7 70.6667 351.333 -26.5 329L-80.5 216C-16.5 238.667 104.7 260.9 77.5 168.5C50.3 76.1 -47.1667 87 -92.5 104L-49 -29C-12 2.83333 74.6 64.6 125 57C188 47.5 208 34 154 -54C110.8 -124.4 -52 -66.6667 -128 -29L-107 469C-49.8333 493.5 69.5 526.3 89.5 461.5C110.951 392 147.951 401.575 178.5 416.5C244 448.5 245.092 362.298 291.5 346.5C315 338.5 442.961 321.718 394 455C367 528.5 323.5 510.628 305.5 486.5C282 455 232 462.5 232 514C232 613.684 305.833 600.333 369.5 593C388.833 590.333 434.9 586.1 452.5 618.5C472.599 655.5 548.3 651.189 543 693C537.93 733 467.454 724.991 438.5 719C409.5 713 385.5 741.594 350 695C326 663.5 279.5 657.215 244 659.5C163.2 664.7 150.333 604 154 573C163.5 538 123.5 518.5 41.5 608C-43.9422 701.257 69.5 718.5 118.5 718.5C197 719.333 336.2 749.8 265 865C193.8 980.2 286 1044 341 1061.5L96 1043C63 975 21.5349 852.944 32 824.5C51.5 771.5 161.5 769.5 147 865C135.4 941.4 167.5 1008.5 185 1032.5" stroke="#202F92" stroke-opacity="0.5" stroke-width="43"/>
<path d="M1611.5 561.5C1611.5 559 1606.1 558.8 1606.5 562C1606.79 564.361 1611.5 562.5 1611.5 566C1611.5 568.5 1606 568.5 1606 566M1614 559V568C1614 565.833 1614 562 1616.5 562C1618.8 562 1618.5 566 1618.5 568M1621 563C1621.75 561.509 1625 561.346 1625 563.5M1625 568C1625 567.408 1625 566.847 1625 566.324M1625 563.5C1625 563.673 1625 563.865 1625 564.072M1625 563.5V564.072M1625 564.072C1624.5 564.382 1623.5 564.5 1622 565C1620.63 565.457 1621 567.5 1622.5 567.5C1624.5 567.5 1625 566.716 1625 566.324M1625 564.072C1625 564.691 1625 565.454 1625 566.324M1628 561.5V563.5M1628 568V563.5M1628 563.5C1628 562 1632 561.149 1632 563.5C1632 566.7 1632 567.833 1632 568M1639.5 566.5C1639 567.5 1636.38 568.336 1635 566.5C1634.5 565.833 1634.5 565 1634.5 564.5M1634.5 564.5C1634.5 563 1635.7 562.133 1636.5 562C1637.5 561.833 1639.5 562.1 1639.5 564.5H1634.5ZM1645.5 568V559.5L1648.79 567.5H1649.24L1653 559.5V568M1656 568V561.5M1656 560.5V559M1659 561.5V563.5M1659 563.5V568M1659 563.5C1659 562 1663 561.149 1663 563.5V568M1670.5 568V565.75M1670.5 559.5V563.5M1670.5 563.5C1669.5 561.5 1667 561.5 1666 563C1665.16 564.257 1665.5 567 1667 567.5C1667.83 567.833 1669.7 567.95 1670.5 565.75M1670.5 563.5V565.75M1673.5 561.5V563.5M1673.5 568V563.5M1673.5 563.5C1673.67 563 1674.4 562 1676 562M1682 566.5C1681.5 567.5 1678.88 568.336 1677.5 566.5C1677 565.833 1677 565 1677 564.5M1677 564.5C1677 563 1678.2 562.133 1679 562C1680 561.833 1682 562.1 1682 564.5H1677ZM1684.5 563C1685.25 561.509 1688.5 561.346 1688.5 563.5V564.072M1688.5 564.072C1688 564.382 1687 564.5 1685.5 565C1684.13 565.457 1684.5 567.5 1686 567.5C1688 567.5 1688.5 566.716 1688.5 566.324M1688.5 564.072V566.324M1688.5 566.324V568M1695.5 561.5V566M1695.5 568V566M1691.5 561.5V566C1691.5 566.5 1691.8 567.5 1693 567.5C1694.5 567.5 1695 567 1695.5 566" stroke="#111D68"/>
<rect x="-103" y="797" width="1429" height="239" rx="66" fill="#111D68"/>
<path d="M909.5 872.5C909.5 870 904.1 869.8 904.5 873C904.795 875.361 909.5 873.5 909.5 877C909.5 879.5 904 879.5 904 877M912 870V879C912 876.833 912 873 914.5 873C916.8 873 916.5 877 916.5 879M919 874C919.746 872.509 923 872.346 923 874.5M923 879C923 878.408 923 877.847 923 877.324M923 874.5C923 874.673 923 874.865 923 875.072M923 874.5V875.072M923 875.072C922.5 875.382 921.5 875.5 920 876C918.63 876.457 919 878.5 920.5 878.5C922.5 878.5 923 877.716 923 877.324M923 875.072C923 875.691 923 876.454 923 877.324M926 872.5V874.5M926 879V874.5M926 874.5C926 873 930 872.149 930 874.5C930 877.7 930 878.833 930 879M937.5 877.5C937 878.5 934.377 879.336 933 877.5C932.5 876.833 932.5 876 932.5 875.5M932.5 875.5C932.5 874 933.704 873.133 934.5 873C935.5 872.833 937.5 873.1 937.5 875.5H932.5ZM943.5 879V870.5L946.794 878.5H947.235L951 870.5V879M954 879V872.5M954 871.5V870M957 872.5V874.5M957 874.5V879M957 874.5C957 873 961 872.149 961 874.5V879M968.5 879V876.75M968.5 870.5V874.5M968.5 874.5C967.5 872.5 965 872.5 964 874C963.162 875.257 963.5 878 965 878.5C965.833 878.833 967.7 878.95 968.5 876.75M968.5 874.5V876.75M971.5 872.5V874.5M971.5 879V874.5M971.5 874.5C971.667 874 972.4 873 974 873M980 877.5C979.5 878.5 976.877 879.336 975.5 877.5C975 876.833 975 876 975 875.5M975 875.5C975 874 976.204 873.133 977 873C978 872.833 980 873.1 980 875.5H975ZM982.5 874C983.246 872.509 986.5 872.346 986.5 874.5V875.072M986.5 875.072C986 875.382 985 875.5 983.5 876C982.13 876.457 982.5 878.5 984 878.5C986 878.5 986.5 877.716 986.5 877.324M986.5 875.072V877.324M986.5 877.324V879M993.5 872.5V877M993.5 879V877M989.5 872.5V877C989.5 877.5 989.8 878.5 991 878.5C992.5 878.5 993 878 993.5 877" stroke="#111D68"/>
<mask id="mask1_93_54" style="mask-type:alpha" maskUnits="userSpaceOnUse" x="0" y="72" width="919" height="889">
<path d="M859.5 128C843.1 143.2 820.667 126.333 811.5 116C805.167 106.333 780.4 86 732 82C683.6 78 675.167 74.3333 677 73C658.667 71.6666 612.8 76.3 576 105.5C552.5 123 520 105 517.5 89C515.5 93 513.667 89.3333 513 87C509.4 94.6 518.5 108.5 523.5 114.5C516.5 109.667 502.1 98.7 500.5 93.5C500.9 100.7 510.667 111.5 515.5 116C508.667 115.833 493.3 113.5 486.5 105.5C479.7 97.5 481.333 105.5 483 110.5C485.167 115.167 495.6 126.6 520 135C508.5 136.833 483.8 139.4 477 135C478.5 137.667 484.1 143 494.5 143C488.667 145.667 474.4 150.2 464 147L472 155.5C412.667 181.167 289.2 248.2 270 311C250.916 373.422 83.0398 385.357 0 383.535V867.151C23.2563 878.52 77.6631 876.549 103 874L112.5 872.461C113.125 872.952 113.792 873.465 114.5 874C135.7 890 207.667 870.666 241 859L256.422 852.5L253.5 913.5C255.833 917.167 259.1 925.4 253.5 929C256.166 928.833 261.5 927.6 261.5 924C263.166 935.667 253.5 945 253.5 960H402L400.708 939C401.945 938.656 403.211 938.161 404.5 937.5C410 955.5 427.215 955.5 441.5 955.5C452.039 955.5 458.598 938.433 463.756 922.633C449.404 977.885 497.405 963.919 511.5 933C513.5 927.833 520.5 917 532.5 915C577.3 907.4 624.167 874.833 642 859.5L644.5 867.5L647.5 869.5C648.7 867.9 648 861.167 647.5 858C648.7 862 654 863 656.5 863C654.1 862.2 652.5 857 652 854.5L654 852C654.4 854 657.833 856.833 659.5 858C653.1 847.2 679.5 800.5 683.5 769.5L691 775C700.6 756.2 695 698.833 691 672.5L687 637.5C689.8 645.5 700.167 649.167 705 650C692.2 642 699.667 606 705 589L709.5 465.5H775.5H855.5L917 423C924.5 395 905.5 261.5 892 240C881.2 222.8 879.833 189.167 880.5 174.5H902.5C896.333 172.5 881.1 167 869.5 161C857.9 155 864.667 145.833 869.5 142C868.667 142.167 864.9 143 856.5 145C848.14 146.99 859.885 132.64 866.898 125.109C861.774 130.583 859.831 129.325 859.5 128Z" fill="#E89A4A"/>
</mask>
<g mask="url(#mask1_93_54)">
<path d="M859.5 128C843.1 143.2 820.667 126.333 811.5 116C805.167 106.333 780.4 86 732 82C683.6 78 675.167 74.3333 677 73C658.667 71.6666 612.8 76.3 576 105.5C552.5 123 520 105 517.5 89C515.5 93 513.667 89.3333 513 87C509.4 94.6 518.5 108.5 523.5 114.5C516.5 109.667 502.1 98.7 500.5 93.5C500.9 100.7 510.667 111.5 515.5 116C508.667 115.833 493.3 113.5 486.5 105.5C479.7 97.5 481.333 105.5 483 110.5C485.167 115.167 495.6 126.6 520 135C508.5 136.833 483.8 139.4 477 135C478.5 137.667 484.1 143 494.5 143C488.667 145.667 474.4 150.2 464 147L472 155.5C412.667 181.167 289.2 248.2 270 311C250.916 373.422 83.0398 385.357 0 383.535V867.151C23.2563 878.52 77.6631 876.549 103 874L112.5 872.461C113.125 872.952 113.792 873.465 114.5 874C135.7 890 207.667 870.666 241 859L256.422 852.5L253.5 913.5C255.833 917.167 259.1 925.4 253.5 929C256.166 928.833 261.5 927.6 261.5 924C263.166 935.667 253.5 945 253.5 960H402L400.708 939C401.945 938.656 403.211 938.161 404.5 937.5C410 955.5 427.215 955.5 441.5 955.5C452.039 955.5 458.598 938.433 463.756 922.633C449.404 977.885 497.405 963.919 511.5 933C513.5 927.833 520.5 917 532.5 915C577.3 907.4 624.167 874.833 642 859.5L644.5 867.5L647.5 869.5C648.7 867.9 648 861.167 647.5 858C648.7 862 654 863 656.5 863C654.1 862.2 652.5 857 652 854.5L654 852C654.4 854 657.833 856.833 659.5 858C653.1 847.2 679.5 800.5 683.5 769.5L691 775C700.6 756.2 695 698.833 691 672.5L687 637.5C689.8 645.5 700.167 649.167 705 650C692.2 642 699.667 606 705 589L709.5 465.5H775.5H855.5L917 423C924.5 395 905.5 261.5 892 240C881.2 222.8 879.833 189.167 880.5 174.5H902.5C896.333 172.5 881.1 167 869.5 161C857.9 155 864.667 145.833 869.5 142C868.667 142.167 864.9 143 856.5 145C848.14 146.99 859.885 132.64 866.898 125.109C861.774 130.583 859.831 129.325 859.5 128Z" fill="#D1832A"/>
<path d="M504.5 599.5C484.9 590.3 460.667 551.333 451 533L457 484.5L506.5 499L504.5 522H531V538.5C520 555.5 538.6 559.7 547 560.5C555.4 561.3 564.5 564.833 568 566.5L547 599.5L539 621.5L552 625C557.333 637.5 565.8 665.4 557 677L541.906 689.35C541.456 689.764 540.988 690.149 540.5 690.5L541.906 689.35C550.674 681.265 552.317 661.695 552 652.5C548.4 660.5 536.5 664.833 531 666C535.735 662.4 540.973 646.833 543 639.5C528.2 647.5 524.167 670.5 524 681C515.6 671 515.5 644.5 516.5 632.5L520.5 622.5C518.9 624.5 513.833 633.333 511.5 637.5C511.5 631.5 515.833 621.333 518 617V613C516 613.8 512.833 618 511.5 620C508.7 601.6 530 582.333 541 575C531.4 574.6 512.667 591.167 504.5 599.5Z" fill="#E99B4A"/>
<path d="M859.5 128C843.1 143.2 820.667 126.333 811.5 116C805.167 106.333 780.4 86 732 82C683.6 78 675.167 74.3333 677 73C658.667 71.6666 612.8 76.3 576 105.5C552.5 123 520 105 517.5 89M867 125C860 132.5 848.1 147 856.5 145C864.9 143 868.667 142.167 869.5 142C864.667 145.833 857.9 155 869.5 161C881.1 167 896.333 172.5 902.5 174.5M513 87C509.4 94.6 518.5 108.5 523.5 114.5C516.5 109.667 502.1 98.7 500.5 93.5M515.5 116C508.667 115.833 493.3 113.5 486.5 105.5C479.7 97.5 481.333 105.5 483 110.5C485.167 115.167 495.6 126.6 520 135C508.5 136.833 483.8 139.4 477 135C478.5 137.667 484.1 143 494.5 143C488.667 145.667 474.4 150.2 464 147M472 155.5C412.667 181.167 289.2 248.2 270 311C250.8 373.8 82.5 385.5 0 383.5" stroke="#E99B4A" stroke-width="47"/>
<g filter="url(#filter0_f_93_54)">
<path d="M-24.5 736.5L-31 331.5L444 164.5C449.333 167.5 461.8 175 469 181C476.2 187 493 177.167 500.5 171.5L478 218L472 229L482.5 221.5L472 262L463.5 291.5C439.167 312.5 165 521 370.5 547.5C488.452 562.71 228.833 731.833 165 750L187 720.5L-24.5 736.5Z" fill="#E99B4A"/>
</g>
<path d="M255.5 872.5L257.5 830.5C291.9 849.7 318.5 808.167 327.5 785L350.5 1001.5L238 999L255.5 872.5Z" fill="#EA9C4A"/>
<path d="M370 877C359.2 885 374.5 889.333 383.5 890.5C365.1 916.5 389.833 915 404.5 911C402.5 919 416.5 969 437 926C453.4 891.6 430.167 888 416.5 890.5C420.9 869.3 404.333 870 395.5 873C403 854 383.5 867 370 877Z" fill="#EA9C4A"/>
</g>
<path d="M855.5 229.717C848.601 221.771 841.851 222.075 839 223.5C833.169 236.134 837 250 841.929 251.5C849.5 253 855.452 236.478 855.5 229.717Z" fill="#472016"/>
<path d="M720.5 221C712.5 187 673 201.5 662.5 210C661.632 210.703 660.528 211.369 659.23 212C664 213.5 666.5 218.5 675.5 225.5C686.053 233.708 709.833 226 720.5 221Z" fill="#472016"/>
<path d="M888.5 357.5C900.9 333.9 883.333 320.333 873 316.5L872.92 316.47C852.925 309.053 824.873 298.646 804.5 333C793.5 350.5 813.5 381.431 840 381.965C847.083 385.731 853.347 387.256 857 387.5C862.333 387.333 876.1 381.1 888.5 357.5Z" fill="#111629"/>
<path d="M883.5 342.5C869.5 342.5 871.667 355.167 874.5 361.5C874.667 359 876.4 354.3 882 355.5C885.5 351.167 890.7 342.5 883.5 342.5Z" fill="#030305"/>
<path d="M847.5 342.5C865.5 352.1 852 362.5 843 366.5C842.6 361.7 830.834 352.5 825 348.5C838.6 353.3 839 348.833 837.5 346C833.334 340.833 829.5 332.9 847.5 342.5Z" fill="#030305"/>
<path d="M692.5 215.5C680.9 217.1 671.667 209.833 668.5 206C671.833 203.833 681.5 199.5 693.5 199.5C705.5 199.5 711.833 204.833 713.5 207.5C709.5 211 707 213.5 692.5 215.5Z" fill="#030305" fill-opacity="0.5"/>
<path d="M717.5 213C712.3 222.2 683.333 221.833 669.5 220.5C679 230 685.5 229.5 696 228.5C704.4 227.7 715.833 223.167 720.5 221C720.1 218.2 718.333 214.5 717.5 213Z" fill="#583823"/>
<g filter="url(#filter1_f_93_54)">
<circle cx="699.5" cy="213.5" r="6.5" fill="#030305"/>
</g>
<g filter="url(#filter2_f_93_54)">
<circle cx="699.5" cy="213.5" r="6" stroke="#CECED0" stroke-opacity="0.5"/>
</g>
<path d="M672 210C680 205.667 698.3 199.1 707.5 207.5" stroke="#CECED0" stroke-opacity="0.4" stroke-width="4" stroke-linecap="round"/>
<ellipse cx="700.5" cy="210" rx="1.5" ry="1" fill="#CECED0"/>
<path d="M838 247.5C834 237.5 837 227.333 839 223.5C843.8 220.7 850.333 224.667 853 227C849.667 238 842 257.5 838 247.5Z" fill="#25110D"/>
<path d="M844 233.5C842.4 237.5 845.667 240.5 847.5 241.5C849.1 239.5 851.833 231 853 227C846.6 221.4 841 222.333 839 223.5L837 229.5C840 229.167 845.6 229.5 844 233.5Z" fill="#030305"/>
<path d="M852 226.5C850 236.9 842.5 245.833 839 249L841.5 251.5C848.7 245.1 852.833 233.167 854 228L852 226.5Z" fill="#CECED0" fill-opacity="0.4"/>
<ellipse cx="848" cy="232.5" rx="1" ry="1.5" fill="#CECED0"/>
<path d="M680 407C680.833 404.333 686 401.3 700 410.5C709.068 416.459 725.616 420.222 740 422.36C734.8 421.657 726.045 431 721.5 433C717.333 434.833 705.6 436.8 692 430C678.4 423.2 678.333 411.833 680 407Z" fill="#030305"/>
<g filter="url(#filter3_f_93_54)">
<path d="M698.961 357.794L653.947 340.554C653.268 340.294 653.071 339.434 653.585 338.921C672.103 320.432 707.862 281.257 711 264C714.173 246.549 726.784 242.731 732.846 242.992C732.95 242.997 733.057 242.985 733.159 242.958C789.897 227.793 749.216 135.014 720.931 89.0048C720.52 88.3363 721.016 87.5 721.801 87.5H744.771C744.922 87.5 745.074 87.5354 745.209 87.601C816.907 122.316 830.019 194.024 827.353 234.953C827.274 236.179 819.985 238.308 818.962 237.629C814.518 234.679 807.562 231.821 797 230C759.463 224.255 796.567 261.454 822.612 283.206C823.429 283.888 822.708 285.56 821.643 285.58C795.073 286.093 730.78 332.707 699.936 357.647C699.659 357.871 699.295 357.921 698.961 357.794Z" fill="#E89A4A"/>
</g>
<mask id="mask2_93_54" style="mask-type:alpha" maskUnits="userSpaceOnUse" x="1215" y="421" width="226" height="357">
<path d="M1252.5 504.5C1246 467.5 1304 420.5 1363.5 528.5C1376.41 551.942 1383.9 571.938 1383.76 591C1383.71 597.901 1382 595.5 1377.5 591C1377.5 591 1383.13 606.892 1382 610C1360.17 669.936 1272.99 718.271 1218.5 732.5L1249.5 777.5C1323 755.5 1472 678.5 1434.5 564.5C1397.25 451.251 1333.03 414.046 1274.5 422.5C1229.5 429 1214.33 475.166 1215.5 503C1216.5 514 1218 537.1 1236 541.5C1261 547.611 1255.14 519.5 1252.5 504.5Z" fill="#BB8C58"/>
</mask>
<g mask="url(#mask2_93_54)">
<path d="M1252.5 504.5C1246 467.5 1304 420.5 1363.5 528.5C1376.41 551.942 1383.9 571.938 1383.76 591C1383.71 597.901 1382 595.5 1377.5 591C1377.5 591 1383.13 606.892 1382 610C1360.17 669.936 1272.99 718.271 1218.5 732.5L1249.5 777.5C1323 755.5 1472 678.5 1434.5 564.5C1397.25 451.251 1333.03 414.046 1274.5 422.5C1229.5 429 1214.33 475.166 1215.5 503C1216.5 514 1218 537.1 1236 541.5C1261 547.611 1255.14 519.5 1252.5 504.5Z" fill="#BB8C58"/>
<g filter="url(#filter4_f_93_54)">
<path d="M1252.5 740L1269 775L1291 770C1290.2 755.6 1267 738 1255.5 731L1252.5 740Z" fill="#68523A"/>
</g>
<g filter="url(#filter5_f_93_54)">
<path d="M1314.5 736L1304.5 733C1304.5 719.322 1285.73 706.757 1275.69 701.834L1304.5 686.5C1320.9 699.3 1318 724.833 1314.5 736Z" fill="#68523A"/>
</g>
<g filter="url(#filter6_f_93_54)">
<path d="M1337 701C1350.6 715 1349.33 734.167 1347 742L1377 726C1368.5 699 1320 683.5 1337 701Z" fill="#68523A"/>
</g>
<g filter="url(#filter7_f_93_54)">
<path d="M1347.5 689.5L1322 676.5C1322 669.667 1324 657.3 1332 662.5C1340 667.7 1345.67 682.667 1347.5 689.5Z" fill="#68523A"/>
<path d="M1347.5 643.5C1363.9 650.7 1391.67 683.167 1403.5 698.5L1409 696.5C1408.2 689.3 1374.67 649.833 1358 631L1347.5 643.5Z" fill="#68523A"/>
</g>
<g filter="url(#filter8_f_93_54)">
<path d="M1404 621.5C1420 622.3 1432.67 646.833 1437 659C1449.83 646.5 1470.4 619.9 1450 613.5C1429.6 607.1 1410.83 616.167 1404 621.5Z" fill="#675139"/>
<path d="M1407 573L1380.5 580C1376.17 581.667 1368 581.7 1370 568.5C1372 555.3 1393.5 554.333 1404 555.5C1427.6 567.5 1415.83 572.167 1407 573Z" fill="#675139"/>
<path d="M1398 517L1417 512C1421.83 513.667 1427.2 513.1 1410 497.5C1392.8 481.9 1360.5 505.667 1346.5 519.5L1359.5 542C1359.1 531.2 1374.33 522.5 1382 519.5L1380.5 507L1398 517Z" fill="#675139"/>
<path d="M1352.5 465C1350.1 458.2 1366.5 452.833 1375 451L1359.5 434.5C1351.67 436.5 1335.4 443.8 1333 457C1330 473.5 1355.5 473.5 1352.5 465Z" fill="#675139"/>
<path d="M1269.5 480.5L1293.5 477.5C1297.17 479.833 1301.7 477.3 1290.5 448.5C1279.3 419.7 1271.83 457.833 1269.5 480.5Z" fill="#675139"/>
<path d="M1208 480.5L1216 451C1216 471.5 1243.5 470 1239 484C1235.4 495.2 1216.83 486.333 1208 480.5Z" fill="#675139"/>
</g>
<g filter="url(#filter9_f_93_54)">
<path d="M1410 584C1416 703.5 1265.83 735.5 1207 703.5L1192 752.5L1410 912.5L1521.5 356.5L1296.5 400C1330.33 406 1400.4 451.2 1410 584Z" fill="#030305" fill-opacity="0.19"/>
</g>
<path d="M1215.5 563C1219.83 514.833 1247.7 417.8 1324.5 415C1261.67 399.667 1151.9 407.8 1215.5 563Z" fill="#FFB767" fill-opacity="0.55"/>
</g>
<mask id="mask3_93_54" style="mask-type:alpha" maskUnits="userSpaceOnUse" x="642" y="417" width="644" height="526">
<path d="M703.5 499.5C685.9 490.7 696.167 463.833 703.5 451.5L710.5 447.5L719.5 440L733 434.663L750.5 430.5L771.5 427.5C773.667 438.833 780.7 461 791.5 459C802.3 457 813.333 450.833 817.5 448L820 450.5C820.833 452.333 823.1 455.2 825.5 452L828.5 453.5C833.833 457.667 847 464.6 857 459C869.5 452 912.5 419 935.5 418C953.9 417.2 960.167 419.667 961 421C962.76 424.149 964.972 430.561 965.424 439C965.786 445.748 965.021 453.792 962 462.5C955.2 482.1 947.5 495.667 944.5 500C943.667 501.5 942.1 505.7 942.5 510.5C943 516.5 947 541.5 929 536V541.5L934 542.5L930 546.5C931.333 548.167 934.8 551.3 938 550.5L934.5 554.5C936.5 556.667 941.2 560.9 944 560.5L937 562.5L945.5 564C942.167 565.5 935.8 568.9 937 570.5L940.5 578.5L936 581V587.5C934.5 593.333 930.2 606.7 925 613.5C919.8 620.3 922.167 622.667 924 623L930 626C1019.17 620.5 1211.3 650.9 1266.5 816.5C1300.1 909.7 1281.5 925.327 1266.5 928.5C1257.83 930.333 1137.5 964.32 1137.5 920C1137.5 908.373 1139.49 900.564 1143 895.5C1109.17 893.5 1036.3 890.1 1015.5 892.5L1009 893.255C1003.77 897.561 997.457 897.781 994 897L865 901.5C852.167 906.167 825.7 913.6 822.5 906C822.31 905.548 822.134 905.046 821.974 904.5C813.326 907.962 795.355 912.197 789 903.23C780.969 903.409 768.256 901.47 763.906 894.018C755.522 895.583 745.131 893.328 740.969 892C739.174 893.959 737.321 895.466 735.664 896.5C729.781 905.354 709.207 902.407 698.709 899.5C692.218 902.88 680.608 897.35 674.5 893.317C672.875 895.225 670.061 896.5 665.5 896.5C638.7 896.1 640.333 880.333 644.5 872.5L648 869L647.5 858.5C647.5 858.5 651 863.5 656 863C652.5 859.5 652 854.5 652 854.5L654 852C654 852 657 857 659.02 857.5C657.5 853.5 659.5 845.5 659.5 845.5C659.5 845.5 663.5 831.5 669 818C671.5 811 679 789.5 679 789.5L683.918 769.5C683.918 769.5 689 773 691 775C698 759.5 696 729 696 729C696 716.5 695 699.5 692.364 682.5C695.428 658.699 705.835 636.267 731.5 632.5C721.167 626.833 701.3 614.5 704.5 610.5C707.7 606.5 700.833 598.833 697 595.5C696 595.667 694.6 595.7 697 594.5C699.4 593.3 698 588.667 697 586.5L690.5 582C692.9 582 693.833 580 694 579L692.5 575.5C692.5 569.9 687.5 566.833 685 566L690.5 561.5L683.5 558.5C686.7 559.3 689.5 555.167 690.5 553L681.5 536.5C685.1 534.9 689 530.5 690.5 528.5L688 513C690.8 513.8 696.167 511.333 698.5 510L697.5 503.5C702.3 504.3 703.5 501.167 703.5 499.5Z" fill="#BB8C58"/>
</mask>
<g mask="url(#mask3_93_54)">
<path d="M703.5 499.5C685.9 490.7 696.167 463.833 703.5 451.5L710.5 447.5L719.5 440L733 434.663L750.5 430.5L771.5 427.5C773.667 438.833 780.7 461 791.5 459C802.3 457 813.333 450.833 817.5 448L820 450.5C820.833 452.333 823.1 455.2 825.5 452L828.5 453.5C833.833 457.667 847 464.6 857 459C869.5 452 912.5 419 935.5 418C953.9 417.2 960.167 419.667 961 421C962.76 424.149 964.972 430.561 965.424 439C965.786 445.748 965.021 453.792 962 462.5C955.2 482.1 947.5 495.667 944.5 500C943.667 501.5 942.1 505.7 942.5 510.5C943 516.5 947 541.5 929 536V541.5L934 542.5L930 546.5C931.333 548.167 934.8 551.3 938 550.5L934.5 554.5C936.5 556.667 941.2 560.9 944 560.5L937 562.5L945.5 564C942.167 565.5 935.8 568.9 937 570.5L940.5 578.5L936 581V587.5C934.5 593.333 930.2 606.7 925 613.5C919.8 620.3 922.167 622.667 924 623L930 626C1019.17 620.5 1211.3 650.9 1266.5 816.5C1300.1 909.7 1281.5 925.327 1266.5 928.5C1257.83 930.333 1137.5 964.32 1137.5 920C1137.5 908.373 1139.49 900.564 1143 895.5C1109.17 893.5 1036.3 890.1 1015.5 892.5L1009 893.255C1003.77 897.561 997.457 897.781 994 897L865 901.5C852.167 906.167 825.7 913.6 822.5 906C822.31 905.548 822.134 905.046 821.974 904.5C813.326 907.962 795.355 912.197 789 903.23C780.969 903.409 768.256 901.47 763.906 894.018C755.522 895.583 745.131 893.328 740.969 892C739.174 893.959 737.321 895.466 735.664 896.5C729.781 905.354 709.207 902.407 698.709 899.5C692.218 902.88 680.608 897.35 674.5 893.317C672.875 895.225 670.061 896.5 665.5 896.5C638.7 896.1 640.333 880.333 644.5 872.5L648 869L647.5 858.5C647.5 858.5 651 863.5 656 863C652.5 859.5 652 854.5 652 854.5L654 852C654 852 657 857 659.02 857.5C657.5 853.5 659.5 845.5 659.5 845.5C659.5 845.5 663.5 831.5 669 818C671.5 811 679 789.5 679 789.5L683.918 769.5C683.918 769.5 689 773 691 775C698 759.5 696 729 696 729C696 716.5 695 699.5 692.364 682.5C695.428 658.699 705.835 636.267 731.5 632.5C721.167 626.833 701.3 614.5 704.5 610.5C707.7 606.5 700.833 598.833 697 595.5C696 595.667 694.6 595.7 697 594.5C699.4 593.3 698 588.667 697 586.5L690.5 582C692.9 582 693.833 580 694 579L692.5 575.5C692.5 569.9 687.5 566.833 685 566L690.5 561.5L683.5 558.5C686.7 559.3 689.5 555.167 690.5 553L681.5 536.5C685.1 534.9 689 530.5 690.5 528.5L688 513C690.8 513.8 696.167 511.333 698.5 510L697.5 503.5C702.3 504.3 703.5 501.167 703.5 499.5Z" fill="#BB8C58"/>
<path d="M865 543.5C875 541.5 885 546.5 887 549.5C888.805 552.207 871.883 579.853 853.5 565.161C846.3 573.69 844.418 567.274 844.376 563C845.352 561.64 846.4 560.229 847.5 558.816C853.033 551.703 859.846 544.531 865 543.5Z" fill="#C0AC47"/>
<path d="M777 540C768.431 533.879 759.901 535.173 754.5 537.612C752.5 543.074 752.6 555.1 769 559.5C785.4 563.9 788.133 554 787.45 548.5C785.58 546.216 782.475 543.911 777 540Z" fill="#C0AC47"/>
<path d="M797 606C792.6 601.6 793.833 598.5 795 597.5C801 607.1 822.5 602.833 832.5 599.5C835.3 601.1 834.667 602.833 834 603.5C827.667 610.667 814.1 624.5 810.5 622.5C806 620 802.5 611.5 797 606Z" fill="#030305"/>
<path d="M796 597C794.4 597.8 795.333 599.667 796 600.5C799 605 802.5 605.5 806.5 607.5C809.7 609.1 807.167 611.833 805.5 613C806.167 613.833 807.8 615.9 809 617.5C810.2 619.1 813.5 618.833 815 618.5L818.5 615.5C817.667 612.833 816.5 608.1 818.5 610.5C820.5 612.9 825.667 606.5 828 603C828.5 603.667 830 604.3 832 601.5C834.5 598 827 596 824 598.5C821.6 600.5 817.667 601.333 816 601.5H810.5C808.1 601.5 804.167 598.5 802.5 597C801 596.667 797.6 596.2 796 597Z" fill="#732B1C"/>
<path d="M844 563.5L847.5 559L853.5 565C853.667 565 853.3 565.6 850.5 568C847.7 570.4 846 569 845.5 568L844 563.5Z" fill="#000B1B"/>
<path d="M881 560.5C885 554.9 876.667 546.5 872 543C880.8 544.2 885.667 547.833 887 549.5C887.4 552.7 883.167 558.167 881 560.5Z" fill="#E0B87B"/>
<circle cx="864" cy="553" r="7" fill="#000B1B"/>
<path d="M864.5 569C860.1 569.4 855 557.833 853 552L847 559L856 567C859.6 569.4 863.167 569.333 864.5 569Z" fill="#E0B87B"/>
<path d="M844 563.5C844 563.5 848.516 557.516 849 557C856.5 549 863 536 885 547.5C863.5 541 851 562.5 851 562.5L853.5 565C853.333 565.333 852.5 566.5 850.5 568.5C846.5 571.7 844.5 566.5 844 563.5Z" fill="#030305" fill-opacity="0.6"/>
<path d="M846.5 564C846.9 562.8 847.667 562.833 848 563C848.167 563.167 848.8 563.7 850 564.5C851.5 565.5 850 566.5 849 567.5C848.2 568.3 847.333 567.5 847 567C846.667 566.5 846.1 565.2 846.5 564Z" fill="#CECED0" fill-opacity="0.85"/>
<path d="M862 556C860.8 558 858.5 556.5 858.5 555.5C858.5 550 863.5 548.5 865.5 549C867.5 549.5 865.5 552 864.5 552C863.5 552 863.5 553.5 862 556Z" fill="#CECED0" fill-opacity="0.85"/>
<path d="M869.5 554C869.5 552.8 867.833 552.167 867 552C865.671 551.309 867 548.5 869 549C869.97 549.242 872.5 551 872.5 553C872.5 555 869.5 555.5 869.5 554Z" fill="#CECED0" fill-opacity="0.85"/>
<circle cx="771" cy="546" r="7" fill="#000B1B"/>
<path d="M787.5 549C787.9 551.4 786.333 555 785.5 556.5C787.1 556.9 789.5 556 790.5 555.5C789.7 551.1 788.167 549.333 787.5 549Z" fill="#000B1B"/>
<path d="M760 555.5C755.6 545.1 760.167 537.833 763 535.5C761 535.1 756.5 536.667 754.5 537.5C751.3 546.7 756.833 553.333 760 555.5Z" fill="#E0B87B"/>
<path d="M775.5 558.5C773.5 558.1 774 556.667 774.5 556C778.9 556 780.333 553 780.5 551.5C780.667 551.167 781 550.7 781 551.5C781 552.3 782 552.167 782.5 552C782.833 551.833 783.5 551.7 783.5 552.5C783.5 555 778 559 775.5 558.5Z" fill="#E0B87B"/>
<path d="M787 553C775.8 538.2 760 540.833 753.5 544C753.1 540.8 754 538.667 754.5 538C762.1 533.2 771.333 536.333 775 538.5C779 541.5 787.1 547.7 787.5 548.5C787.9 549.3 787.333 551.833 787 553Z" fill="#000B1B" fill-opacity="0.65"/>
<path d="M765 547.5C763 548.7 762 547 762 546C762 545 762 542 764 540.5C765.6 539.3 766.667 540 767 540.5C767.333 541 767.6 542.1 766 542.5C764.4 542.9 764.667 544.667 765 545.5C765.333 546 765.8 547.1 765 547.5Z" fill="#CECED0" fill-opacity="0.85"/>
<path d="M775 542.5C774 542 773.386 542.228 773 543C772 545 774.5 545 774.5 548.5C774.5 549.942 777.5 550.5 777.5 547C777.5 546.167 776.6 543.3 775 542.5Z" fill="#CECED0" fill-opacity="0.85"/>
<path d="M789 554.5C788.6 555.3 787.833 554.833 787.5 554.5C787 554 787.5 553.5 788 553C788.4 552.6 788.833 552.833 789 553C789.167 553.167 789.4 553.7 789 554.5Z" fill="#CECED0" fill-opacity="0.85"/>
<g filter="url(#filter10_f_93_54)">
<path d="M1093.48 842.678C1154.5 757.138 1053.9 664.546 993 627.5C1003.4 627.5 1026 632.167 1036 634.5C1171.78 703.514 1147.59 807.814 1113.82 859.845C1110.16 865.479 1102.66 866.819 1096.94 863.292C1089.96 858.983 1088.72 849.358 1093.48 842.678Z" fill="#665038"/>
</g>
<g filter="url(#filter11_f_93_54)">
<path d="M1050.29 797.448C1054.05 819.115 1037.8 869.191 1029 892H1048C1067.22 845.645 1070.79 811.629 1070.16 798.232C1070.09 796.785 1069.42 795.454 1068.36 794.463L1061.32 787.86C1058.01 784.757 1052.58 786.308 1051.42 790.691L1050.38 794.559C1050.13 795.505 1050.12 796.483 1050.29 797.448Z" fill="#665038"/>
</g>
<g filter="url(#filter12_f_93_54)">
<path d="M992.5 757.5C986.1 757.9 979.5 744.333 977 737.5L966.5 662.5L931 626L923 623L918.13 653.937C915.821 668.607 919.894 683.564 929.323 695.038L945.823 715.116C952.454 723.185 956.501 733.063 957.438 743.465L959.899 770.779C960.623 778.816 963.207 786.574 967.448 793.439L976.884 808.716C980.265 814.191 982.601 820.246 983.773 826.573L989.5 857.5L993.764 871.003C994.876 874.524 994.552 878.342 992.863 881.627C989.342 888.474 992.291 897.509 999.953 896.752C1006.27 896.128 1012.69 892.385 1016 882C1022 863.2 1010.83 834.5 1004.5 822.5C1005.7 823.7 1009.33 822.333 1011 821.5C1006.6 821.5 1001.83 814.5 1000 811L994.5 798.5C996.5 799.3 998.667 797.5 999.5 796.5C995.5 796.5 993.167 793.833 992.5 792.5L988.5 786L993.5 785L986.5 778.5C990.1 780.1 992 777.833 992.5 776.5C989.3 776.5 986.833 769.833 986 766.5L982 757.5C984.4 759.1 990 758.167 992.5 757.5Z" fill="#665038"/>
</g>
<g filter="url(#filter13_f_93_54)">
<path d="M1017.9 738.594L993 660.076C992.679 659.063 992.751 657.966 993.204 657.004C994.627 653.98 998.832 653.73 1000.6 656.564L1050.2 735.917C1051.03 737.252 1051.31 738.861 1050.97 740.398L1048.47 751.649C1047.53 755.846 1042.62 757.729 1039.12 755.23L1020.13 741.662C1019.07 740.908 1018.29 739.831 1017.9 738.594Z" fill="#665038"/>
</g>
<g filter="url(#filter14_f_93_54)">
<path d="M923 899C919.016 883.062 910.49 851.519 906.953 847.39C906.8 847.257 906.648 847.126 906.5 847C906.64 847.07 906.791 847.201 906.953 847.39C916.109 855.364 934.14 876.183 936.5 899H923Z" fill="#675139"/>
</g>
<g filter="url(#filter15_f_93_54)">
<path d="M869.5 875C876.3 864.6 859 845 849.5 836.5C887.1 839.7 883.167 870.167 876.5 885L869.5 875Z" fill="#675139"/>
</g>
<g filter="url(#filter16_f_93_54)">
<path d="M954.5 870C961.3 856.4 941 825 930 811C972 829.4 972.167 863.333 967 878C968.2 872 964.5 866.167 962.5 864L954.5 870Z" fill="#675139"/>
</g>
<g filter="url(#filter17_f_93_54)">
<path d="M795.508 686.888C816.153 672.721 866.372 647.871 907.438 630.241C907.812 630.081 908.21 630 908.616 630H910.025C912.659 630 914.015 633.151 912.203 635.063L908.39 639.088C908.132 639.36 907.818 639.585 907.479 639.745C858.263 663.01 843.192 694.448 796.877 691.643C794.262 691.485 793.348 688.37 795.508 686.888Z" fill="#675139"/>
<path d="M760.795 686.39L774.403 704.401C775.787 706.233 774.675 708.844 772.379 708.883C741.878 709.409 711.183 679.432 698.327 662.598C697.792 661.897 697.606 661.002 697.852 660.155C700.34 651.587 707.058 644.497 712.41 640.225C714.284 638.728 717.111 640.237 717.881 642.508C722.814 657.062 746.909 676.625 760.107 685.73C760.373 685.913 760.6 686.132 760.795 686.39Z" fill="#675139"/>
</g>
<g filter="url(#filter18_f_93_54)">
<path d="M792.477 725.244L789.82 734.099C789.198 736.173 790.977 738.193 793.124 737.905C889.222 724.98 908.26 687.607 905.51 665.409C905.193 662.854 901.981 662.478 900.525 664.602C876.949 699.012 822.056 717.617 794.764 723.153C793.668 723.375 792.798 724.172 792.477 725.244Z" fill="#675139"/>
</g>
<g filter="url(#filter19_f_93_54)">
<path d="M693.485 674.069C692.912 678.273 742.517 715.32 769.891 735.241C771.472 736.392 771.391 738.626 769.453 738.891C755.369 740.821 716.829 719.4 696.659 706.731C695.913 706.262 695.43 705.497 695.307 704.625L692.074 681.526C692.025 681.178 692.038 680.824 692.111 680.481L693.485 674.069C693.489 674.045 693.493 674.022 693.5 674L693.485 674.069Z" fill="#675139"/>
</g>
<g filter="url(#filter20_f_93_54)">
<path d="M905 742.5C773.8 796.5 718.333 775 707 757.5V769C730.2 847.8 851.667 788.833 909.5 749.5L905 742.5Z" fill="#675139"/>
</g>
<g filter="url(#filter21_f_93_54)">
<path d="M1221 861C1234.6 827.8 1206.33 769.833 1190.5 745L1177.5 722C1175.5 714.5 1180.8 709.8 1218 751C1255.2 792.2 1240.83 852.5 1229 877.5L1221 861Z" fill="#675139"/>
</g>
<g filter="url(#filter22_f_93_54)">
<path d="M1202 925.5C1206.8 916.7 1202 906.5 1199 902.5C1201.8 889.3 1210.83 902.333 1215 910.5C1218.83 907.167 1226.6 901.9 1227 907.5C1227.5 914.5 1218 923.5 1215 928.5C1212 933.5 1196 936.5 1202 925.5Z" fill="#68523A"/>
</g>
<g filter="url(#filter23_i_93_54)">
<path d="M713 470C723.4 462 715.833 451.833 710.5 447.5L719.5 440C724 437 740.7 430.3 771.5 427.5C773.51 438.016 779.711 457.859 789.222 459.069C789.984 459.023 790.744 459 791.5 459C790.721 459.144 789.961 459.163 789.222 459.069C769.407 460.248 747.666 476.315 739 484.5L735 482.5L732 481C732.833 483.667 734 488.4 732 486C729.5 483 719 482 723 484.5C726.2 486.5 726.333 492 726 494.5C717.333 489.667 702.6 478 713 470Z" fill="#140707"/>
</g>
<g filter="url(#filter24_i_93_54)">
<path d="M713 470C723.4 462 715.833 451.833 710.5 447.5L719.5 440C721.908 438.394 727.811 435.729 737.5 433.169C751.9 441.704 756.5 461.883 757 470.906C749.294 475.661 742.854 480.86 739 484.5L735 482.5L732 481C732.833 483.667 734 488.4 732 486C729.5 483 719 482 723 484.5C726.2 486.5 726.333 492 726 494.5C717.333 489.667 702.6 478 713 470Z" fill="#D1A473"/>
</g>
<g filter="url(#filter25_i_93_54)">
<path d="M942.576 497.5C945.576 493.167 953.276 479.6 960.076 460C963.097 451.292 963.861 443.248 963.5 436.5C959.424 422 953.46 423.649 947.5 424.5C937 426 907 439.5 903.5 446C900.7 451.2 885.333 460.833 878 465C887.167 469 908.276 486.3 927.076 533.5C945.076 539 941.076 514 940.576 508C940.176 503.2 941.742 499 942.576 497.5Z" fill="#140707"/>
</g>
<g filter="url(#filter26_i_93_54)">
<path d="M903.5 446C900.7 451.2 885.333 460.833 878 465C882.986 467.176 895.5 475.5 909.5 498C924.579 490 946.7 454.5 947.5 424.5C937 426 907 439.5 903.5 446Z" fill="#D1A473"/>
</g>
<g filter="url(#filter27_f_93_54)">
<path d="M781.5 531C778.3 514.2 753.167 498.333 741 492.5L747.5 483C753.5 482.833 768.7 485 781.5 495C794.3 505 792.5 525.833 790 535L781.5 531Z" fill="#675139"/>
</g>
<g filter="url(#filter28_f_93_54)">
<path d="M861.399 534.749C867.715 518.856 895.394 508.024 908.444 504.595L903.856 494.038C897.995 492.74 882.66 491.996 868.201 499.398C853.742 506.799 851.573 527.597 852.296 537.071L861.399 534.749Z" fill="#675139"/>
</g>
<g filter="url(#filter29_f_93_54)">
<path d="M813.604 500.676L796.88 480.966C792.915 476.293 795.463 469.079 801.484 467.932L804.059 467.441C807.079 466.866 810.162 468.072 811.99 470.545L819.659 480.921C822.83 485.211 829.23 485.255 832.459 481.011L840.034 471.055C842.107 468.331 845.683 467.228 848.93 468.31L849.22 468.407C854.862 470.287 856.552 477.448 852.347 481.653L832.843 501.157C831.343 502.657 829.308 503.5 827.186 503.5H819.704C817.354 503.5 815.124 502.467 813.604 500.676Z" fill="#68523A"/>
</g>
<g filter="url(#filter30_f_93_54)">
<path d="M853.045 597.432L902.471 570.56C903.106 570.214 903.879 570.239 904.492 570.624L913.672 576.404C915.056 577.276 914.865 579.35 913.346 579.955L870.013 597.208C868.106 597.967 868.443 600.762 870.476 601.047L907.336 606.207C909.21 606.469 909.705 608.947 908.076 609.91L902.593 613.15C902.209 613.377 901.76 613.469 901.317 613.411L853.742 607.226C852.746 607.097 852 606.248 852 605.243V599.189C852 598.456 852.401 597.782 853.045 597.432Z" fill="#68523A"/>
</g>
<g filter="url(#filter31_f_93_54)">
<path d="M763.711 582.402L719.274 547.899C718.703 547.455 717.936 547.355 717.269 547.636L707.276 551.858C705.77 552.494 705.622 554.572 707.024 555.414L747.001 579.44C748.76 580.497 747.977 583.201 745.925 583.154L708.715 582.293C706.823 582.249 705.934 584.614 707.387 585.827L712.275 589.91C712.617 590.196 713.045 590.36 713.491 590.374L761.441 591.955C762.445 591.988 763.318 591.271 763.48 590.279L764.458 584.305C764.576 583.581 764.29 582.851 763.711 582.402Z" fill="#68523A"/>
</g>
<g filter="url(#filter32_f_93_54)">
<path d="M800 538.5L805.5 530.5C811.5 532.5 818.333 545 821 551C822.2 543.8 829.833 535.667 833.5 532.5L839 543C830.2 541.8 824.333 556.167 822.5 563.5H813.5C815.5 552.7 805.333 542.333 800 538.5Z" fill="#68523A"/>
</g>
<g filter="url(#filter33_f_93_54)">
<ellipse cx="839.55" cy="517.357" rx="6" ry="9" transform="rotate(-3.58124 839.55 517.357)" fill="#69533B"/>
</g>
<g filter="url(#filter34_f_93_54)">
<ellipse cx="803.987" cy="516.178" rx="6" ry="9" transform="rotate(13.9064 803.987 516.178)" fill="#69533B"/>
</g>
<g filter="url(#filter35_f_93_54)">
<ellipse cx="725" cy="520" rx="9" ry="14" transform="rotate(-50.2494 725 520)" fill="#68523A"/>
</g>
<g filter="url(#filter36_f_93_54)">
<ellipse cx="912.678" cy="537.883" rx="9.5" ry="12.5" transform="rotate(55.8054 912.678 537.883)" fill="#68523A"/>
</g>
<g filter="url(#filter37_f_93_54)">
<path d="M762 768.5C773.2 776.9 760.667 881 753 932H585L605.5 429L971 376C1060.17 455.833 1469.5 885 1277 946C1236 768.5 1147 757.169 1102.5 747.5C1038.83 733.667 910.6 700.5 907 678.5C903.4 656.5 868.167 641 851 636C849.667 632.5 844.3 625.9 833.5 627.5C822.7 629.1 821.333 620.167 822 615.5L830.5 607.5C841.167 597.333 852.3 575.6 811.5 570C760.5 563 749.5 600 754.5 614C758.5 625.2 769.833 631.333 775 633C771.8 639 780.667 643.833 785.5 645.5C787.1 649.9 790.167 652 791.5 652.5L792.5 651.5C793.7 653.1 797 654.5 798.5 655V653.5L802.5 655.5L766.5 747.5H738C741.333 751 750.8 760.1 762 768.5Z" fill="#030305" fill-opacity="0.19"/>
</g>
<g filter="url(#filter38_f_93_54)">
<path d="M873.5 858.5C849.1 860.5 852.667 894.333 857.5 911L1099 930L1137 895C1087 859.5 1127.5 822.5 1127.5 807C1127.5 794.6 1116.17 790.167 1110.5 789.5L999.5 796C998.7 798 995.5 799.167 994 799.5L999.5 810C1003.9 819.2 1008.67 821.167 1010.5 821C1009.7 823 1006.17 822.833 1004.5 822.5L1010.5 834.5C1006 872.5 904 856 873.5 858.5Z" fill="#030305" fill-opacity="0.19"/>
</g>
<path d="M763.5 882C759.5 894.8 768.833 900.667 774 902C767.5 868.5 799.5 855 811.5 850.5C821.1 846.9 816.167 853 812.5 856.5C807.5 861.167 795.9 874.1 789.5 888.5C783.1 902.9 792.167 907.5 797.5 908C790.7 873.2 818.333 854.167 833 849C838.667 847.333 846.6 846.8 833 858C819.4 869.2 820 893.333 822 904C822 910 832.333 909.833 837.5 909C822.7 881.8 843.667 857.667 856 849L963.5 815C955.1 811.4 958.333 804.167 961 801C955 797.8 944.833 801.333 940.5 803.5C940.9 802.7 941 800.167 941 799C932.2 807.4 904.667 808.5 892 808L861.5 774L871 732.5C867 720.833 856.6 694.8 847 684C835 670.5 835 737.5 835 751.5C835 762.7 818.667 780.833 810.5 788.5C824.5 789.7 832.667 802.333 835 808.5L815 835C803 839.8 787.667 850.333 781.5 855C777.5 858.833 768.3 869.6 763.5 882Z" fill="#FFB767" fill-opacity="0.55"/>
</g>
<path d="M169.934 883.227C169.345 880.797 164.05 881.876 165.193 884.891C166.036 887.116 170.17 884.199 170.995 887.6C171.584 890.029 166.239 891.326 165.65 888.896M171.775 880.208L173.896 888.954C173.385 886.849 172.482 883.123 174.911 882.534C177.146 881.992 177.798 885.95 178.269 887.894M179.52 882.445C179.893 880.82 183.018 879.896 183.525 881.989M184.586 886.362C184.446 885.787 184.314 885.241 184.191 884.733M183.525 881.989C183.566 882.157 183.611 882.343 183.66 882.545M183.525 881.989L183.66 882.545M183.66 882.545C183.247 882.963 182.303 883.314 180.963 884.153C179.74 884.92 180.581 886.819 182.038 886.465C183.982 885.994 184.283 885.114 184.191 884.733M183.66 882.545C183.806 883.146 183.986 883.888 184.191 884.733M185.969 879.338L186.441 881.282M187.501 885.655L186.441 881.282M186.441 881.282C186.087 879.824 189.774 878.054 190.328 880.339C191.082 883.449 191.349 884.55 191.389 884.712M198.324 881.487C198.074 882.576 195.722 884.007 193.951 882.547C193.308 882.017 193.111 881.207 192.993 880.721M192.993 880.721C192.64 879.264 193.605 878.137 194.348 877.821C195.28 877.423 197.287 877.211 197.853 879.543L192.993 880.721ZM204.508 881.53L202.505 873.27L207.592 880.268L208.021 880.164L209.794 871.502L211.797 879.763M214.713 879.056L213.181 872.739M212.945 871.767L212.592 870.309M216.096 872.032L216.568 873.976M216.568 873.976L217.628 878.349M216.568 873.976C216.214 872.518 219.901 870.748 220.455 873.033L221.515 877.406M228.804 875.638L228.274 873.452M226.801 867.378L227.744 871.265M227.744 871.265C226.3 869.557 223.871 870.146 223.253 871.84C222.734 873.259 223.709 875.845 225.285 875.977C226.173 876.105 228.015 875.778 228.274 873.452M227.744 871.265L228.274 873.452M230.188 868.615L230.659 870.558M231.72 874.931L230.659 870.558M230.659 870.558C230.703 870.033 231.18 868.888 232.735 868.511M239.627 871.47C239.377 872.56 237.025 873.991 235.254 872.531C234.61 872.001 234.414 871.191 234.296 870.705M234.296 870.705C233.943 869.247 234.908 868.121 235.651 867.804C236.583 867.407 238.59 867.194 239.155 869.527L234.296 870.705ZM241.231 867.48C241.605 865.855 244.729 864.93 245.237 867.023L245.372 867.579M245.372 867.579C244.958 867.998 244.015 868.348 242.675 869.188C241.451 869.954 242.292 871.853 243.75 871.5C245.693 871.028 245.995 870.149 245.902 869.768M245.372 867.579L245.902 869.768M245.902 869.768L246.297 871.396M251.568 863.43L252.629 867.803M253.1 869.746L252.629 867.803M247.681 864.372L248.741 868.746C248.859 869.231 249.386 870.133 250.553 869.85C252.01 869.496 252.378 868.892 252.629 867.803" stroke="#1A298C"/>
<path d="M874.5 361.5C871.667 355.167 869.5 342.5 883.5 342.5C890.7 342.5 885.5 351.167 882 355.5M843 366.5C852 362.5 865.5 352.1 847.5 342.5C829.5 332.9 833.333 340.833 837.5 346C839 348.833 838.6 353.3 825 348.5M873 316.5C883.333 320.333 900.9 333.9 888.5 357.5C876.1 381.1 862.333 387.333 857 387.5C849.5 387 831 381.1 817 361.5C803 341.9 818.833 350.667 828.5 357.5" stroke="#030305"/>
<path d="M810.5 318.5C809.5 317.5 806.7 315.3 803.5 314.5M813.5 315.5C812.5 314.333 810.1 311.9 808.5 311.5M833.5 306.5C832.667 305.333 830.6 302.9 829 302.5M888.5 328.5C884.5 317.5 873 292.8 859 282C857.833 281.5 855.872 278.675 856.5 277C858 273 857 247.5 854 242M845 180.5C851.8 192.9 858.833 218.333 861.5 229.5L859 228C860.2 229.6 859.5 233 859 234.5C857.841 232.646 856.668 231.063 855.5 229.717M855.5 229.717C848.601 221.771 841.851 222.075 839 223.5C833.169 236.134 837 250 841.929 251.5C849.5 253 855.452 236.478 855.5 229.717Z" stroke="#030305"/>
<path d="M740 422.361C747.825 423.524 749.009 423.706 754 424C766.5 424 806.7 414.4 823.5 410C840.3 405.6 849.833 392.833 852.5 387C851 389.5 847.3 395.3 844.5 398.5C841.7 401.7 846.667 407.5 849.5 410L874 427.5C876.833 429.5 883.2 431.5 886 423.5C889.5 413.5 894.5 372.5 888.5 358M740 422.361C725.616 420.222 709.068 416.459 700 410.5C686 401.3 680.833 404.333 680 407C678.333 411.833 678.4 423.2 692 430C705.6 436.8 717.333 434.833 721.5 433C726.045 431 734.8 421.657 740 422.361Z" stroke="#030305"/>
<path d="M859.5 128C843.1 143.2 820.667 126.333 811.5 116C805.167 106.333 780.4 86 732 82C683.6 78 675.167 74.3333 677 73C658.667 71.6666 612.8 76.3 576 105.5C552.5 123 520 105 517.5 89M867 125C860 132.5 848.1 147 856.5 145C864.9 143 868.667 142.167 869.5 142C864.667 145.833 857.9 155 869.5 161C881.1 167 896.333 172.5 902.5 174.5M880.5 174.5C879.833 189.167 881.2 222.8 892 240C905.5 261.5 924.5 395 917 423M513 87C509.4 94.6 518.5 108.5 523.5 114.5C516.5 109.667 502.1 98.7 500.5 93.5M515.5 116C508.667 115.833 493.3 113.5 486.5 105.5C479.7 97.5 481.333 105.5 483 110.5C485.167 115.167 495.6 126.6 520 135C508.5 136.833 483.8 139.4 477 135C478.5 137.667 484.1 143 494.5 143C488.667 145.667 474.4 150.2 464 147M472 155.5C412.667 181.167 289.2 248.2 270 311C250.8 373.8 82.5 385.5 0 383.5M590 164C585.333 167.167 576 179.4 576 203C576 232.5 576.5 293.5 586 318.5C593.6 338.5 589.167 364.167 586 374.5C578.5 382.333 563.5 400.4 563.5 410C563.5 419.6 547.5 428 539.5 431C535.167 430.5 524.2 427.3 515 418.5C505.8 409.7 495.5 375.167 491.5 359M486 345L482.5 359M474 342.5C473 344 471.6 348.2 474 353M466 339.5L463.5 345C458 339.5 448.9 324.7 456.5 309.5C464.1 294.3 477 244.5 482.5 221.5L472 229.5M477 219.5L501 171C493.333 176.833 476.2 187 469 181" stroke="#030305"/>
<path d="M609.5 221C622.202 220.253 647.981 217.469 659.23 212M659.23 212C660.528 211.369 661.632 210.703 662.5 210C673 201.5 712.5 187 720.5 221C709.833 226 686.053 233.708 675.5 225.5C666.5 218.5 664 213.5 659.23 212ZM699 195.5C705.667 196.667 719.3 201.2 720.5 210M734 210C737.833 207.167 744.9 200.3 742.5 195.5M730.5 203C732.167 200.833 735.2 195.5 734 191.5" stroke="#030305"/>
<path d="M816.5 242.5C816.333 240.833 816.3 237.5 817.5 237.5M812.5 236C811.5 233.5 810.3 227.8 813.5 225M805 219C804.167 216.5 803.5 210.5 807.5 206.5" stroke="#030305"/>
<path d="M451 533C460.667 551.333 484.9 590.3 504.5 599.5C512.667 591.167 531.4 574.6 541 575C530 582.333 508.7 601.6 511.5 620C512.833 618 516 613.8 518 613M518 617C515.833 621.333 511.5 631.5 511.5 637.5C513.833 633.333 518.9 624.5 520.5 622.5M516.5 632.5C515.5 644.5 515.6 671 524 681C524.167 670.5 528.2 647.5 543 639.5C540.973 646.833 535.735 662.4 531 666C536.5 664.833 548.4 660.5 552 652.5C552.333 662.167 550.5 683.3 540.5 690.5C557 688.167 593.6 675.1 608 641.5C622.4 607.9 630.333 630.5 632.5 646M636.5 637.5C639.667 629.667 643.3 612.2 632.5 605C619 596 662.5 600.5 668 613M621.5 377.5C631.167 379.5 650.5 389 650.5 411C650.5 433 673.167 445.5 684.5 449M683.5 455.5C690 455.833 705.4 453.9 715 443.5C724.6 433.1 763.333 427.833 781.5 426.5C803.333 425.667 850.1 425.3 862.5 430.5C878 437 879.5 431.5 877 429" stroke="#030305"/>
<path d="M691 672.5C695 698.833 700.6 756.2 691 775M683.5 769.5C679.5 800.5 653.1 847.2 659.5 858C657.833 856.833 654.4 854 654 852M652 854.5C652.5 857 654.1 862.2 656.5 863C654 863 648.7 862 647.5 858C648 861.167 648.7 867.9 647.5 869.5M644.5 867.5L642 859.5C624.167 874.833 577.3 907.4 532.5 915C520.5 917 513.5 927.833 511.5 933C496 967 439.5 980.5 470 904C463.621 920 456.7 955.5 441.5 955.5C427.215 955.5 410 955.5 404.5 937.5M435 872.5C426 879.5 407.5 896 404.5 917C403.756 922.211 402.779 933.999 404.5 937.5M404.5 937.5C385 947.5 371 919.5 375 904.5M410 867C404 869 400.5 870.912 397.5 872.5C391.504 875.674 386.486 881.5 385 886.5C382.395 895.269 376.733 898 375 904.5M530.5 775C520.667 778.5 497 787.1 481 793.5C465 799.9 446.667 816.167 439.5 823.5C430.167 831.667 406.2 849.5 385 855.5C358.5 863 345 880.5 364.5 898C370 898 374.233 905.333 375 904.5" stroke="#030305"/>
<path d="M241 682C245.333 687.5 272.5 666.5 272.5 646.5M476.5 635C487 641 483 671.5 476.5 690.5C471.667 684.666 467.4 656.8 459 660M426 644C429.167 646.333 435.7 652.8 436.5 660M241 859C207.667 870.666 135.7 890 114.5 874C93.3001 858 110 861.666 121 865.5C126 866.666 135.3 867 132.5 859M103 874C76.8401 876.632 22.6147 880.109 0.832968 867.5C0.727359 867.439 0.5 867 0 867" stroke="#030305"/>
<path d="M257.5 830L253.5 913.5C255.833 917.167 259.1 925.4 253.5 929C256.167 928.833 261.5 927.6 261.5 924C263.167 935.667 253.5 945 253.5 960" stroke="#030305"/>
<path d="M394.5 852.5C393.5 819.833 394.1 758.4 404.5 774C401.333 765 396.2 744.2 401 733C401.167 697.333 405.3 631.6 420.5 654" stroke="#030305"/>
<path d="M703.5 451.5C696.167 463.833 685.9 490.7 703.5 499.5C703.5 501.167 702.3 504.3 697.5 503.5M698.5 510C696.167 511.333 690.8 513.8 688 513M710.5 447.5C715.833 451.833 723.4 462 713 470C702.6 478 717.333 489.667 726 494.5C726.333 492 726.2 486.5 723 484.5C719 482 729.5 483 732 486C734 488.4 732.833 483.667 732 481M739 484.5L735 482.5M771.5 427.5C773.667 438.833 780.7 461 791.5 459C802.3 457 813.333 450.833 817.5 448M820 450.5C820.833 452.333 823.1 455.2 825.5 452M828.5 453.5C833.833 457.667 847 464.6 857 459C869.5 452 912.5 419 935.5 418C953.9 417.2 960.167 419.667 961 421C962.76 424.149 964.972 430.561 965.424 439M929 536C947 541.5 943 516.5 942.5 510.5C942.1 505.7 943.667 501.5 944.5 500C947.5 495.667 955.2 482.1 962 462.5C965.021 453.792 965.786 445.748 965.424 439M929 541.5L934 542.5M878 465C885.333 460.833 900.7 451.2 903.5 446C907 439.5 937 426 947.5 424.5C953.46 423.649 961.348 424.5 965.424 439" stroke="#030305"/>
<path d="M930 546.5C931.333 548.167 934.8 551.3 938 550.5" stroke="#030305"/>
<path d="M934.5 554.5C936.5 556.667 941.2 560.9 944 560.5L937 562.5L945.5 564C942.166 565.5 935.8 568.9 937 570.5M936 581L940.5 578.5M936 587.5C934.5 593.333 930.2 606.7 925 613.5C919.8 620.3 922.166 622.667 924 623M840 569.5C841.139 567.678 842.641 565.42 844.376 563M847.5 558.816C853.033 551.703 859.846 544.531 865 543.5C875 541.5 885 546.5 887 549.5C888.805 552.207 871.883 579.853 853.5 565.161M847.5 558.816C846.4 560.229 845.352 561.64 844.376 563M847.5 558.816C849.503 561.484 851.51 563.571 853.5 565.161M844.376 563C844.418 567.274 846.3 573.69 853.5 565.161M796 600.5C795.333 599.667 794.4 597.8 796 597C797.6 596.2 801 596.667 802.5 597C804.167 598.5 808.1 601.5 810.5 601.5C812.9 601.5 815.167 601.5 816 601.5C817.667 601.333 821.6 600.5 824 598.5C827 596 834.5 598 832 601.5C830 604.3 828.5 603.667 828 603C825.667 606.5 820.5 612.9 818.5 610.5C816.5 608.1 817.667 612.833 818.5 615.5L815 618.5C813.5 618.833 810.2 619.1 809 617.5C807.8 615.9 806.167 613.833 805.5 613C807.167 611.833 809.7 609.1 806.5 607.5C802.5 605.5 799 605 796 600.5Z" stroke="#030305"/>
<path d="M750.5 540C751.479 539.217 752.842 538.36 754.5 537.612M791.5 565C790.282 555.562 790.362 552.056 787.45 548.5M754.5 537.612C759.901 535.173 768.431 533.879 777 540C782.475 543.911 785.58 546.216 787.45 548.5M754.5 537.612C752.5 543.074 752.6 555.1 769 559.5C785.4 563.9 788.133 554 787.45 548.5" stroke="#030305"/>
<path d="M785.5 556.5C786.333 556.667 788.4 556.7 790 555.5M811.5 622C811.083 622.662 810.577 623.421 810 624.229M754 613.5C759.5 625.5 767 629.5 772 631.5C783.32 636.028 792.5 634.833 797 631.5L796.5 633.5C800.935 635.206 806.655 628.91 810 624.229M810 624.229C813 631.319 822.8 644.3 838 639.5M844.5 638L848 638.5M848.5 635.5L851.5 636.5C850.833 635.5 850 634.5 850.5 633.5" stroke="#030305"/>
<path d="M785.5 645.5C786.333 647.667 788.8 652.1 792 652.5L791.5 651C793 652.333 796.5 655 798.5 655V653.5C800.5 654.833 805.3 657 808.5 655L808 656.5C810.833 656.167 816.8 655 818 653L818.5 654.5C822.333 654 830.4 652.1 832 648.5" stroke="#030305"/>
<path d="M930 626C1019.17 620.5 1211.3 650.9 1266.5 816.5C1300.1 909.7 1281.5 925.327 1266.5 928.5C1257.83 930.333 1137.5 964.32 1137.5 920C1137.5 864 1187 897 1201 895C1215 893 1206.83 880.503 1205.5 881C1206.17 879.167 1206.2 875.3 1201 874.5C1195.8 873.7 1194.83 876.167 1195 877.5M1184.5 862.5L1180 867M1178.5 858C1176.83 857.167 1172.7 856 1169.5 858C1170.5 855.667 1171.9 850.8 1169.5 850C1167.5 850 1163.3 850.4 1162.5 852M1162.5 847.5C1163.17 845.333 1164.1 840.8 1162.5 840" stroke="#030305"/>
<path d="M1143 895.5C1109.17 893.5 1036.3 890.1 1015.5 892.5M977 737C979.667 744.5 986.5 759 992.5 757M986 766C986.667 769.5 988.9 776.5 992.5 776.5C991.833 778 989.6 780.4 986 778L994 785.5M991.5 791.5C992.833 793.5 996.3 797.2 999.5 796M999.5 810C1001.83 814.333 1007.4 822.6 1011 821C1010.17 822 1007.7 823.7 1004.5 822.5C1011 834.667 1022.3 863.9 1015.5 883.5C1010.7 897.1 999.167 898.167 994 897L865 901.5C852.167 906.167 825.7 913.6 822.5 906C822.31 905.548 822.134 905.046 821.974 904.5M833.5 858C821.595 864.667 818.76 893.559 821.974 904.5M821.974 904.5C813.326 907.962 795.355 912.197 789 903.23M813 856.5C802.5 866.833 782.8 890.3 788 901.5C788.29 902.125 788.625 902.7 789 903.23M789 903.23C777.5 903.486 756.4 899.4 764 881C771.6 862.6 783.167 852.667 788 850C795.667 844.667 813.6 833.8 824 833C837 832 844.5 820.5 843.5 818.5C844.833 819.5 847.8 821.2 849 820C850.2 818.8 849.5 817.167 849 816.5C850.667 817.5 854.1 818.7 854.5 815.5L862 816.5M870 813.5C873.833 812.5 881.8 810 883 808M891.5 808C905.333 808.167 934.6 806.6 941 799C941.167 800 941.1 802.4 939.5 804C942.167 802.5 949.5 799.5 954 799.5" stroke="#030305"/>
<path d="M644.5 872.5C640.333 880.333 638.7 896.1 665.5 896.5C670.061 896.5 672.875 895.225 674.5 893.317M674.5 851C670.1 854.6 671.206 872.5 674.5 879.5C676.272 883.266 677.721 889.536 674.5 893.317M674.5 893.317C680.608 897.35 692.218 902.88 698.709 899.5M700 852.5C702.5 862.167 706.5 884.2 702.5 895C701.687 897.195 700.364 898.638 698.709 899.5M698.709 899.5C709.207 902.407 729.781 905.354 735.664 896.5M732.5 848C737.5 854 740.5 877.5 737 893.317C736.735 894.517 736.28 895.573 735.664 896.5M735.664 896.5C737.321 895.466 739.175 893.959 740.969 892M730 823C732.333 827.167 738.3 838 743.5 848C754.377 869.114 748.139 884.173 740.969 892M702.5 816C699.167 814.167 692.3 809.9 691.5 807.5M691.5 814.5C689.167 812.333 684.5 807.2 684.5 804M740.969 892C745.146 893.333 755.6 895.6 764 894M690.5 528.5C689 530.5 685.1 534.9 681.5 536.5M690.5 553C689.5 555.167 686.7 559.3 683.5 558.5L690.5 561.5L685 566C687.5 566.833 692.5 569.9 692.5 575.5M694 579C693.833 580 692.9 582 690.5 582M697 586.5C698 588.667 699.4 593.3 697 594.5C694.6 595.7 696 595.667 697 595.5C700.833 598.833 707.7 606.5 704.5 610.5C701.3 614.5 721.167 626.833 731.5 632.5" stroke="#030305"/>
<path d="M1218.5 732.5C1272.99 718.271 1360.17 669.936 1382 610C1383.13 606.892 1377.5 591 1377.5 591C1382 595.5 1383.71 597.901 1383.76 591C1383.9 571.937 1376.41 551.942 1363.5 528.5C1304 420.5 1246 467.5 1252.5 504.5C1255.14 519.5 1261 547.611 1236 541.5C1218 537.1 1216.5 514 1215.5 503C1214.33 475.166 1229.5 429 1274.5 422.5C1333.03 414.046 1397.25 451.251 1434.5 564.5C1472 678.5 1323 755.5 1249.5 777.5" stroke="#030305"/>
<path d="M855.5 611.5C885.5 611.833 946.1 618.2 948.5 641M855.5 619.5C877.333 623.667 921.9 633.8 925.5 641M757.5 605C734.667 594.667 682.3 581.5 655.5 611.5M755.5 609C738.667 608.833 703 610.2 695 617M764 619.5C753.667 623.333 729.5 631.1 715.5 631.5C701.5 631.9 691.333 641.667 688 646.5M774 623.5C764.167 628.667 742.9 644.3 736.5 665.5M778 611.5C754.333 614 705.4 620.9 699 628.5M847 623.5C863.667 628.5 898.5 642 904.5 656M838 628.5C863.167 629.5 915.2 635.3 922 650.5M842 617C863.5 616.667 909.6 618.5 922 628.5" stroke="#CECED0"/>
</g>
<defs>
<filter id="filter0_f_93_54" x="-35" y="160.5" width="539.5" height="593.5" filterUnits="userSpaceOnUse" color-interpolation-filters="sRGB">
<feFlood flood-opacity="0" result="BackgroundImageFix"/>
<feBlend mode="normal" in="SourceGraphic" in2="BackgroundImageFix" result="shape"/>
<feGaussianBlur stdDeviation="2" result="effect1_foregroundBlur_93_54"/>
</filter>
<filter id="filter1_f_93_54" x="689" y="203" width="21" height="21" filterUnits="userSpaceOnUse" color-interpolation-filters="sRGB">
<feFlood flood-opacity="0" result="BackgroundImageFix"/>
<feBlend mode="normal" in="SourceGraphic" in2="BackgroundImageFix" result="shape"/>
<feGaussianBlur stdDeviation="2" result="effect1_foregroundBlur_93_54"/>
</filter>
<filter id="filter2_f_93_54" x="689" y="203" width="21" height="21" filterUnits="userSpaceOnUse" color-interpolation-filters="sRGB">
<feFlood flood-opacity="0" result="BackgroundImageFix"/>
<feBlend mode="normal" in="SourceGraphic" in2="BackgroundImageFix" result="shape"/>
<feGaussianBlur stdDeviation="2" result="effect1_foregroundBlur_93_54"/>
</filter>
<filter id="filter3_f_93_54" x="649.294" y="83.5" width="182.375" height="278.363" filterUnits="userSpaceOnUse" color-interpolation-filters="sRGB">
<feFlood flood-opacity="0" result="BackgroundImageFix"/>
<feBlend mode="normal" in="SourceGraphic" in2="BackgroundImageFix" result="shape"/>
<feGaussianBlur stdDeviation="2" result="effect1_foregroundBlur_93_54"/>
</filter>
<filter id="filter4_f_93_54" x="1248.5" y="727" width="46.5" height="52" filterUnits="userSpaceOnUse" color-interpolation-filters="sRGB">
<feFlood flood-opacity="0" result="BackgroundImageFix"/>
<feBlend mode="normal" in="SourceGraphic" in2="BackgroundImageFix" result="shape"/>
<feGaussianBlur stdDeviation="2" result="effect1_foregroundBlur_93_54"/>
</filter>
<filter id="filter5_f_93_54" x="1271.69" y="682.5" width="49.5225" height="57.5" filterUnits="userSpaceOnUse" color-interpolation-filters="sRGB">
<feFlood flood-opacity="0" result="BackgroundImageFix"/>
<feBlend mode="normal" in="SourceGraphic" in2="BackgroundImageFix" result="shape"/>
<feGaussianBlur stdDeviation="2" result="effect1_foregroundBlur_93_54"/>
</filter>
<filter id="filter6_f_93_54" x="1329.41" y="689.576" width="51.5859" height="56.4243" filterUnits="userSpaceOnUse" color-interpolation-filters="sRGB">
<feFlood flood-opacity="0" result="BackgroundImageFix"/>
<feBlend mode="normal" in="SourceGraphic" in2="BackgroundImageFix" result="shape"/>
<feGaussianBlur stdDeviation="2" result="effect1_foregroundBlur_93_54"/>
</filter>
<filter id="filter7_f_93_54" x="1318" y="627" width="95" height="75.5" filterUnits="userSpaceOnUse" color-interpolation-filters="sRGB">
<feFlood flood-opacity="0" result="BackgroundImageFix"/>
<feBlend mode="normal" in="SourceGraphic" in2="BackgroundImageFix" result="shape"/>
<feGaussianBlur stdDeviation="2" result="effect1_foregroundBlur_93_54"/>
</filter>
<filter id="filter8_f_93_54" x="1204" y="430.5" width="258.615" height="232.5" filterUnits="userSpaceOnUse" color-interpolation-filters="sRGB">
<feFlood flood-opacity="0" result="BackgroundImageFix"/>
<feBlend mode="normal" in="SourceGraphic" in2="BackgroundImageFix" result="shape"/>
<feGaussianBlur stdDeviation="2" result="effect1_foregroundBlur_93_54"/>
</filter>
<filter id="filter9_f_93_54" x="1188" y="352.5" width="337.5" height="564" filterUnits="userSpaceOnUse" color-interpolation-filters="sRGB">
<feFlood flood-opacity="0" result="BackgroundImageFix"/>
<feBlend mode="normal" in="SourceGraphic" in2="BackgroundImageFix" result="shape"/>
<feGaussianBlur stdDeviation="2" result="effect1_foregroundBlur_93_54"/>
</filter>
<filter id="filter10_f_93_54" x="989" y="623.5" width="155.163" height="245.737" filterUnits="userSpaceOnUse" color-interpolation-filters="sRGB">
<feFlood flood-opacity="0" result="BackgroundImageFix"/>
<feBlend mode="normal" in="SourceGraphic" in2="BackgroundImageFix" result="shape"/>
<feGaussianBlur stdDeviation="2" result="effect1_foregroundBlur_93_54"/>
</filter>
<filter id="filter11_f_93_54" x="1025" y="782.233" width="49.2266" height="113.767" filterUnits="userSpaceOnUse" color-interpolation-filters="sRGB">
<feFlood flood-opacity="0" result="BackgroundImageFix"/>
<feBlend mode="normal" in="SourceGraphic" in2="BackgroundImageFix" result="shape"/>
<feGaussianBlur stdDeviation="2" result="effect1_foregroundBlur_93_54"/>
</filter>
<filter id="filter12_f_93_54" x="913.498" y="619" width="108.219" height="281.797" filterUnits="userSpaceOnUse" color-interpolation-filters="sRGB">
<feFlood flood-opacity="0" result="BackgroundImageFix"/>
<feBlend mode="normal" in="SourceGraphic" in2="BackgroundImageFix" result="shape"/>
<feGaussianBlur stdDeviation="2" result="effect1_foregroundBlur_93_54"/>
</filter>
<filter id="filter13_f_93_54" x="988.802" y="650.58" width="66.3074" height="109.773" filterUnits="userSpaceOnUse" color-interpolation-filters="sRGB">
<feFlood flood-opacity="0" result="BackgroundImageFix"/>
<feBlend mode="normal" in="SourceGraphic" in2="BackgroundImageFix" result="shape"/>
<feGaussianBlur stdDeviation="2" result="effect1_foregroundBlur_93_54"/>
</filter>
<filter id="filter14_f_93_54" x="902.5" y="843" width="38" height="60" filterUnits="userSpaceOnUse" color-interpolation-filters="sRGB">
<feFlood flood-opacity="0" result="BackgroundImageFix"/>
<feBlend mode="normal" in="SourceGraphic" in2="BackgroundImageFix" result="shape"/>
<feGaussianBlur stdDeviation="2" result="effect1_foregroundBlur_93_54"/>
</filter>
<filter id="filter15_f_93_54" x="845.5" y="832.5" width="39.332" height="56.5" filterUnits="userSpaceOnUse" color-interpolation-filters="sRGB">
<feFlood flood-opacity="0" result="BackgroundImageFix"/>
<feBlend mode="normal" in="SourceGraphic" in2="BackgroundImageFix" result="shape"/>
<feGaussianBlur stdDeviation="2" result="effect1_foregroundBlur_93_54"/>
</filter>
<filter id="filter16_f_93_54" x="926" y="807" width="47.3071" height="75" filterUnits="userSpaceOnUse" color-interpolation-filters="sRGB">
<feFlood flood-opacity="0" result="BackgroundImageFix"/>
<feBlend mode="normal" in="SourceGraphic" in2="BackgroundImageFix" result="shape"/>
<feGaussianBlur stdDeviation="2" result="effect1_foregroundBlur_93_54"/>
</filter>
<filter id="filter17_f_93_54" x="693.745" y="626" width="223.286" height="86.8901" filterUnits="userSpaceOnUse" color-interpolation-filters="sRGB">
<feFlood flood-opacity="0" result="BackgroundImageFix"/>
<feBlend mode="normal" in="SourceGraphic" in2="BackgroundImageFix" result="shape"/>
<feGaussianBlur stdDeviation="2" result="effect1_foregroundBlur_93_54"/>
</filter>
<filter id="filter18_f_93_54" x="785.695" y="659.223" width="124.063" height="82.7094" filterUnits="userSpaceOnUse" color-interpolation-filters="sRGB">
<feFlood flood-opacity="0" result="BackgroundImageFix"/>
<feBlend mode="normal" in="SourceGraphic" in2="BackgroundImageFix" result="shape"/>
<feGaussianBlur stdDeviation="2" result="effect1_foregroundBlur_93_54"/>
</filter>
<filter id="filter19_f_93_54" x="688.045" y="670" width="86.9543" height="73.0131" filterUnits="userSpaceOnUse" color-interpolation-filters="sRGB">
<feFlood flood-opacity="0" result="BackgroundImageFix"/>
<feBlend mode="normal" in="SourceGraphic" in2="BackgroundImageFix" result="shape"/>
<feGaussianBlur stdDeviation="2" result="effect1_foregroundBlur_93_54"/>
</filter>
<filter id="filter20_f_93_54" x="703" y="738.5" width="210.5" height="73.384" filterUnits="userSpaceOnUse" color-interpolation-filters="sRGB">
<feFlood flood-opacity="0" result="BackgroundImageFix"/>
<feBlend mode="normal" in="SourceGraphic" in2="BackgroundImageFix" result="shape"/>
<feGaussianBlur stdDeviation="2" result="effect1_foregroundBlur_93_54"/>
</filter>
<filter id="filter21_f_93_54" x="1173.14" y="712.999" width="72.772" height="168.501" filterUnits="userSpaceOnUse" color-interpolation-filters="sRGB">
<feFlood flood-opacity="0" result="BackgroundImageFix"/>
<feBlend mode="normal" in="SourceGraphic" in2="BackgroundImageFix" result="shape"/>
<feGaussianBlur stdDeviation="2" result="effect1_foregroundBlur_93_54"/>
</filter>
<filter id="filter22_f_93_54" x="1195" y="892.86" width="36.019" height="44.1396" filterUnits="userSpaceOnUse" color-interpolation-filters="sRGB">
<feFlood flood-opacity="0" result="BackgroundImageFix"/>
<feBlend mode="normal" in="SourceGraphic" in2="BackgroundImageFix" result="shape"/>
<feGaussianBlur stdDeviation="2" result="effect1_foregroundBlur_93_54"/>
</filter>
<filter id="filter23_i_93_54" x="709.423" y="427.5" width="82.0771" height="71" filterUnits="userSpaceOnUse" color-interpolation-filters="sRGB">
<feFlood flood-opacity="0" result="BackgroundImageFix"/>
<feBlend mode="normal" in="SourceGraphic" in2="BackgroundImageFix" result="shape"/>
<feColorMatrix in="SourceAlpha" type="matrix" values="0 0 0 0 0 0 0 0 0 0 0 0 0 0 0 0 0 0 127 0" result="hardAlpha"/>
<feOffset dy="4"/>
<feGaussianBlur stdDeviation="2"/>
<feComposite in2="hardAlpha" operator="arithmetic" k2="-1" k3="1"/>
<feColorMatrix type="matrix" values="0 0 0 0 0 0 0 0 0 0 0 0 0 0 0 0 0 0 0.25 0"/>
<feBlend mode="normal" in2="shape" result="effect1_innerShadow_93_54"/>
</filter>
<filter id="filter24_i_93_54" x="709.423" y="433.169" width="47.5771" height="65.3312" filterUnits="userSpaceOnUse" color-interpolation-filters="sRGB">
<feFlood flood-opacity="0" result="BackgroundImageFix"/>
<feBlend mode="normal" in="SourceGraphic" in2="BackgroundImageFix" result="shape"/>
<feColorMatrix in="SourceAlpha" type="matrix" values="0 0 0 0 0 0 0 0 0 0 0 0 0 0 0 0 0 0 127 0" result="hardAlpha"/>
<feOffset dy="4"/>
<feGaussianBlur stdDeviation="2"/>
<feComposite in2="hardAlpha" operator="arithmetic" k2="-1" k3="1"/>
<feColorMatrix type="matrix" values="0 0 0 0 0 0 0 0 0 0 0 0 0 0 0 0 0 0 0.25 0"/>
<feBlend mode="normal" in2="shape" result="effect1_innerShadow_93_54"/>
</filter>
<filter id="filter25_i_93_54" x="878" y="423.969" width="85.5828" height="114.316" filterUnits="userSpaceOnUse" color-interpolation-filters="sRGB">
<feFlood flood-opacity="0" result="BackgroundImageFix"/>
<feBlend mode="normal" in="SourceGraphic" in2="BackgroundImageFix" result="shape"/>
<feColorMatrix in="SourceAlpha" type="matrix" values="0 0 0 0 0 0 0 0 0 0 0 0 0 0 0 0 0 0 127 0" result="hardAlpha"/>
<feOffset dy="4"/>
<feGaussianBlur stdDeviation="2"/>
<feComposite in2="hardAlpha" operator="arithmetic" k2="-1" k3="1"/>
<feColorMatrix type="matrix" values="0 0 0 0 0 0 0 0 0 0 0 0 0 0 0 0 0 0 0.25 0"/>
<feBlend mode="normal" in2="shape" result="effect1_innerShadow_93_54"/>
</filter>
<filter id="filter26_i_93_54" x="878" y="424.5" width="69.5" height="77.5" filterUnits="userSpaceOnUse" color-interpolation-filters="sRGB">
<feFlood flood-opacity="0" result="BackgroundImageFix"/>
<feBlend mode="normal" in="SourceGraphic" in2="BackgroundImageFix" result="shape"/>
<feColorMatrix in="SourceAlpha" type="matrix" values="0 0 0 0 0 0 0 0 0 0 0 0 0 0 0 0 0 0 127 0" result="hardAlpha"/>
<feOffset dy="4"/>
<feGaussianBlur stdDeviation="2"/>
<feComposite in2="hardAlpha" operator="arithmetic" k2="-1" k3="1"/>
<feColorMatrix type="matrix" values="0 0 0 0 0 0 0 0 0 0 0 0 0 0 0 0 0 0 0.25 0"/>
<feBlend mode="normal" in2="shape" result="effect1_innerShadow_93_54"/>
</filter>
<filter id="filter27_f_93_54" x="737" y="478.991" width="58.7842" height="60.0087" filterUnits="userSpaceOnUse" color-interpolation-filters="sRGB">
<feFlood flood-opacity="0" result="BackgroundImageFix"/>
<feBlend mode="normal" in="SourceGraphic" in2="BackgroundImageFix" result="shape"/>
<feGaussianBlur stdDeviation="2" result="effect1_foregroundBlur_93_54"/>
</filter>
<filter id="filter28_f_93_54" x="848.175" y="489.204" width="64.2688" height="51.8666" filterUnits="userSpaceOnUse" color-interpolation-filters="sRGB">
<feFlood flood-opacity="0" result="BackgroundImageFix"/>
<feBlend mode="normal" in="SourceGraphic" in2="BackgroundImageFix" result="shape"/>
<feGaussianBlur stdDeviation="2" result="effect1_foregroundBlur_93_54"/>
</filter>
<filter id="filter29_f_93_54" x="790.973" y="463.3" width="67.7205" height="44.2004" filterUnits="userSpaceOnUse" color-interpolation-filters="sRGB">
<feFlood flood-opacity="0" result="BackgroundImageFix"/>
<feBlend mode="normal" in="SourceGraphic" in2="BackgroundImageFix" result="shape"/>
<feGaussianBlur stdDeviation="2" result="effect1_foregroundBlur_93_54"/>
</filter>
<filter id="filter30_f_93_54" x="848" y="566.317" width="70.6062" height="51.1112" filterUnits="userSpaceOnUse" color-interpolation-filters="sRGB">
<feFlood flood-opacity="0" result="BackgroundImageFix"/>
<feBlend mode="normal" in="SourceGraphic" in2="BackgroundImageFix" result="shape"/>
<feGaussianBlur stdDeviation="2" result="effect1_foregroundBlur_93_54"/>
</filter>
<filter id="filter31_f_93_54" x="702.054" y="543.479" width="66.4299" height="52.4774" filterUnits="userSpaceOnUse" color-interpolation-filters="sRGB">
<feFlood flood-opacity="0" result="BackgroundImageFix"/>
<feBlend mode="normal" in="SourceGraphic" in2="BackgroundImageFix" result="shape"/>
<feGaussianBlur stdDeviation="2" result="effect1_foregroundBlur_93_54"/>
</filter>
<filter id="filter32_f_93_54" x="796" y="526.5" width="47" height="41" filterUnits="userSpaceOnUse" color-interpolation-filters="sRGB">
<feFlood flood-opacity="0" result="BackgroundImageFix"/>
<feBlend mode="normal" in="SourceGraphic" in2="BackgroundImageFix" result="shape"/>
<feGaussianBlur stdDeviation="2" result="effect1_foregroundBlur_93_54"/>
</filter>
<filter id="filter33_f_93_54" x="829.535" y="504.367" width="20.03" height="25.9807" filterUnits="userSpaceOnUse" color-interpolation-filters="sRGB">
<feFlood flood-opacity="0" result="BackgroundImageFix"/>
<feBlend mode="normal" in="SourceGraphic" in2="BackgroundImageFix" result="shape"/>
<feGaussianBlur stdDeviation="2" result="effect1_foregroundBlur_93_54"/>
</filter>
<filter id="filter34_f_93_54" x="793.773" y="503.322" width="20.4292" height="25.7117" filterUnits="userSpaceOnUse" color-interpolation-filters="sRGB">
<feFlood flood-opacity="0" result="BackgroundImageFix"/>
<feBlend mode="normal" in="SourceGraphic" in2="BackgroundImageFix" result="shape"/>
<feGaussianBlur stdDeviation="2" result="effect1_foregroundBlur_93_54"/>
</filter>
<filter id="filter35_f_93_54" x="708.792" y="504.685" width="32.416" height="30.6305" filterUnits="userSpaceOnUse" color-interpolation-filters="sRGB">
<feFlood flood-opacity="0" result="BackgroundImageFix"/>
<feBlend mode="normal" in="SourceGraphic" in2="BackgroundImageFix" result="shape"/>
<feGaussianBlur stdDeviation="2" result="effect1_foregroundBlur_93_54"/>
</filter>
<filter id="filter36_f_93_54" x="897.039" y="523.343" width="31.2776" height="29.0806" filterUnits="userSpaceOnUse" color-interpolation-filters="sRGB">
<feFlood flood-opacity="0" result="BackgroundImageFix"/>
<feBlend mode="normal" in="SourceGraphic" in2="BackgroundImageFix" result="shape"/>
<feGaussianBlur stdDeviation="2" result="effect1_foregroundBlur_93_54"/>
</filter>
<filter id="filter37_f_93_54" x="581" y="372" width="750.885" height="578" filterUnits="userSpaceOnUse" color-interpolation-filters="sRGB">
<feFlood flood-opacity="0" result="BackgroundImageFix"/>
<feBlend mode="normal" in="SourceGraphic" in2="BackgroundImageFix" result="shape"/>
<feGaussianBlur stdDeviation="2" result="effect1_foregroundBlur_93_54"/>
</filter>
<filter id="filter38_f_93_54" x="850.004" y="785.5" width="290.996" height="148.5" filterUnits="userSpaceOnUse" color-interpolation-filters="sRGB">
<feFlood flood-opacity="0" result="BackgroundImageFix"/>
<feBlend mode="normal" in="SourceGraphic" in2="BackgroundImageFix" result="shape"/>
<feGaussianBlur stdDeviation="2" result="effect1_foregroundBlur_93_54"/>
</filter>
</defs>
</svg>
