<!-- Designed/Created by Shane Mindreau -->
<!-- copyright Shane Mindreau 2024 -->
<svg width="1920" height="960" viewBox="0 0 1920 960" fill="none" xmlns="http://www.w3.org/2000/svg">
<mask id="mask0_94_2" style="mask-type:alpha" maskUnits="userSpaceOnUse" x="0" y="0" width="1920" height="960">
<rect width="1920" height="960" fill="#020A3D"/>
</mask>
<g mask="url(#mask0_94_2)">
<rect width="1920" height="960" fill="#020A3D"/>
<path d="M1752 997C1790.17 982 1865.5 962.5 1872 894C1880.63 803 1959.83 854.667 2001 864L1957 109C1916 92.5 1771.5 175.9 1801.5 217.5C1831.5 259.1 1939.67 203.167 1988 171L2052.5 252C2024.33 230 1971.61 330.011 1885 302.5C1800 275.5 1827.5 454 1948.5 354L2078.5 313.5C2131.17 328.333 2177.33 363.356 1957 437.5C1747.5 508 1770.5 460.5 1780 432C1789.5 403.5 1790 378.5 1761.5 354C1733 329.5 1689.79 367.153 1684.5 398.5C1676.9 443.54 1716.06 485.658 1670.5 500C1643.5 508.5 1596.5 398.5 1566.5 483C1543.83 546.853 1485.17 542.5 1457 491.5C1442.09 464.5 1419.93 454.255 1378.5 483C1354 500 1308 483 1326.5 419C1338.17 374.833 1380.6 303.2 1457 370C1533.4 436.8 1613.17 364.5 1643.5 320C1676.5 265.5 1767.5 286.5 1727 232.5C1637.5 72.9999 1803.77 135.08 1827.5 70C1860.5 -20.5 1767.17 -64.3332 1704.5 -63.4999C1732 -19.6665 1750.4 66.4001 1604 60C1457.6 53.5999 1523.67 -25 1575 -63.4999L1007 -36.5C1007 -6 937.5 92.8209 1014.5 105.5C1091.5 118.179 1140.75 82.4359 1104 24C1032 -90.5001 1082 -259.5 1176.5 -13.5C1252.1 183.3 1348.5 18.5 1354 -63.4999L1443 -20.5C1404.17 41.5 1361.1 158.9 1499.5 132.5C1637.9 106.1 1619.17 188.167 1592.5 232.5C1564.83 277.833 1489.5 345.2 1409.5 252C1329.5 158.8 1308.5 222.167 1308 265.5C1303.5 342 1257.9 476 1111.5 400C965.1 324 874.5 408.333 859 455C842 518.5 832 548.5 749 541.5C700 530.5 660.6 525.4 681 593C701.4 660.6 763.833 647.833 792.5 633C846 609 889 699.5 962 699.5C1008.67 699.5 1085 686.2 1017 633C834.6 489 947.667 454.333 1027 455C1068.5 455.349 1117.5 490.4 1121.5 558C1125.5 625.6 1205.5 569.5 1245 533C1264 515.443 1316.5 528.5 1398 593C1479.5 657.5 1509.5 760.775 1509.5 851C1509.5 961 1594 891 1656 803C1718 715 1591 682.5 1557.5 651.5C1494.7 594.3 1583.67 565.333 1636 558C1670.83 557.333 1735.9 567.7 1717.5 614.5C1694.5 673 1792 722.5 1847 682.5C1891 650.5 1865.33 623.833 1847 614.5C1797.17 599.5 1727.4 562.2 1847 533C1966.6 503.8 2032.17 716.5 2045 813C1879.8 623 1687.83 905.5 1612.5 1070.5C1413.33 1107.67 1022 1141.4 1050 979C1078 816.6 1145 938 1175 1019C1218.17 1038.5 1295.2 1065.8 1258 1019C1211.5 960.5 1178.5 809.5 1245 803C1311.5 796.5 1338 838 1326.5 972.5C1317.3 1080.1 1400.33 1057.33 1443 1032.5C1450.67 974.833 1445.1 827.5 1361.5 699.5C1277.9 571.5 1219 646.167 1200 699.5C1192.17 734 1150.2 796.6 1045 771C913.5 739 1042 1065.5 918.5 1032.5C795 999.5 947 773 812.5 739.5C678 706 617.167 853.369 701 831.5C724 825.5 802.459 835.5 779.5 898C765.541 936 719.1 956.2 599.5 891C479.9 825.8 477.333 918.166 491 972.5C515.5 1000.17 540.9 1050.9 446.5 1032.5C328.5 1009.5 310 766 461 784.5C612 803 666 699.5 579.5 633C409.1 497 466.167 427.667 516 410C660.5 350 692.5 546.5 792.5 410C840.679 344.235 932 265.5 1088.5 313.5C1245 361.5 1258 87.5 1067 184.5C914.2 262.1 892.333 190.833 900.5 145.5C908.833 106.833 905.5 10.9 825.5 -63.4999C677.5 -209.5 699.5 -124.333 729 -63.4999C789.5 48.8335 859.5 279.1 655.5 301.5C400.5 329.5 857.5 29.5 621 68.0001C431.8 98.8002 390.833 55.1667 394 29.5C383.5 -57 347.8 -188.3 289 -21.5C215.5 187 652 85.5 471.5 232.5C291 379.5 295.5 165.5 236 135.5C188.4 111.5 166.639 155.5 178.5 184.5C247.7 353.7 70.6667 351.333 -26.5 329L-80.5 216C-16.5 238.667 104.7 260.9 77.5 168.5C50.3 76.1 -47.1667 87 -92.5 104L-49 -29C-12 2.83333 74.6 64.6 125 57C188 47.5 208 34 154 -54C110.8 -124.4 -52 -66.6667 -128 -29L-107 469C-49.8333 493.5 69.5 526.3 89.5 461.5C110.951 392 147.951 401.575 178.5 416.5C244 448.5 245.092 362.298 291.5 346.5C315 338.5 442.961 321.718 394 455C367 528.5 323.5 510.628 305.5 486.5C282 455 232 462.5 232 514C232 613.684 305.833 600.333 369.5 593C388.833 590.333 434.9 586.1 452.5 618.5C472.599 655.5 548.3 651.189 543 693C537.93 733 467.454 724.991 438.5 719C409.5 713 385.5 741.594 350 695C326 663.5 279.5 657.215 244 659.5C163.2 664.7 150.333 604 154 573C163.5 538 123.5 518.5 41.5 608C-43.9422 701.257 69.5 718.5 118.5 718.5C197 719.333 336.2 749.8 265 865C193.8 980.2 286 1044 341 1061.5L96 1043C63 975 21.5349 852.944 32 824.5C51.5 771.5 161.5 769.5 147 865C135.4 941.4 167.5 1008.5 185 1032.5" stroke="#202F92" stroke-opacity="0.5" stroke-width="43"/>
<path d="M1786.5 465.5C1786.5 463 1781.1 462.8 1781.5 466C1781.79 468.361 1786.5 466.5 1786.5 470C1786.5 472.5 1781 472.5 1781 470M1789 463V472C1789 469.833 1789 466 1791.5 466C1793.8 466 1793.5 470 1793.5 472M1796 467C1796.75 465.509 1800 465.346 1800 467.5M1800 472C1800 471.408 1800 470.847 1800 470.324M1800 467.5C1800 467.673 1800 467.865 1800 468.072M1800 467.5V468.072M1800 468.072C1799.5 468.382 1798.5 468.5 1797 469C1795.63 469.457 1796 471.5 1797.5 471.5C1799.5 471.5 1800 470.716 1800 470.324M1800 468.072C1800 468.691 1800 469.454 1800 470.324M1803 465.5V467.5M1803 472V467.5M1803 467.5C1803 466 1807 465.149 1807 467.5C1807 470.7 1807 471.833 1807 472M1814.5 470.5C1814 471.5 1811.38 472.336 1810 470.5C1809.5 469.833 1809.5 469 1809.5 468.5M1809.5 468.5C1809.5 467 1810.7 466.133 1811.5 466C1812.5 465.833 1814.5 466.1 1814.5 468.5H1809.5ZM1820.5 472V463.5L1823.79 471.5H1824.24L1828 463.5V472M1831 472V465.5M1831 464.5V463M1834 465.5V467.5M1834 467.5V472M1834 467.5C1834 466 1838 465.149 1838 467.5V472M1845.5 472V469.75M1845.5 463.5V467.5M1845.5 467.5C1844.5 465.5 1842 465.5 1841 467C1840.16 468.257 1840.5 471 1842 471.5C1842.83 471.833 1844.7 471.95 1845.5 469.75M1845.5 467.5V469.75M1848.5 465.5V467.5M1848.5 472V467.5M1848.5 467.5C1848.67 467 1849.4 466 1851 466M1857 470.5C1856.5 471.5 1853.88 472.336 1852.5 470.5C1852 469.833 1852 469 1852 468.5M1852 468.5C1852 467 1853.2 466.133 1854 466C1855 465.833 1857 466.1 1857 468.5H1852ZM1859.5 467C1860.25 465.509 1863.5 465.346 1863.5 467.5V468.072M1863.5 468.072C1863 468.382 1862 468.5 1860.5 469C1859.13 469.457 1859.5 471.5 1861 471.5C1863 471.5 1863.5 470.716 1863.5 470.324M1863.5 468.072V470.324M1863.5 470.324V472M1870.5 465.5V470M1870.5 472V470M1866.5 465.5V470C1866.5 470.5 1866.8 471.5 1868 471.5C1869.5 471.5 1870 471 1870.5 470" stroke="#111D68"/>
<rect x="-85" y="-64" width="493" height="231" fill="#A72E2E"/>
<rect x="-85" y="-64" width="158" height="231" fill="#852525"/>
<rect x="207" y="-61" width="84" height="228" fill="#FDFBF8"/>
<rect x="97" y="138" width="313" height="175" fill="#F3D7FB"/>
<rect x="97" y="138" width="160" height="175" fill="#DEC3E5"/>
<rect x="141" y="138" width="59" height="175" fill="#CB93DB"/>
<rect x="306" y="138" width="59" height="175" fill="#DEA3EF"/>
<mask id="mask1_94_2" style="mask-type:alpha" maskUnits="userSpaceOnUse" x="-44" y="121" width="205" height="295">
<rect x="-44" y="121" width="205" height="295" fill="#0A9396"/>
</mask>
<g mask="url(#mask1_94_2)">
<rect x="-44" y="121" width="205" height="295" fill="#0A9396"/>
<path d="M335.053 219.11L315.514 249.346L3.91251 47.9871L23.4514 17.7509L335.053 219.11Z" fill="#052B3A"/>
<path d="M303.573 267.824L284.034 298.06L-27.5668 96.7011L-8.02793 66.4648L303.573 267.824Z" fill="#052B3A"/>
<path d="M272.094 316.538L252.555 346.774L-59.0462 145.415L-39.5073 115.179L272.094 316.538Z" fill="#052B3A"/>
<path d="M240.615 365.252L221.076 395.488L-90.5256 194.129L-70.9867 163.893L240.615 365.252Z" fill="#052B3A"/>
<path d="M209.135 413.966L189.596 444.202L-122.005 242.843L-102.466 212.607L209.135 413.966Z" fill="#052B3A"/>
<path d="M177.656 462.68L158.117 492.916L-153.484 291.557L-133.945 261.321L177.656 462.68Z" fill="#052B3A"/>
<path d="M161.727 151.678L27.2453 246.536L27 295.048L161.519 192.727L161.727 151.678Z" fill="#FCE762"/>
<rect x="78.5928" y="195.23" width="27.7128" height="29" rx="5" transform="rotate(-2.94791 78.5928 195.23)" fill="#E3CF4E"/>
<rect x="126.161" y="192.78" width="27.7128" height="29" rx="5" transform="rotate(-2.94791 126.161 192.78)" fill="#E3CF4E"/>
<rect x="106.657" y="251.861" width="32" height="25.1147" rx="5" transform="rotate(-92.9479 106.657 251.861)" fill="#E3CF4E"/>
<rect x="103.829" y="196.934" width="32" height="25.1147" rx="5" transform="rotate(-92.9479 103.829 196.934)" fill="#E3CF4E"/>
<rect width="29.9332" height="27.127" rx="5" transform="matrix(0.614911 -0.788597 0.692663 0.721262 85.4207 226.391)" fill="#D7C554"/>
<rect width="29.9332" height="27.127" rx="5" transform="matrix(0.614911 -0.788597 0.692663 0.721262 111.304 193.196)" fill="#D7C554"/>
<rect width="29.9332" height="27.127" rx="5" transform="matrix(-0.692663 -0.721262 0.614911 -0.788597 133.565 244.444)" fill="#D7C554"/>
<rect width="29.9332" height="27.127" rx="5" transform="matrix(-0.692663 -0.721262 0.614911 -0.788597 104.409 214.084)" fill="#D7C554"/>
<rect width="28.8444" height="28.0791" rx="5" transform="matrix(0.802422 -0.596757 0.49262 0.870245 85.8142 213.575)" fill="#FCE762"/>
<rect width="28.8444" height="28.0791" rx="5" transform="matrix(0.802422 -0.596757 0.49262 0.870245 111.13 194.749)" fill="#FCE762"/>
<rect width="30.9839" height="26.1402" rx="5" transform="matrix(-0.49262 -0.870245 0.802422 -0.596757 122.452 243.8)" fill="#FCE762"/>
<rect width="30.9839" height="26.1402" rx="5" transform="matrix(-0.49262 -0.870245 0.802422 -0.596757 105.758 214.309)" fill="#FCE762"/>
<path d="M109.529 208.812C110.85 205.792 115.052 205.576 116.675 208.444L123.591 220.66C125.055 223.248 123.285 226.473 120.315 226.626L107.776 227.271C104.807 227.424 102.714 224.399 103.906 221.674L109.529 208.812Z" fill="#D7C554"/>
<path d="M119.737 198.79C122.19 200.249 122.37 203.735 120.08 205.438L109.594 213.236C107.031 215.142 103.377 213.422 103.212 210.232L102.467 195.754C102.303 192.564 105.76 190.478 108.506 192.111L119.737 198.79Z" fill="#E3CF4E"/>
<path d="M101.424 207.287C99.4261 205.051 100.162 201.576 102.815 200.726L114.905 196.851C117.814 195.919 120.79 198.792 120.133 201.897L117.151 215.967C116.494 219.072 112.725 219.935 110.534 217.482L101.424 207.287Z" fill="#D7C554"/>
<path d="M127.367 220.883C127.54 224.227 124.308 226.631 121.713 225.088L110.403 218.361C107.941 216.897 107.899 212.935 110.327 211.13L120.886 203.277C123.314 201.472 126.453 203.13 126.617 206.303L127.367 220.883Z" fill="#E3CF4E"/>
<path d="M113.599 201.241C112.057 198.518 113.528 195.156 116.322 195.012L128.948 194.361C131.9 194.209 134.092 197.726 132.836 200.598L127.173 213.549C125.917 216.422 122.19 216.418 120.562 213.542L113.599 201.241Z" fill="#D7C554"/>
<path d="M122.083 207.509C122.285 211.44 119.697 214.642 116.456 214.809C113.214 214.975 110.311 212.057 110.108 208.126C109.906 204.195 112.494 200.994 115.736 200.827C118.977 200.66 121.881 203.579 122.083 207.509Z" fill="#E3CF4E" stroke="#FCE762"/>
</g>
<mask id="mask2_94_2" style="mask-type:alpha" maskUnits="userSpaceOnUse" x="-44" y="121" width="101" height="295">
<rect x="-44" y="121" width="101" height="295" fill="#097779"/>
</mask>
<g mask="url(#mask2_94_2)">
<rect x="-44" y="121" width="101" height="295" fill="#097779"/>
<path d="M-192 200.359L-172.461 230.596L139.14 29.2363L119.601 -0.999992L-192 200.359Z" fill="#001219"/>
<path d="M-160.521 249.073L-140.982 279.31L170.62 77.9502L151.081 47.714L-160.521 249.073Z" fill="#001219"/>
<path d="M-129.041 297.787L-109.502 328.024L202.099 126.664L182.56 96.4279L-129.041 297.787Z" fill="#001219"/>
<path d="M-97.562 346.501L-78.023 376.737L233.578 175.378L214.039 145.142L-97.562 346.501Z" fill="#001219"/>
<path d="M-66.0826 395.215L-46.5437 425.451L265.058 224.092L245.519 193.856L-66.0826 395.215Z" fill="#001219"/>
<path d="M-34.6032 443.929L-15.0643 474.165L296.537 272.806L276.998 242.57L-34.6032 443.929Z" fill="#001219"/>
<path d="M-18 248.323L62 224V270.972L-18 290V248.323Z" fill="#CDBC52"/>
</g>
<path d="M515.5 94L511 139L481 140.5V94H515.5Z" fill="#A2CFF0"/>
<path d="M481 94H515.5L514.3 106H481V94Z" fill="#AADBFF"/>
<path d="M468.961 87C496.454 87 493.919 121.363 491.774 140H461.357C442.638 124.624 427.429 87 460.187 87H468.961Z" fill="#AADBFF"/>
<path d="M468.961 87C496.454 87 493.919 121.363 491.774 140H478C463.5 126.5 455.5 87 468.961 87Z" fill="#89B1CF"/>
<path d="M521.039 90C493.546 90 496.081 124.363 498.226 143H528.643C547.362 127.624 562.571 90 529.813 90H521.039Z" fill="#AADBFF"/>
<path d="M521.039 90C493.546 90 496.081 124.363 498.226 143H512C526.5 129.5 534.5 90 521.039 90Z" fill="#89B1CF"/>
<mask id="mask3_94_2" style="mask-type:alpha" maskUnits="userSpaceOnUse" x="330" y="130" width="320" height="190">
<rect x="330" y="130" width="320" height="190" fill="#832161"/>
</mask>
<g mask="url(#mask3_94_2)">
<rect x="330" y="130" width="320" height="190" fill="#832161"/>
<path d="M603 234L608.388 250.584H625.825L611.719 260.833L617.107 277.416L603 267.167L588.893 277.416L594.281 260.833L580.175 250.584H597.612L603 234Z" fill="#F2545B"/>
<path d="M532.257 198.979L543.458 212.343L559.629 205.819L550.381 220.601L561.583 233.965L544.666 229.738L535.418 244.52L534.211 227.125L517.294 222.898L533.464 216.374L532.257 198.979Z" fill="#F2545B"/>
<path d="M647 140.001L652.388 156.584H669.825L655.719 166.833L661.107 183.417L647 173.168L632.893 183.417L638.281 166.833L624.175 156.584H641.612L647 140.001Z" fill="#F2545B"/>
<path d="M588.257 112.979L599.458 126.343L615.629 119.819L606.381 134.601L617.583 147.965L600.666 143.738L591.418 158.52L590.211 141.125L573.294 136.898L589.464 130.374L588.257 112.979Z" fill="#F2545B"/>
<path d="M483.257 109.979L494.458 123.343L510.629 116.819L501.381 131.601L512.583 144.965L495.666 140.738L486.418 155.52L485.211 138.125L468.294 133.898L484.464 127.374L483.257 109.979Z" fill="#F2545B"/>
<path d="M485.257 249.979L496.458 263.343L512.629 256.819L503.381 271.601L514.583 284.965L497.666 280.738L488.418 295.52L487.211 278.125L470.294 273.898L486.464 267.374L485.257 249.979Z" fill="#F2545B"/>
<circle cx="494.5" cy="195.5" r="16.5" fill="#F2545B"/>
<circle cx="597.5" cy="198.5" r="16.5" fill="#F2545B"/>
<circle cx="542.5" cy="147.5" r="16.5" fill="#F2545B"/>
<circle cx="645.5" cy="273.5" r="16.5" fill="#F2545B"/>
<circle cx="548.5" cy="274.5" r="16.5" fill="#F2545B"/>
</g>
<mask id="mask4_94_2" style="mask-type:alpha" maskUnits="userSpaceOnUse" x="330" y="130" width="150" height="190">
<rect x="330" y="130" width="150" height="190" fill="#791E59"/>
</mask>
<g mask="url(#mask4_94_2)">
<rect x="330" y="130" width="150" height="190" fill="#701B52"/>
<path d="M483.257 109.979L494.458 123.343L510.629 116.819L501.381 131.601L512.583 144.965L495.666 140.738L486.418 155.52L485.211 138.125L468.294 133.898L484.464 127.374L483.257 109.979Z" fill="#D94A50"/>
<path d="M485.257 249.979L496.458 263.343L512.629 256.819L503.381 271.601L514.583 284.965L497.666 280.738L488.418 295.52L487.211 278.125L470.294 273.898L486.464 267.374L485.257 249.979Z" fill="#D94A50"/>
<circle cx="494.5" cy="195.5" r="16.5" fill="#D94A50"/>
<path d="M348.495 265L343.543 281.584H327.518L340.483 291.833L335.53 308.416L348.495 298.167L361.46 308.416L356.508 291.833L369.473 281.584H353.447L348.495 265Z" fill="#D94A50"/>
<path d="M413.512 229.979L403.217 243.343L388.355 236.819L396.854 251.601L386.56 264.965L402.107 260.738L410.606 275.52L411.716 258.125L427.263 253.898L412.402 247.374L413.512 229.979Z" fill="#D94A50"/>
<path d="M362.045 143.979L351.75 157.343L336.888 150.819L345.388 165.601L335.093 178.965L350.64 174.738L359.139 189.52L360.249 172.125L375.797 167.898L360.935 161.374L362.045 143.979Z" fill="#D94A50"/>
<path d="M458.545 140.979L448.25 154.343L433.388 147.819L441.888 162.601L431.593 175.965L447.14 171.738L455.639 186.52L456.749 169.125L472.297 164.898L457.435 158.374L458.545 140.979Z" fill="#D94A50"/>
<path d="M406.96 98.9793L396.665 112.343L381.804 105.819L390.303 120.601L380.008 133.965L395.555 129.738L404.054 144.52L405.164 127.125L420.712 122.898L405.85 116.374L406.96 98.9793Z" fill="#D94A50"/>
<path d="M456.707 280.979L446.412 294.343L431.551 287.819L440.05 302.601L429.755 315.965L445.302 311.738L453.801 326.52L454.911 309.125L470.459 304.898L455.597 298.374L456.707 280.979Z" fill="#D94A50"/>
<ellipse cx="15.1643" cy="16.5" rx="15.1643" ry="16.5" transform="matrix(-1 0 0 1 463.376 210)" fill="#D94A50"/>
<ellipse cx="15.1643" cy="16.5" rx="15.1643" ry="16.5" transform="matrix(-1 0 0 1 368.714 213)" fill="#D94A50"/>
<ellipse cx="15.1643" cy="16.5" rx="15.1643" ry="16.5" transform="matrix(-1 0 0 1 419.262 162)" fill="#D94A50"/>
<ellipse cx="15.1643" cy="16.5" rx="15.1643" ry="16.5" transform="matrix(-1 0 0 1 413.748 289)" fill="#D94A50"/>
</g>
<path d="M348.884 222.5C388.884 222.5 356.884 271.5 320.884 280L304.884 279C292.884 241 308.218 225.5 317.384 222.5H348.884Z" fill="#A72E2E"/>
<path d="M320.884 280L304.884 279C298.629 259.192 299.801 245.497 303.655 236.5C308.103 239.333 319.7 243.8 330.5 239L320.884 280Z" fill="#852525"/>
<path d="M243.733 215C197.916 215 228.011 270.739 275.176 282H299.32C307.405 239.21 284.347 219.504 271.807 215H243.733Z" fill="#A72E2E"/>
<path d="M273.587 281.602C274.115 281.74 274.644 281.873 275.176 282H273.513C273.538 281.867 273.563 281.735 273.587 281.602C227.342 269.489 198.433 215 243.733 215H246C258.501 219.49 281.455 239.088 273.587 281.602Z" fill="#762121"/>
<path d="M258 222.5C218 222.5 250 271.5 286 280L302 279C314 241 298.667 225.5 289.5 222.5H258Z" fill="#852525"/>
<path d="M289.5 222.5H258C247.182 222.5 241.631 226.084 240 231.481C244.667 233.475 257.5 236.266 271.5 231.481L289.5 222.5Z" fill="#A72E2E"/>
<path d="M289.5 222.5H285.5C251.822 222.5 269.184 257.236 297 273.289L302 279C314 241 301 222.5 289.5 222.5Z" fill="#762121"/>
<path d="M376.267 215C422.084 215 391.989 270.739 344.824 282H320.68C312.595 239.21 335.653 219.504 348.193 215H376.267Z" fill="#A72E2E"/>
<path d="M344.824 282H320.68L360.5 252.5C362.5 268.1 378.418 262.333 386.127 257.5C376.318 268.295 361.658 277.981 344.824 282Z" fill="#852525"/>
<path d="M320.608 281.612C320.093 281.747 319.576 281.876 319.057 282H320.68C320.656 281.871 320.631 281.741 320.608 281.612C366.875 269.52 395.813 215 350.5 215H348.193C337.034 215 312.742 239.064 320.608 281.612Z" fill="#762121"/>
<rect x="108" y="273" width="368" height="247" fill="#EE8434"/>
<rect x="108" y="273" width="172" height="247" fill="#DC792F"/>
<rect x="357" y="273" width="58" height="247" fill="#A72E2E"/>
<rect x="165" y="273" width="58" height="247" fill="#852525"/>
<path d="M518.5 399.5C518.5 397 513.1 396.8 513.5 400C513.795 402.361 518.5 400.5 518.5 404C518.5 406.5 513 406.5 513 404M521 397V406C521 403.833 521 400 523.5 400C525.8 400 525.5 404 525.5 406M528 401C528.746 399.509 532 399.346 532 401.5M532 406C532 405.408 532 404.847 532 404.324M532 401.5C532 401.673 532 401.865 532 402.072M532 401.5V402.072M532 402.072C531.5 402.382 530.5 402.5 529 403C527.63 403.457 528 405.5 529.5 405.5C531.5 405.5 532 404.716 532 404.324M532 402.072C532 402.691 532 403.454 532 404.324M535 399.5V401.5M535 406V401.5M535 401.5C535 400 539 399.149 539 401.5C539 404.7 539 405.833 539 406M546.5 404.5C546 405.5 543.377 406.336 542 404.5C541.5 403.833 541.5 403 541.5 402.5M541.5 402.5C541.5 401 542.704 400.133 543.5 400C544.5 399.833 546.5 400.1 546.5 402.5H541.5ZM552.5 406V397.5L555.794 405.5H556.235L560 397.5V406M563 406V399.5M563 398.5V397M566 399.5V401.5M566 401.5V406M566 401.5C566 400 570 399.149 570 401.5V406M577.5 406V403.75M577.5 397.5V401.5M577.5 401.5C576.5 399.5 574 399.5 573 401C572.162 402.257 572.5 405 574 405.5C574.833 405.833 576.7 405.95 577.5 403.75M577.5 401.5V403.75M580.5 399.5V401.5M580.5 406V401.5M580.5 401.5C580.667 401 581.4 400 583 400M589 404.5C588.5 405.5 585.877 406.336 584.5 404.5C584 403.833 584 403 584 402.5M584 402.5C584 401 585.204 400.133 586 400C587 399.833 589 400.1 589 402.5H584ZM591.5 401C592.246 399.509 595.5 399.346 595.5 401.5V402.072M595.5 402.072C595 402.382 594 402.5 592.5 403C591.13 403.457 591.5 405.5 593 405.5C595 405.5 595.5 404.716 595.5 404.324M595.5 402.072V404.324M595.5 404.324V406M602.5 399.5V404M602.5 406V404M598.5 399.5V404C598.5 404.5 598.8 405.5 600 405.5C601.5 405.5 602 405 602.5 404" stroke="#111D68"/>
<mask id="mask5_94_2" style="mask-type:alpha" maskUnits="userSpaceOnUse" x="450" y="253" width="91" height="52">
<path d="M468.664 302.255L528.193 304.24C532.921 304.397 537.281 301.698 539.248 297.396C541.892 291.612 539.443 284.775 533.729 281.984L479.867 255.679C468.76 250.255 455.512 256.713 452.944 268.805L450.711 279.319C448.255 290.885 456.846 301.862 468.664 302.255Z" fill="#FDFBF8"/>
</mask>
<g mask="url(#mask5_94_2)">
<path d="M468.664 302.255L528.193 304.24C532.921 304.397 537.281 301.698 539.248 297.396C541.892 291.612 539.443 284.775 533.729 281.984L479.867 255.679C468.76 250.255 455.512 256.713 452.944 268.805L450.711 279.319C448.255 290.885 456.846 301.862 468.664 302.255Z" fill="#FDFBF8"/>
<path d="M534.5 285.5L451.5 264L442 281L533.5 290L534.5 285.5Z" fill="#EAE9E8"/>
</g>
<mask id="mask6_94_2" style="mask-type:alpha" maskUnits="userSpaceOnUse" x="550" y="253" width="91" height="52">
<path d="M622.336 302.255L562.807 304.24C558.079 304.397 553.719 301.698 551.752 297.396C549.108 291.612 551.557 284.775 557.271 281.984L611.133 255.679C622.24 250.255 635.488 256.713 638.056 268.805L640.289 279.319C642.745 290.885 634.154 301.862 622.336 302.255Z" fill="#FDFBF8"/>
</mask>
<g mask="url(#mask6_94_2)">
<path d="M622.336 302.255L562.807 304.24C558.079 304.397 553.719 301.698 551.752 297.396C549.108 291.612 551.557 284.775 557.271 281.984L611.133 255.679C622.24 250.255 635.488 256.713 638.056 268.805L640.289 279.319C642.745 290.885 634.154 301.862 622.336 302.255Z" fill="#FDFBF8"/>
<path d="M559 285.5L642 264L651.5 281L560 290L559 285.5Z" fill="#EAE9E8"/>
</g>
<rect x="530" y="277" width="33" height="22" rx="8" fill="#FDFBF8"/>
<path d="M548 289C544 281.4 534.667 281.5 530.5 282.5C529.7 283.7 529.833 286 530 287C536.8 285.8 543.5 289.167 546 291L548 289Z" fill="#D9D9D9"/>
<path d="M544 293C548.4 286.2 558.5 284.833 563 285V289C551.8 288.6 548 291.5 547.5 293H544Z" fill="#EAE9E8"/>
<mask id="mask7_94_2" style="mask-type:alpha" maskUnits="userSpaceOnUse" x="348" y="299" width="382" height="333">
<rect x="348" y="299" width="382" height="333" fill="#FCE762"/>
</mask>
<g mask="url(#mask7_94_2)">
<rect x="348" y="299" width="382" height="333" fill="#FCE762"/>
<path d="M480 402.401C480 419.798 467.688 433.901 452.5 433.901C437.312 433.901 425 419.798 425 402.401C425 385.004 437.312 370.901 452.5 370.901C467.688 370.901 480 385.004 480 402.401Z" fill="#F2545B"/>
<path d="M548.178 363.663C548.178 381.06 535.866 395.163 520.678 395.163C505.49 395.163 493.178 381.06 493.178 363.663C493.178 346.266 505.49 332.163 520.678 332.163C535.866 332.163 548.178 346.266 548.178 363.663Z" fill="#F2545B"/>
<path d="M616.356 324.926C616.356 342.323 604.044 356.426 588.856 356.426C573.669 356.426 561.356 342.323 561.356 324.926C561.356 307.529 573.669 293.426 588.856 293.426C604.044 293.426 616.356 307.529 616.356 324.926Z" fill="#F2545B"/>
<path d="M684.535 286.188C684.535 303.585 672.222 317.688 657.035 317.688C641.847 317.688 629.535 303.585 629.535 286.188C629.535 268.791 641.847 254.688 657.035 254.688C672.222 254.688 684.535 268.791 684.535 286.188Z" fill="#F2545B"/>
<path d="M480 312.53C480 329.927 467.688 344.03 452.5 344.03C437.312 344.03 425 329.927 425 312.53C425 295.133 437.312 281.03 452.5 281.03C467.688 281.03 480 295.133 480 312.53Z" fill="#F2545B"/>
<path d="M480 498.272C480 515.669 467.688 529.772 452.5 529.772C437.312 529.772 425 515.669 425 498.272C425 480.875 437.312 466.772 452.5 466.772C467.688 466.772 480 480.875 480 498.272Z" fill="#F2545B"/>
<path d="M548.178 459.535C548.178 476.932 535.866 491.035 520.678 491.035C505.49 491.035 493.178 476.932 493.178 459.535C493.178 442.138 505.49 428.035 520.678 428.035C535.866 428.035 548.178 442.138 548.178 459.535Z" fill="#F2545B"/>
<path d="M616.356 420.797C616.356 438.194 604.044 452.297 588.856 452.297C573.669 452.297 561.356 438.194 561.356 420.797C561.356 403.4 573.669 389.297 588.856 389.297C604.044 389.297 616.356 403.4 616.356 420.797Z" fill="#F2545B"/>
<path d="M684.535 382.059C684.535 399.456 672.222 413.559 657.035 413.559C641.847 413.559 629.535 399.456 629.535 382.059C629.535 364.662 641.847 350.559 657.035 350.559C672.222 350.559 684.535 364.662 684.535 382.059Z" fill="#F2545B"/>
<path d="M752.713 343.322C752.713 360.719 740.401 374.822 725.213 374.822C710.025 374.822 697.713 360.719 697.713 343.322C697.713 325.925 710.025 311.822 725.213 311.822C740.401 311.822 752.713 325.925 752.713 343.322Z" fill="#F2545B"/>
<path d="M480 595.144C480 612.541 467.688 626.644 452.5 626.644C437.312 626.644 425 612.541 425 595.144C425 577.747 437.312 563.644 452.5 563.644C467.688 563.644 480 577.747 480 595.144Z" fill="#F2545B"/>
<path d="M548.178 556.406C548.178 573.803 535.866 587.906 520.678 587.906C505.49 587.906 493.178 573.803 493.178 556.406C493.178 539.009 505.49 524.906 520.678 524.906C535.866 524.906 548.178 539.009 548.178 556.406Z" fill="#F2545B"/>
<path d="M616.356 517.668C616.356 535.065 604.044 549.168 588.856 549.168C573.669 549.168 561.356 535.065 561.356 517.668C561.356 500.271 573.669 486.168 588.856 486.168C604.044 486.168 616.356 500.271 616.356 517.668Z" fill="#F2545B"/>
<path d="M684.535 478.931C684.535 496.328 672.222 510.431 657.035 510.431C641.847 510.431 629.535 496.328 629.535 478.931C629.535 461.534 641.847 447.431 657.035 447.431C672.222 447.431 684.535 461.534 684.535 478.931Z" fill="#F2545B"/>
<path d="M752.713 440.193C752.713 457.59 740.401 471.693 725.213 471.693C710.025 471.693 697.713 457.59 697.713 440.193C697.713 422.796 710.025 408.693 725.213 408.693C740.401 408.693 752.713 422.796 752.713 440.193Z" fill="#F2545B"/>
<path d="M496 704.015C496 721.412 483.688 735.515 468.5 735.515C453.312 735.515 441 721.412 441 704.015C441 686.618 453.312 672.515 468.5 672.515C483.688 672.515 496 686.618 496 704.015Z" fill="#F2545B"/>
<path d="M564.178 665.277C564.178 682.674 551.866 696.777 536.678 696.777C521.49 696.777 509.178 682.674 509.178 665.277C509.178 647.88 521.49 633.777 536.678 633.777C551.866 633.777 564.178 647.88 564.178 665.277Z" fill="#F2545B"/>
<path d="M618 610C618 627.673 605.688 642 590.5 642C575.312 642 563 627.673 563 610C563 592.327 575.312 578 590.5 578C605.688 578 618 592.327 618 610Z" fill="#F2545B"/>
<path d="M686 571.5C686 588.897 673.688 603 658.5 603C643.312 603 631 588.897 631 571.5C631 554.103 643.312 540 658.5 540C673.688 540 686 554.103 686 571.5Z" fill="#F2545B"/>
<path d="M754 532.5C754 549.897 741.688 564 726.5 564C711.312 564 699 549.897 699 532.5C699 515.103 711.312 501 726.5 501C741.688 501 754 515.103 754 532.5Z" fill="#F2545B"/>
</g>
<mask id="mask8_94_2" style="mask-type:alpha" maskUnits="userSpaceOnUse" x="348" y="299" width="82" height="333">
<rect x="348" y="299" width="82" height="333" fill="#E7D35A"/>
</mask>
<g mask="url(#mask8_94_2)">
<rect x="348" y="299" width="82" height="333" fill="#E7D35A"/>
<path d="M364.852 383.663C364.852 401.06 355.571 415.163 344.122 415.163C332.673 415.163 323.393 401.06 323.393 383.663C323.393 366.266 332.673 352.163 344.122 352.163C355.571 352.163 364.852 366.266 364.852 383.663Z" fill="#E04B51"/>
<path d="M416.244 344.926C416.244 362.323 406.963 376.426 395.515 376.426C384.066 376.426 374.785 362.323 374.785 344.926C374.785 327.529 384.066 313.426 395.515 313.426C406.963 313.426 416.244 327.529 416.244 344.926Z" fill="#E04B51"/>
<path d="M364.852 479.535C364.852 496.932 355.571 511.035 344.122 511.035C332.673 511.035 323.393 496.932 323.393 479.535C323.393 462.138 332.673 448.035 344.122 448.035C355.571 448.035 364.852 462.138 364.852 479.535Z" fill="#E04B51"/>
<path d="M416.244 440.797C416.244 458.194 406.963 472.297 395.515 472.297C384.066 472.297 374.785 458.194 374.785 440.797C374.785 423.4 384.066 409.297 395.515 409.297C406.963 409.297 416.244 423.4 416.244 440.797Z" fill="#E04B51"/>
<path d="M467.637 402.059C467.637 419.456 458.356 433.559 446.907 433.559C435.459 433.559 426.178 419.456 426.178 402.059C426.178 384.662 435.459 370.559 446.907 370.559C458.356 370.559 467.637 384.662 467.637 402.059Z" fill="#E04B51"/>
<path d="M364.852 576.406C364.852 593.803 355.571 607.906 344.122 607.906C332.673 607.906 323.393 593.803 323.393 576.406C323.393 559.009 332.673 544.906 344.122 544.906C355.571 544.906 364.852 559.009 364.852 576.406Z" fill="#E04B51"/>
<path d="M416.244 537.668C416.244 555.065 406.963 569.168 395.515 569.168C384.066 569.168 374.785 555.065 374.785 537.668C374.785 520.271 384.066 506.168 395.515 506.168C406.963 506.168 416.244 520.271 416.244 537.668Z" fill="#E04B51"/>
<path d="M467.637 498.931C467.637 516.328 458.356 530.431 446.907 530.431C435.459 530.431 426.178 516.328 426.178 498.931C426.178 481.534 435.459 467.431 446.907 467.431C458.356 467.431 467.637 481.534 467.637 498.931Z" fill="#E04B51"/>
<path d="M417.483 630C417.483 647.673 408.202 662 396.754 662C385.305 662 376.024 647.673 376.024 630C376.024 612.327 385.305 598 396.754 598C408.202 598 417.483 612.327 417.483 630Z" fill="#E04B51"/>
<path d="M468.742 591.5C468.742 608.897 459.461 623 448.012 623C436.563 623 427.283 608.897 427.283 591.5C427.283 574.103 436.563 560 448.012 560C459.461 560 468.742 574.103 468.742 591.5Z" fill="#E04B51"/>
</g>
<mask id="mask9_94_2" style="mask-type:alpha" maskUnits="userSpaceOnUse" x="348" y="309" width="382" height="43">
<rect x="348" y="309" width="382" height="43" fill="#D7C554"/>
</mask>
<g mask="url(#mask9_94_2)">
<rect x="348" y="309" width="382" height="43" fill="#D7C554"/>
<ellipse cx="520.678" cy="363.663" rx="27.5" ry="31.5" fill="#C9444A"/>
<ellipse cx="588.856" cy="324.926" rx="27.5" ry="31.5" fill="#C9444A"/>
<ellipse cx="452.5" cy="312.53" rx="27.5" ry="31.5" fill="#C9444A"/>
<ellipse cx="657.035" cy="382.059" rx="27.5" ry="31.5" fill="#C9444A"/>
<ellipse cx="725.213" cy="343.322" rx="27.5" ry="31.5" fill="#C9444A"/>
<path d="M416.244 344.926C416.244 362.323 406.963 376.426 395.515 376.426C384.066 376.426 374.785 362.323 374.785 344.926C374.785 327.529 384.066 313.426 395.515 313.426C406.963 313.426 416.244 327.529 416.244 344.926Z" fill="#C9444A"/>
</g>
<mask id="mask10_94_2" style="mask-type:alpha" maskUnits="userSpaceOnUse" x="339" y="292" width="404" height="48">
<rect x="339" y="292" width="404" height="48" fill="#FCE762"/>
</mask>
<g mask="url(#mask10_94_2)">
<rect x="339" y="292" width="404" height="48" fill="#FCE762"/>
<path d="M539.178 356.663C539.178 374.06 526.866 388.163 511.678 388.163C496.49 388.163 484.178 374.06 484.178 356.663C484.178 339.266 496.49 325.163 511.678 325.163C526.866 325.163 539.178 339.266 539.178 356.663Z" fill="#F2545B"/>
<path d="M607.356 317.926C607.356 335.323 595.044 349.426 579.856 349.426C564.669 349.426 552.356 335.323 552.356 317.926C552.356 300.529 564.669 286.426 579.856 286.426C595.044 286.426 607.356 300.529 607.356 317.926Z" fill="#F2545B"/>
<path d="M675.535 279.188C675.535 296.585 663.222 310.688 648.035 310.688C632.847 310.688 620.535 296.585 620.535 279.188C620.535 261.791 632.847 247.688 648.035 247.688C663.222 247.688 675.535 261.791 675.535 279.188Z" fill="#F2545B"/>
<path d="M471 305.53C471 322.927 458.688 337.03 443.5 337.03C428.312 337.03 416 322.927 416 305.53C416 288.133 428.312 274.03 443.5 274.03C458.688 274.03 471 288.133 471 305.53Z" fill="#F2545B"/>
<path d="M743.713 336.322C743.713 353.719 731.401 367.822 716.213 367.822C701.025 367.822 688.713 353.719 688.713 336.322C688.713 318.925 701.025 304.822 716.213 304.822C731.401 304.822 743.713 318.925 743.713 336.322Z" fill="#F2545B"/>
</g>
<mask id="mask11_94_2" style="mask-type:alpha" maskUnits="userSpaceOnUse" x="339" y="292" width="82" height="48">
<rect x="339" y="292" width="82" height="48" fill="#E7D35A"/>
</mask>
<g mask="url(#mask11_94_2)">
<rect x="339" y="292" width="82" height="48" fill="#E7D35A"/>
<path d="M358.102 283C358.102 300.338 348.521 314.393 336.703 314.393C324.886 314.393 315.305 300.338 315.305 283C315.305 265.662 324.886 251.607 336.703 251.607C348.521 251.607 358.102 265.662 358.102 283Z" fill="#E04B51"/>
<path d="M400.898 336C400.898 353.338 391.318 367.393 379.5 367.393C367.682 367.393 358.102 353.338 358.102 336C358.102 318.662 367.682 304.607 379.5 304.607C391.318 304.607 400.898 318.662 400.898 336Z" fill="#E04B51"/>
<path d="M453.949 297.393C453.949 314.732 444.369 328.787 432.551 328.787C420.733 328.787 411.153 314.732 411.153 297.393C411.153 280.055 420.733 266 432.551 266C444.369 266 453.949 280.055 453.949 297.393Z" fill="#E04B51"/>
</g>
<path d="M39.0915 347.086C55.9945 324.311 84.7401 361.848 97 383.464L92.3047 386.628C78.4797 371.075 50.3602 344.081 48.4821 360.53C46.604 376.979 74.3061 383.728 88.392 385.046L85.2618 389C56.3075 383.464 17.9627 375.556 39.0915 347.086Z" fill="#A6D3F3"/>
<path d="M88.3921 385.046C74.3062 383.728 46.6041 376.98 48.4822 360.53C47.3215 365.924 46.1001 377.387 50.5001 380.088C60.6675 384.206 73.7118 386.792 85.2619 389L88.3921 385.046Z" fill="#96BCD8"/>
<path d="M92.3047 386.627L97 383.464C95.4239 380.685 93.5753 377.643 91.5144 374.5C87.343 370.875 76.9 363.612 68.5 363.562C76.8572 370.2 86.0458 379.586 92.3047 386.627Z" fill="#96BCD8"/>
<path d="M155.909 347.086C139.005 324.311 110.26 361.848 98 383.464L102.695 386.628C116.52 371.075 144.64 344.081 146.518 360.53C148.396 376.979 120.694 383.728 106.608 385.046L109.738 389C138.692 383.464 177.037 375.556 155.909 347.086Z" fill="#A6D3F3"/>
<path d="M109.738 389L106.608 385.046C117.791 383.999 137.558 379.53 144.289 369.5C144.29 371.833 146.262 376.2 154.146 375C143.903 382.298 125.44 385.998 109.738 389Z" fill="#96BCD8"/>
<path d="M102.695 386.628L98 383.464C104.626 371.782 116.067 355.449 127.851 346.5C140.079 345.774 144.984 353.786 146.242 359.02C146.363 359.476 146.455 359.979 146.518 360.53C146.462 360.065 146.371 359.557 146.242 359.02C142.771 345.878 116.057 371.596 102.695 386.628Z" fill="#81A1B8"/>
<rect x="-54" y="382" width="355" height="355" fill="#F2545B"/>
<rect x="-54" y="382" width="120" height="355" fill="#D94A51"/>
<rect x="142" y="382" width="85" height="355" fill="#A6D3F3"/>
<rect x="-72" y="382" width="85" height="355" fill="#96BCD8"/>
<mask id="mask12_94_2" style="mask-type:alpha" maskUnits="userSpaceOnUse" x="380" y="492" width="261" height="231">
<rect x="380" y="492" width="261" height="231" fill="#AADBFF"/>
</mask>
<g mask="url(#mask12_94_2)">
<rect x="380" y="492" width="261" height="231" fill="#AADBFF"/>
<ellipse cx="517" cy="544" rx="13" ry="15" fill="#94D2BD"/>
<ellipse cx="561" cy="519" rx="13" ry="15" fill="#94D2BD"/>
<ellipse cx="605" cy="494" rx="13" ry="15" fill="#94D2BD"/>
<ellipse cx="517" cy="486" rx="13" ry="15" fill="#94D2BD"/>
<ellipse cx="517" cy="602" rx="13" ry="15" fill="#94D2BD"/>
<ellipse cx="561" cy="577" rx="13" ry="15" fill="#94D2BD"/>
<ellipse cx="605" cy="552" rx="13" ry="15" fill="#94D2BD"/>
<ellipse cx="649" cy="527" rx="13" ry="15" fill="#94D2BD"/>
<ellipse cx="517" cy="660" rx="13" ry="15" fill="#94D2BD"/>
<ellipse cx="561" cy="635" rx="13" ry="15" fill="#94D2BD"/>
<ellipse cx="605" cy="610" rx="13" ry="15" fill="#94D2BD"/>
<ellipse cx="649" cy="585" rx="13" ry="15" fill="#94D2BD"/>
<ellipse cx="517" cy="718" rx="13" ry="15" fill="#94D2BD"/>
<ellipse cx="561" cy="693" rx="13" ry="15" fill="#94D2BD"/>
<ellipse cx="605" cy="668" rx="13" ry="15" fill="#94D2BD"/>
<ellipse cx="649" cy="643" rx="13" ry="15" fill="#94D2BD"/>
</g>
<mask id="mask13_94_2" style="mask-type:alpha" maskUnits="userSpaceOnUse" x="380" y="492" width="144" height="231">
<rect x="380" y="492" width="144" height="231" fill="#A2CFF0"/>
</mask>
<g mask="url(#mask13_94_2)">
<rect x="380" y="492" width="144" height="231" fill="#A2CFF0"/>
<ellipse cx="378.361" cy="493" rx="10.3614" ry="15" fill="#81B3A2"/>
<ellipse cx="378.361" cy="547" rx="10.3614" ry="15" fill="#81B3A2"/>
<ellipse cx="413.431" cy="518" rx="10.3614" ry="15" fill="#81B3A2"/>
<ellipse cx="448.5" cy="489" rx="10.3614" ry="15" fill="#81B3A2"/>
<ellipse cx="378.361" cy="602" rx="10.3614" ry="15" fill="#81B3A2"/>
<ellipse cx="413.431" cy="573" rx="10.3614" ry="15" fill="#81B3A2"/>
<ellipse cx="448.5" cy="544" rx="10.3614" ry="15" fill="#81B3A2"/>
<ellipse cx="483.569" cy="515" rx="10.3614" ry="15" fill="#81B3A2"/>
<ellipse cx="518.639" cy="486" rx="10.3614" ry="15" fill="#81B3A2"/>
<ellipse cx="378.361" cy="660" rx="10.3614" ry="15" fill="#81B3A2"/>
<ellipse cx="413.431" cy="631" rx="10.3614" ry="15" fill="#81B3A2"/>
<ellipse cx="448.5" cy="602" rx="10.3614" ry="15" fill="#81B3A2"/>
<ellipse cx="483.569" cy="573" rx="10.3614" ry="15" fill="#81B3A2"/>
<ellipse cx="518.639" cy="544" rx="10.3614" ry="15" fill="#81B3A2"/>
<ellipse cx="413.431" cy="689" rx="10.3614" ry="15" fill="#81B3A2"/>
<ellipse cx="448.5" cy="660" rx="10.3614" ry="15" fill="#81B3A2"/>
<ellipse cx="483.569" cy="631" rx="10.3614" ry="15" fill="#81B3A2"/>
<ellipse cx="518.639" cy="602" rx="10.3614" ry="15" fill="#81B3A2"/>
<ellipse cx="483.569" cy="689" rx="10.3614" ry="15" fill="#81B3A2"/>
<ellipse cx="518.639" cy="660" rx="10.3614" ry="15" fill="#81B3A2"/>
</g>
<path d="M687 539.5C693.214 542.262 690.937 550.684 688.268 556.154C687.683 557.353 686.087 557.513 685.238 556.485C675.331 544.491 678.471 535.709 687 539.5Z" stroke="#FFB5D7" stroke-width="2"/>
<path d="M685.5 541C668.437 539.483 676.983 551.325 684.308 558.383C684.993 559.043 686.053 559.1 686.8 558.509C694.1 552.737 702.478 542.509 685.5 541Z" stroke="#DB95B5" stroke-width="2"/>
<path d="M689 538.5C679.236 537.053 681.814 549.666 684.985 558.01C685.461 559.263 687.03 559.625 688.007 558.708C696.799 550.464 701.572 540.362 689 538.5Z" stroke="#DB95B5" stroke-width="2"/>
<path d="M672.5 538.5C662.62 543.989 676.256 552.128 686.307 556.41C687.598 556.959 688.999 555.993 688.943 554.592C688.475 542.969 684.959 531.578 672.5 538.5Z" stroke="#FFB5D7" stroke-width="2"/>
<path d="M683.5 542.5C672.788 549.386 684.091 555.602 691.95 558.172C692.603 558.385 693.323 558.226 693.818 557.75C704.642 547.328 697.169 533.712 683.5 542.5Z" stroke="#FFB5D7" stroke-width="2"/>
<path d="M690.065 539.5C683.851 542.262 686.129 550.684 688.797 556.154C689.383 557.353 690.978 557.513 691.828 556.485C701.735 544.491 698.594 535.709 690.065 539.5Z" stroke="#FFB5D7" stroke-width="2"/>
<path d="M691.566 541C708.628 539.483 700.082 551.325 692.758 558.383C692.072 559.043 691.012 559.1 690.265 558.509C682.965 552.737 674.587 542.509 691.566 541Z" stroke="#DB95B5" stroke-width="2"/>
<path d="M688.066 538.5C697.83 537.053 695.252 549.666 692.081 558.01C691.605 559.263 690.036 559.625 689.058 558.708C680.266 550.464 675.494 540.362 688.066 538.5Z" stroke="#DB95B5" stroke-width="2"/>
<path d="M704.566 538.5C714.446 543.989 700.809 552.128 690.758 556.41C689.468 556.959 688.066 555.993 688.123 554.592C688.591 542.969 692.107 531.578 704.566 538.5Z" stroke="#FFB5D7" stroke-width="2"/>
<path d="M693.565 542.5C704.277 549.386 692.974 555.602 685.115 558.172C684.463 558.385 683.742 558.226 683.248 557.75C672.423 547.328 679.896 533.712 693.565 542.5Z" stroke="#FFB5D7" stroke-width="2"/>
<path d="M665.5 554.5H712.5" stroke="#FFB5D7" stroke-width="2" stroke-linecap="round"/>
<rect x="624" y="555" width="127" height="68" fill="#F7E8A4"/>
<rect x="624" y="555" width="52" height="68" fill="#E4D697"/>
<rect x="705" y="555" width="21" height="75" fill="#FFB5D7"/>
<rect x="640" y="555" width="21" height="75" fill="#DB95B5"/>
<rect x="446" y="612" width="365" height="207" fill="#F3D7FB"/>
<rect x="446" y="612" width="129" height="207" fill="#D6BCDE"/>
<rect x="671" y="612" width="66" height="207" fill="#DEA3EF"/>
<rect x="478" y="612" width="59" height="207" fill="#CB93DB"/>
<path d="M136 536C96.3999 530.8 116.5 569 162.5 582.5H172.5C172.5 545 147.5 538 136 536Z" fill="#701B52"/>
<rect x="80" y="579" width="225" height="201" fill="#FFB5D7"/>
<rect x="80" y="579" width="57" height="201" fill="#DB95B5"/>
<rect x="96" y="579" width="26" height="187" fill="#701B52"/>
<path d="M138.281 426.489C148.33 424.932 152.009 437.995 152.827 446.693C152.952 448.021 151.698 449.019 150.419 448.636C128.211 441.982 124.854 428.568 138.281 426.489Z" stroke="#FFB5D7" stroke-width="2"/>
<path d="M137.637 429.456C115.575 441.032 136.028 448.726 150.358 451.433C151.294 451.61 152.213 451.086 152.531 450.189C156.994 437.6 159.624 417.92 137.637 429.456Z" stroke="#DB95B5" stroke-width="2"/>
<path d="M139.913 423.736C126.646 429.737 140.729 443.558 151.132 451.01C152.222 451.791 153.735 451.244 154.081 449.949C158.651 432.814 156.856 416.072 139.913 423.736Z" stroke="#DB95B5" stroke-width="2"/>
<path d="M120.055 436.517C112.21 451.16 136.381 449.956 151.776 447.159C153.156 446.908 153.814 445.337 153.023 444.179C143.4 430.091 129.93 418.084 120.055 436.517Z" stroke="#FFB5D7" stroke-width="2"/>
<path d="M136.392 432.81C128.733 449.617 147.749 448.083 159.156 445.005C159.819 444.826 160.341 444.297 160.509 443.631C165.862 422.401 146.107 411.492 136.392 432.81Z" stroke="#FFB5D7" stroke-width="2"/>
<path d="M141.97 424.115C136.391 432.617 146.756 441.376 154.334 445.724C155.491 446.388 156.919 445.659 157.1 444.337C160.243 421.367 149.423 412.755 141.97 424.115Z" stroke="#FFB5D7" stroke-width="2"/>
<path d="M144.937 424.758C164.612 409.472 163.143 431.275 159.671 445.44C159.445 446.364 158.587 446.984 157.638 446.902C144.332 445.749 125.33 439.991 144.937 424.758Z" stroke="#DB95B5" stroke-width="2"/>
<path d="M138.789 424.46C149.746 414.87 156.491 433.413 158.965 445.969C159.224 447.284 158.1 448.435 156.778 448.213C139.289 445.275 124.795 436.707 138.789 424.46Z" stroke="#DB95B5" stroke-width="2"/>
<path d="M158.646 411.68C175.224 410.605 164.116 432.106 155.193 444.96C154.393 446.112 152.691 446.06 151.964 444.86C143.128 430.266 137.779 413.033 158.646 411.68Z" stroke="#FFB5D7" stroke-width="2"/>
<path d="M148.506 425.014C166.975 425.004 157.702 441.677 150.176 450.785C149.738 451.314 149.04 451.57 148.365 451.447C126.825 447.525 125.079 425.026 148.506 425.014Z" stroke="#FFB5D7" stroke-width="2"/>
<path d="M124.024 461.194L180.589 424.79" stroke="#FFB5D7" stroke-width="2" stroke-linecap="round"/>
<rect x="96" y="479.949" width="135" height="239" transform="rotate(-32.7085 96 479.949)" fill="#F7E8A4"/>
<rect x="166.325" y="434.787" width="23.6196" height="239" transform="rotate(-32.7085 166.325 434.787)" fill="#FFB5D7"/>
<rect x="96" y="479.949" width="49" height="239" transform="rotate(-32.7085 96 479.949)" fill="#E4D697"/>
<rect x="108.681" y="471.806" width="15.5979" height="239" transform="rotate(-32.7085 108.681 471.806)" fill="#DB95B5"/>
<path d="M349.5 460L354 505L384 506.5V460H349.5Z" fill="#EAE9E8"/>
<path d="M384 460H349.5L350.7 472H384V460Z" fill="#FDFBF8"/>
<path d="M396.039 453C368.546 453 371.081 487.363 373.226 506H403.643C422.362 490.624 437.571 453 404.813 453H396.039Z" fill="#FDFBF8"/>
<path d="M396.039 453C368.546 453 371.081 487.363 373.226 506H387C401.5 492.5 409.5 453 396.039 453Z" fill="#CFCECE"/>
<path d="M343.961 456C371.454 456 368.919 490.363 366.774 509H336.357C317.638 493.624 302.429 456 335.187 456H343.961Z" fill="#FDFBF8"/>
<path d="M343.961 456C371.454 456 368.919 490.363 366.774 509H353C338.5 495.5 330.5 456 343.961 456Z" fill="#CFCECE"/>
<path d="M355.767 478.879C368.545 478.879 372.246 496.626 372.5 505.5L359.57 504.739C359.57 486.485 348.921 479.893 343.597 478.879H355.767Z" fill="#D9D9D9"/>
<path d="M343.597 478.879H355.767C347.856 478.879 345.879 489.02 345.879 494.091C345.879 495.359 345.118 497.894 342.076 497.894H328.385C335.687 497.894 337.512 490.795 337.512 487.246C337.512 480.552 341.569 478.879 343.597 478.879Z" fill="#FDFBF8"/>
<path d="M330.667 492.57C333.709 492.57 336.752 487.246 336.752 484.964C336.752 488.536 338.228 497.341 341.432 497.894H342.076C341.854 497.931 341.64 497.93 341.432 497.894H326.864C323.213 497.894 322.807 489.274 323.061 484.964C323.314 488.006 326.103 492.57 330.667 492.57Z" fill="#EAE9E8"/>
<path d="M384.733 478.879C371.955 478.879 368.253 496.626 368 505.5L380.93 504.739C380.93 486.485 391.578 479.893 396.903 478.879H384.733Z" fill="#D9D9D9"/>
<path d="M396.903 478.879H384.733C392.643 478.879 394.621 489.02 394.621 494.091C394.621 495.359 395.382 497.894 398.424 497.894H412.115C404.813 497.894 402.988 490.795 402.988 487.246C402.988 480.552 398.931 478.879 396.903 478.879Z" fill="#FDFBF8"/>
<path d="M409.833 492.57C406.791 492.57 403.748 487.246 403.748 484.964C403.748 488.536 402.272 497.341 399.068 497.894H398.424C398.646 497.931 398.86 497.93 399.068 497.894H413.636C417.287 497.894 417.693 489.274 417.439 484.964C417.186 488.006 414.397 492.57 409.833 492.57Z" fill="#EAE9E8"/>
<mask id="mask14_94_2" style="mask-type:alpha" maskUnits="userSpaceOnUse" x="274" y="508" width="193" height="134">
<rect x="274" y="508" width="193" height="134" fill="#832161"/>
</mask>
<g mask="url(#mask14_94_2)">
<rect x="274" y="508" width="193" height="134" fill="#832161"/>
</g>
<mask id="mask15_94_2" style="mask-type:alpha" maskUnits="userSpaceOnUse" x="274" y="508" width="81" height="134">
<rect x="274" y="508" width="81" height="134" fill="#701B52"/>
</mask>
<g mask="url(#mask15_94_2)">
<rect x="274" y="509" width="81" height="134" fill="#701B52"/>
</g>
<rect x="274" y="508" width="193" height="39" fill="#64184A"/>
<mask id="mask16_94_2" style="mask-type:alpha" maskUnits="userSpaceOnUse" x="267" y="503" width="207" height="38">
<rect x="267" y="503" width="207" height="38" fill="#832161"/>
</mask>
<g mask="url(#mask16_94_2)">
<rect x="267" y="503" width="207" height="38" fill="#832161"/>
</g>
<mask id="mask17_94_2" style="mask-type:alpha" maskUnits="userSpaceOnUse" x="267" y="503" width="87" height="38">
<rect x="267" y="503" width="87" height="38" fill="#701B52"/>
</mask>
<g mask="url(#mask17_94_2)">
<rect x="267" y="503" width="87" height="38" fill="#701B52"/>
</g>
<mask id="mask18_94_2" style="mask-type:alpha" maskUnits="userSpaceOnUse" x="188" y="639" width="350" height="337">
<rect x="188" y="639" width="350" height="337" fill="#EE9B00"/>
</mask>
<g mask="url(#mask18_94_2)">
<rect x="188" y="639" width="350" height="337" fill="#EE9B00"/>
<rect x="456.336" y="458" width="36" height="371" transform="rotate(45 456.336 458)" fill="#EE8434"/>
<rect x="497.349" y="499.012" width="36" height="371" transform="rotate(45 497.349 499.012)" fill="#EE8434"/>
<rect x="538.361" y="540.024" width="36" height="371" transform="rotate(45 538.361 540.024)" fill="#EE8434"/>
<rect x="579.373" y="581.037" width="36" height="371" transform="rotate(45 579.373 581.037)" fill="#EE8434"/>
<rect x="620.385" y="622.049" width="36" height="371" transform="rotate(45 620.385 622.049)" fill="#EE8434"/>
<rect x="661.397" y="663.061" width="36" height="371" transform="rotate(45 661.397 663.061)" fill="#EE8434"/>
<rect x="702.41" y="704.073" width="36" height="371" transform="rotate(45 702.41 704.073)" fill="#EE8434"/>
<rect x="743.422" y="745.085" width="36" height="371" transform="rotate(45 743.422 745.085)" fill="#EE8434"/>
<rect x="784.434" y="786.098" width="36" height="371" transform="rotate(45 784.434 786.098)" fill="#EE8434"/>
</g>
<mask id="mask19_94_2" style="mask-type:alpha" maskUnits="userSpaceOnUse" x="188" y="639" width="152" height="337">
<rect x="188" y="639" width="152" height="337" fill="#D68C02"/>
</mask>
<g mask="url(#mask19_94_2)">
<rect x="188" y="639" width="152" height="337" fill="#D68C02"/>
<rect x="239.966" y="520.744" width="36" height="371" transform="rotate(54.9009 239.966 520.744)" fill="#DC7A30"/>
<rect x="273.315" y="568.198" width="36" height="371" transform="rotate(54.9009 273.315 568.198)" fill="#DC7A30"/>
<rect x="306.665" y="615.651" width="36" height="371" transform="rotate(54.9009 306.665 615.651)" fill="#DC7A30"/>
<rect x="340.014" y="663.104" width="36" height="371" transform="rotate(54.9009 340.014 663.104)" fill="#DC7A30"/>
<rect x="373.364" y="710.557" width="36" height="371" transform="rotate(54.9009 373.364 710.557)" fill="#DC7A30"/>
<rect x="406.713" y="758.01" width="36" height="371" transform="rotate(54.9009 406.713 758.01)" fill="#DC7A30"/>
<rect x="440.063" y="805.464" width="36" height="371" transform="rotate(54.9009 440.063 805.464)" fill="#DC7A30"/>
<rect x="473.412" y="852.917" width="36" height="371" transform="rotate(54.9009 473.412 852.917)" fill="#DC7A30"/>
<rect x="506.762" y="900.37" width="36" height="371" transform="rotate(54.9009 506.762 900.37)" fill="#DC7A30"/>
</g>
<mask id="mask20_94_2" style="mask-type:alpha" maskUnits="userSpaceOnUse" x="476" y="622" width="354" height="413">
<rect x="476.039" y="702.696" width="134" height="413" transform="rotate(-36.4949 476.039 702.696)" fill="#0A9396"/>
</mask>
<g mask="url(#mask20_94_2)">
<rect x="476.039" y="702.696" width="134" height="413" transform="rotate(-36.4949 476.039 702.696)" fill="#0A9396"/>
<path d="M839.445 615.945V651.945L468.445 651.945L468.445 615.945L839.445 615.945Z" fill="#1A686A"/>
<path d="M839.445 673.945V709.945L468.445 709.945L468.445 673.945L839.445 673.945Z" fill="#1A686A"/>
<path d="M839.445 731.945V767.945L468.445 767.945L468.445 731.945L839.445 731.945Z" fill="#1A686A"/>
<path d="M839.445 789.945V825.945L468.445 825.945L468.445 789.945L839.445 789.945Z" fill="#1A686A"/>
<path d="M839.445 847.945V883.945L468.445 883.945L468.445 847.945L839.445 847.945Z" fill="#1A686A"/>
<path d="M839.445 905.945V941.945L468.445 941.945L468.445 905.945L839.445 905.945Z" fill="#1A686A"/>
<path d="M593.38 636L542.477 792.5L571.33 831.5L617.794 669L593.38 636Z" fill="#BD2525"/>
<rect x="547.489" y="713.454" width="27.7128" height="29" rx="5" transform="rotate(-39.7325 547.489 713.454)" fill="#9D2929"/>
<rect x="584.12" y="683.008" width="27.7128" height="29" rx="5" transform="rotate(-39.7325 584.12 683.008)" fill="#9D2929"/>
<rect x="603.877" y="742.005" width="32" height="25.1147" rx="5" transform="rotate(-129.733 603.877 742.005)" fill="#9D2929"/>
<rect x="568.721" y="699.708" width="32" height="25.1147" rx="5" transform="rotate(-129.733 568.721 699.708)" fill="#9D2929"/>
<rect width="29.9332" height="27.127" rx="5" transform="matrix(0.0202586 -0.999795 0.986646 0.16288 571.617 734.322)" fill="#852525"/>
<rect width="29.9332" height="27.127" rx="5" transform="matrix(0.0202586 -0.999795 0.986646 0.16288 572.47 692.237)" fill="#852525"/>
<rect width="29.9332" height="27.127" rx="5" transform="matrix(-0.986646 -0.16288 0.0202586 -0.999795 620.986 719.951)" fill="#852525"/>
<rect width="29.9332" height="27.127" rx="5" transform="matrix(-0.986646 -0.16288 0.0202586 -0.999795 579.455 713.095)" fill="#852525"/>
<rect width="28.8444" height="28.0791" rx="5" transform="matrix(0.28531 -0.958435 0.915645 0.401987 564.258 723.822)" fill="#A72E2E"/>
<rect width="28.8444" height="28.0791" rx="5" transform="matrix(0.28531 -0.958435 0.915645 0.401987 573.26 693.585)" fill="#A72E2E"/>
<rect width="30.9839" height="26.1402" rx="5" transform="matrix(-0.915645 -0.401987 0.28531 -0.958435 611.7 726.09)" fill="#A72E2E"/>
<rect width="30.9839" height="26.1402" rx="5" transform="matrix(-0.915645 -0.401987 0.28531 -0.958435 580.67 712.468)" fill="#A72E2E"/>
<path d="M580.399 705.807C579.648 702.597 582.884 699.908 585.902 701.233L598.756 706.876C601.478 708.071 601.991 711.714 599.705 713.615L590.049 721.64C587.762 723.541 584.274 722.371 583.597 719.475L580.399 705.807Z" fill="#852525"/>
<path d="M582.574 691.668C585.412 691.367 587.643 694.051 586.828 696.787L583.1 709.311C582.189 712.373 578.232 713.183 576.19 710.726L566.924 699.578C564.882 697.121 566.402 693.38 569.579 693.043L582.574 691.668Z" fill="#9D2929"/>
<path d="M572.995 709.439C570.055 708.844 568.564 705.62 570.179 703.351L577.542 693.008C579.313 690.52 583.418 691.039 584.751 693.919L590.788 706.973C592.12 709.853 589.619 712.801 586.395 712.149L572.995 709.439Z" fill="#852525"/>
<path d="M601.913 704.792C604.054 707.368 602.905 711.228 599.903 711.546L586.817 712.931C583.968 713.233 581.562 710.085 582.426 707.185L586.18 694.573C587.043 691.674 590.55 691.121 592.582 693.565L601.913 704.792Z" fill="#9D2929"/>
<path d="M579.125 697.306C576.26 696.049 575.424 692.475 577.576 690.686L587.298 682.605C589.572 680.716 593.433 682.219 594.147 685.272L597.367 699.035C598.081 702.088 595.093 704.317 592.067 702.988L579.125 697.306Z" fill="#852525"/>
<path d="M589.673 697.246C592.189 700.273 592.033 704.387 589.537 706.462C587.041 708.537 582.968 707.937 580.452 704.911C577.936 701.884 578.092 697.77 580.588 695.695C583.084 693.62 587.157 694.219 589.673 697.246Z" fill="#9D2929" stroke="#A72E2E"/>
</g>
<mask id="mask21_94_2" style="mask-type:alpha" maskUnits="userSpaceOnUse" x="427" y="691" width="310" height="380">
<rect x="427" y="738.976" width="80" height="413" transform="rotate(-36.4949 427 738.976)" fill="#097779"/>
</mask>
<g mask="url(#mask21_94_2)">
<rect x="427" y="738.976" width="80" height="413" transform="rotate(-36.4949 427 738.976)" fill="#097779"/>
<path d="M520.639 579.828L556.451 595.982L403.897 934.166L368.085 918.012L520.639 579.828Z" fill="#175657"/>
<path d="M578.336 605.854L614.147 622.009L461.593 960.193L425.782 944.038L578.336 605.854Z" fill="#175657"/>
<path d="M636.032 631.881L671.844 648.036L519.29 986.219L483.478 970.065L636.032 631.881Z" fill="#175657"/>
<path d="M693.728 657.908L729.54 674.062L576.986 1012.25L541.174 996.092L693.728 657.908Z" fill="#175657"/>
<path d="M751.425 683.935L787.236 700.089L634.682 1038.27L598.871 1022.12L751.425 683.935Z" fill="#175657"/>
<path d="M809.121 709.961L844.932 726.116L692.378 1064.3L656.567 1048.14L809.121 709.961Z" fill="#175657"/>
<path d="M500 837.649L549.697 770.313L577.923 808.465L525.044 871.5L500 837.649Z" fill="#8A1717"/>
</g>
<path d="M951 745C941.8 766.6 909.5 778.333 894.5 781.5L916 797C947.6 789.8 965.833 764 971 752C967.8 755.6 958 757.167 953.5 757.5L951 745Z" fill="#FDFBF8"/>
<path d="M705.5 790H755L721 738H683.5C652.697 738 685.333 772.333 705.5 790Z" fill="#EAE9E8"/>
<path d="M719 738C701 738 727.834 769.833 743.5 786L735.5 752C734.5 747.5 737 738 719 738Z" fill="#CFCECE"/>
<path d="M867.5 744L805 784.284L812.5 818L903 789.976L867.5 744Z" fill="#EAE9E8"/>
<path d="M882 694V799.5L821 791.5C853 777 843.722 759.722 829.5 745.5C814 730 803.699 694 836.061 694H882Z" fill="#CFCFCE"/>
<path d="M836 694H904C904 694 942.5 703.5 932 747C921.5 790.5 882 799 882 799H836C836 799 866 783.5 875.5 747C885 710.5 836 694 836 694Z" fill="#FDFBF8"/>
<path d="M836 799H882C882 799 916.876 791.495 929.797 754.5C910.034 774.1 881.223 768.667 869.288 763.5C856.848 788.229 836 799 836 799Z" fill="#EAE9E8"/>
<path d="M839.656 784.052L797.042 794.355L801.496 723.582C801.504 723.552 801.517 723.507 801.535 723.448C801.572 723.327 801.629 723.146 801.711 722.915C801.874 722.451 802.135 721.785 802.521 720.982C803.293 719.377 804.563 717.234 806.554 715.09C810.524 710.815 817.392 706.5 829 706.5C837.075 706.5 842.869 707.992 846.684 710.526C850.476 713.044 852.352 716.614 852.563 720.9C852.776 725.211 851.302 730.273 848.319 735.713C845.34 741.146 840.871 746.921 835.146 752.646C828.492 759.301 825.498 764.644 824.842 768.948C824.178 773.296 825.911 776.502 828.478 778.809C831.025 781.098 834.402 782.516 837.109 783.36C838.054 783.655 838.924 783.882 839.656 784.052Z" fill="#CFCECE" stroke="#FDFBF8"/>
<path d="M737.11 728.554C743.045 711.794 761.58 706 779.36 706H828C828 706 806.22 725.846 806.22 754C806.22 782.154 828 802 828 802H752C752 802 733 788.154 733 754C733 743.746 734.713 735.322 737.11 728.554Z" fill="#EAE9E8"/>
<path d="M828 706H779.36C761.58 706 743.043 711.797 737.108 728.558C736.451 730.413 735.846 732.393 735.313 734.5C740.958 740.167 763.373 749.3 807.874 740.5C812.956 719.708 828 706 828 706Z" fill="#FDFBF8"/>
<rect x="757" y="803" width="244" height="204" fill="#A72E2E"/>
<rect x="643" y="803" width="118" height="204" fill="#852525"/>
<rect x="643" y="803" width="358" height="46" fill="#762121"/>
<rect x="757" y="779" width="257" height="61" fill="#A72E2E"/>
<rect x="630" y="779" width="131" height="61" fill="#852525"/>
<rect x="862" y="779" width="56" height="195" fill="#FDFBF8"/>
<rect x="676" y="779" width="33" height="190" fill="#EAE9E8"/>
<path d="M-20.9085 636.086C-4.00548 613.311 24.7401 650.848 37 672.464L32.3047 675.628C18.4797 660.075 -9.63982 633.081 -11.5179 649.53C-13.396 665.979 14.3061 672.728 28.392 674.046L25.2618 678C-3.69246 672.464 -42.0373 664.556 -20.9085 636.086Z" fill="#FCE762"/>
<path d="M28.3921 674.046C14.3062 672.728 -13.3959 665.98 -11.5178 649.53C-12.6785 654.924 -13.8999 666.387 -9.49989 669.088C0.667475 673.206 13.7118 675.792 25.2619 678L28.3921 674.046Z" fill="#E6D35A"/>
<path d="M32.3047 675.627L37 672.464C35.4239 669.685 33.5753 666.643 31.5144 663.5C27.343 659.875 16.9 652.612 8.5 652.562C16.8572 659.2 26.0458 668.586 32.3047 675.627Z" fill="#E6D35A"/>
<path d="M95.9085 636.086C79.0055 613.311 50.2599 650.848 38 672.464L42.6953 675.628C56.5203 660.075 84.6398 633.081 86.5179 649.53C88.396 665.979 60.6939 672.728 46.608 674.046L49.7382 678C78.6925 672.464 117.037 664.556 95.9085 636.086Z" fill="#FCE762"/>
<path d="M49.7381 678L46.6079 674.046C57.7914 672.999 77.5582 668.53 84.2891 658.5C84.29 660.833 86.2625 665.2 94.1458 664C83.9033 671.298 65.4399 674.998 49.7381 678Z" fill="#E6D35A"/>
<path d="M42.6953 675.628L38 672.464C44.6259 660.782 56.067 644.449 67.8515 635.5C80.0791 634.774 84.9842 642.786 86.2421 648.02C86.3625 648.476 86.455 648.979 86.5179 649.53C86.4617 649.065 86.3711 648.557 86.2421 648.02C82.7705 634.878 56.0568 660.596 42.6953 675.628Z" fill="#D7C554"/>
<rect x="-87" y="670" width="261" height="317" fill="#94D2BD"/>
<rect x="-87" y="670" width="114" height="317" fill="#81B3A2"/>
<rect x="82" y="670" width="44" height="339" fill="#FCE762"/>
<path d="M214.884 698.5C254.884 698.5 222.884 747.5 186.884 756L170.884 755C158.884 717 174.218 701.5 183.384 698.5H214.884Z" fill="#0A9396"/>
<path d="M186.884 756L170.884 755C164.629 735.192 165.801 721.497 169.655 712.5C174.103 715.333 185.7 719.8 196.5 715L186.884 756Z" fill="#088184"/>
<path d="M109.733 691C63.916 691 94.0115 746.739 141.176 758H165.32C173.405 715.21 150.347 695.504 137.807 691H109.733Z" fill="#0A9396"/>
<path d="M139.587 757.602C140.115 757.74 140.644 757.873 141.176 758H139.513C139.538 757.867 139.563 757.735 139.587 757.602C93.3423 745.489 64.4328 691 109.733 691H112C124.501 695.49 147.455 715.088 139.587 757.602Z" fill="#097779"/>
<path d="M124 698.5C84 698.5 116 747.5 152 756L168 755C180 717 164.667 701.5 155.5 698.5H124Z" fill="#088184"/>
<path d="M155.5 698.5H124C113.182 698.5 107.631 702.084 106 707.481C110.667 709.475 123.5 712.266 137.5 707.481L155.5 698.5Z" fill="#0A9396"/>
<path d="M155.5 698.5H151.5C117.822 698.5 135.184 733.236 163 749.289L168 755C180 717 167 698.5 155.5 698.5Z" fill="#097779"/>
<path d="M242.267 691C288.084 691 257.989 746.739 210.824 758H186.68C178.595 715.21 201.653 695.504 214.193 691H242.267Z" fill="#0A9396"/>
<path d="M210.824 758H186.68L226.5 728.5C228.5 744.1 244.418 738.333 252.127 733.5C242.318 744.295 227.658 753.981 210.824 758Z" fill="#088184"/>
<path d="M186.608 757.612C186.093 757.747 185.576 757.876 185.057 758H186.68C186.656 757.871 186.631 757.741 186.608 757.612C232.875 745.52 261.813 691 216.5 691H214.193C203.034 691 178.742 715.064 186.608 757.612Z" fill="#097779"/>
<mask id="mask22_94_2" style="mask-type:alpha" maskUnits="userSpaceOnUse" x="19" y="748" width="332" height="238">
<rect x="19" y="748" width="332" height="238" fill="#052B3A"/>
</mask>
<g mask="url(#mask22_94_2)">
<rect x="19" y="748" width="332" height="238" fill="#052B3A"/>
<ellipse cx="166" cy="800" rx="13" ry="15" fill="#FCE762"/>
<ellipse cx="210" cy="775" rx="13" ry="15" fill="#FCE762"/>
<ellipse cx="254" cy="750" rx="13" ry="15" fill="#FCE762"/>
<ellipse cx="166" cy="742" rx="13" ry="15" fill="#FCE762"/>
<ellipse cx="166" cy="858" rx="13" ry="15" fill="#FCE762"/>
<ellipse cx="210" cy="833" rx="13" ry="15" fill="#FCE762"/>
<ellipse cx="254" cy="808" rx="13" ry="15" fill="#FCE762"/>
<ellipse cx="298" cy="783" rx="13" ry="15" fill="#FCE762"/>
<ellipse cx="342" cy="758" rx="13" ry="15" fill="#FCE762"/>
<ellipse cx="166" cy="916" rx="13" ry="15" fill="#FCE762"/>
<ellipse cx="210" cy="891" rx="13" ry="15" fill="#FCE762"/>
<ellipse cx="254" cy="866" rx="13" ry="15" fill="#FCE762"/>
<ellipse cx="298" cy="841" rx="13" ry="15" fill="#FCE762"/>
<ellipse cx="342" cy="816" rx="13" ry="15" fill="#FCE762"/>
<ellipse cx="166" cy="974" rx="13" ry="15" fill="#FCE762"/>
<ellipse cx="210" cy="949" rx="13" ry="15" fill="#FCE762"/>
<ellipse cx="254" cy="924" rx="13" ry="15" fill="#FCE762"/>
<ellipse cx="298" cy="899" rx="13" ry="15" fill="#FCE762"/>
<ellipse cx="342" cy="874" rx="13" ry="15" fill="#FCE762"/>
</g>
<mask id="mask23_94_2" style="mask-type:alpha" maskUnits="userSpaceOnUse" x="19" y="748" width="154" height="238">
<rect x="19" y="748" width="154" height="238" fill="#001219"/>
</mask>
<g mask="url(#mask23_94_2)">
<rect x="19" y="748" width="154" height="238" fill="#001219"/>
<ellipse cx="27.3614" cy="749" rx="10.3614" ry="15" fill="#CDBC52"/>
<ellipse cx="27.3614" cy="803" rx="10.3614" ry="15" fill="#CDBC52"/>
<ellipse cx="62.4307" cy="774" rx="10.3614" ry="15" fill="#CDBC52"/>
<ellipse cx="97.5001" cy="745" rx="10.3614" ry="15" fill="#CDBC52"/>
<ellipse cx="27.3614" cy="858" rx="10.3614" ry="15" fill="#CDBC52"/>
<ellipse cx="62.4307" cy="829" rx="10.3614" ry="15" fill="#CDBC52"/>
<ellipse cx="97.5001" cy="800" rx="10.3614" ry="15" fill="#CDBC52"/>
<ellipse cx="132.569" cy="771" rx="10.3614" ry="15" fill="#CDBC52"/>
<ellipse cx="167.639" cy="742" rx="10.3614" ry="15" fill="#CDBC52"/>
<ellipse cx="27.3614" cy="916" rx="10.3614" ry="15" fill="#CDBC52"/>
<ellipse cx="62.4307" cy="887" rx="10.3614" ry="15" fill="#CDBC52"/>
<ellipse cx="97.5001" cy="858" rx="10.3614" ry="15" fill="#CDBC52"/>
<ellipse cx="132.569" cy="829" rx="10.3614" ry="15" fill="#CDBC52"/>
<ellipse cx="167.639" cy="800" rx="10.3614" ry="15" fill="#CDBC52"/>
<ellipse cx="62.4307" cy="945" rx="10.3614" ry="15" fill="#CDBC52"/>
<ellipse cx="97.5001" cy="916" rx="10.3614" ry="15" fill="#CDBC52"/>
<ellipse cx="132.569" cy="887" rx="10.3614" ry="15" fill="#CDBC52"/>
<ellipse cx="167.639" cy="858" rx="10.3614" ry="15" fill="#CDBC52"/>
<ellipse cx="132.569" cy="945" rx="10.3614" ry="15" fill="#CDBC52"/>
<ellipse cx="167.639" cy="916" rx="10.3614" ry="15" fill="#CDBC52"/>
</g>
<rect x="247" y="748" width="51" height="226" fill="#0A9396"/>
<rect x="64" y="748" width="37" height="226" fill="#097779"/>
<path d="M93.5001 834C91 834 90.8001 839.4 94.0001 839C96.3606 838.705 94.5 834 98 834C100.5 834 100.5 839.5 98 839.5M91 831.5L100 831.5C97.8333 831.5 94 831.5 94.0001 829C94.0002 826.7 98 827 100 827M95 824.5C93.5087 823.754 93.3464 820.5 95.5 820.5M100 820.5C99.4084 820.5 98.847 820.5 98.3243 820.5M95.5 820.5C95.6735 820.5 95.8648 820.5 96.0724 820.5M95.5 820.5L96.0724 820.5M96.0724 820.5C96.3816 821 96.5 822 97 823.5C97.4566 824.87 99.5 824.5 99.5 823C99.5 821 98.7162 820.5 98.3243 820.5M96.0724 820.5C96.6906 820.5 97.454 820.5 98.3243 820.5M93.5 817.5L95.5 817.5M100 817.5L95.5 817.5M95.5 817.5C94 817.5 93.1489 813.5 95.5 813.5C98.7 813.5 99.8333 813.5 100 813.5M98.5 806C99.5 806.5 100.336 809.123 98.5 810.5C97.8333 811 97 811 96.5 811M96.5 811C95 811 94.1327 809.796 94 809C93.8333 808 94.1 806 96.5 806L96.5 811ZM100 800L91.5 800L99.5 796.706L99.5 796.265L91.5 792.5L100 792.5M100 789.5L93.5 789.5M92.5 789.5L91 789.5M93.5 786.5L95.5 786.5M95.5 786.5L100 786.5M95.5 786.5C94 786.5 93.1489 782.5 95.5 782.5L100 782.5M100 775L97.75 775M91.5 775L95.5 775M95.5 775C93.5 776 93.5 778.5 95 779.5C96.2573 780.338 99 780 99.5 778.5C99.8333 777.667 99.95 775.8 97.75 775M95.5 775L97.75 775M93.5 772L95.5 772M100 772L95.5 772M95.5 772C95 771.833 94 771.1 94 769.5M98.5 763.5C99.5 764 100.336 766.623 98.5 768C97.8333 768.5 97 768.5 96.5 768.5M96.5 768.5C95 768.5 94.1327 767.296 94 766.5C93.8333 765.5 94.1 763.5 96.5 763.5L96.5 768.5ZM95 761C93.5087 760.254 93.3464 757 95.5 757L96.0724 757M96.0724 757C96.3816 757.5 96.5 758.5 97 760C97.4566 761.37 99.5 761 99.5 759.5C99.5 757.5 98.7162 757 98.3243 757M96.0724 757L98.3243 757M98.3243 757L100 757M93.5 750L98 750M100 750L98 750M93.5 754L98 754C98.5 754 99.5 753.7 99.5 752.5C99.5 751 99 750.5 98 750" stroke="#0B888A"/>
<path d="M113 805V748H138V805L125.5 794.407L113 805Z" fill="#097779"/>
<path d="M438.852 833C451.519 831.5 474.252 826.1 463.852 816.5C453.452 806.9 440.519 821.833 435.352 830.5" stroke="#F2545B" stroke-width="4" stroke-linecap="round"/>
<path d="M534 839L439 830.862" stroke="#F2545B" stroke-width="4" stroke-linecap="round"/>
<rect x="284" y="837" width="290" height="162" fill="#E9D8A6"/>
<rect x="284" y="837" width="79" height="162" fill="#CABB91"/>
<path d="M465 835C465 833.895 464.105 833 463 833C461.895 833 461 833.895 461 835H465ZM465 1011V835H461V1011H465Z" fill="#F2545B"/>
<path d="M431.572 832.999C432.676 832.959 433.539 832.031 433.499 830.928C433.459 829.824 432.531 828.961 431.428 829.001L431.572 832.999ZM321.072 836.999L431.572 832.999L431.428 829.001L320.928 833.001L321.072 836.999Z" fill="#F2545B"/>
<path d="M463 835L434 830" stroke="#F2545B" stroke-width="4" stroke-linecap="round"/>
<path d="M323 835C323 833.895 322.105 833 321 833C319.895 833 319 833.895 319 835H323ZM323 1011V835H319V1011H323Z" fill="#D94A50"/>
<path d="M436.5 834.5C430.833 832.167 422.9 827.7 436.5 828.5" stroke="#D94A50" stroke-width="4" stroke-linecap="round"/>
<path d="M429.5 833.5C432.5 833.833 438.6 833.6 439 830C439.5 825.5 433.5 821.5 432.5 826.5" stroke="#F2545B" stroke-width="4" stroke-linecap="round"/>
<path d="M429 833C416.333 831.5 393.6 826.1 404 816.5C414.4 806.9 427.333 821.833 432.5 830.5" stroke="#F2545B" stroke-width="4" stroke-linecap="round"/>
<rect x="381" y="875" width="49" height="29" rx="4" fill="#FDFBF8"/>
<path d="M397.317 885.888C396.867 882.513 395.069 877.525 391.472 884.567C386.975 893.37 403.162 885.448 395.968 893.811C390.213 900.501 389.673 895.131 390.123 891.61M403.162 893.811C403.162 895.571 403.792 898.212 406.31 894.691C408.828 891.17 409.457 885.301 409.457 882.807M416.651 884.127C414.853 888.529 412.604 897.156 418 896.452" stroke="#EAE9E8" stroke-linecap="round"/>
<path d="M409.5 883C409.667 884.482 410 892.988 416.5 884.5" stroke="#EAE9E8" stroke-linecap="round"/>
<path d="M400 896C400 896.552 399.552 897 399 897C398.448 897 398 896.552 398 896C398 895.448 398.448 895 399 895C399.552 895 400 895.448 400 896Z" fill="#EAE9E8"/>
<path d="M422.5 896C422.5 896.552 422.052 897 421.5 897C420.948 897 420.5 896.552 420.5 896C420.5 895.448 420.948 895 421.5 895C422.052 895 422.5 895.448 422.5 896Z" fill="#EAE9E8"/>
</g>
</svg>
