<svg width="1920" height="960" viewBox="0 0 1920 960" fill="none" xmlns="http://www.w3.org/2000/svg">
<mask id="mask0_108_7" style="mask-type:alpha" maskUnits="userSpaceOnUse" x="0" y="0" width="1920" height="960">
<rect width="1920" height="960" fill="#020A3D"/>
</mask>
<g mask="url(#mask0_108_7)">
<rect width="1920" height="960" fill="#020A3D"/>
<path d="M1752 997C1790.17 982 1865.5 962.5 1872 894C1880.63 803 1959.83 854.667 2001 864L1957 109C1916 92.5 1771.5 175.9 1801.5 217.5C1831.5 259.1 1939.67 203.167 1988 171L2052.5 252C2024.33 230 1971.61 330.011 1885 302.5C1800 275.5 1827.5 454 1948.5 354L2078.5 313.5C2131.17 328.333 2177.33 363.356 1957 437.5C1747.5 508 1770.5 460.5 1780 432C1789.5 403.5 1790 378.5 1761.5 354C1733 329.5 1689.79 367.153 1684.5 398.5C1676.9 443.54 1716.06 485.658 1670.5 500C1643.5 508.5 1596.5 398.5 1566.5 483C1543.83 546.853 1485.17 542.5 1457 491.5C1442.09 464.5 1419.93 454.255 1378.5 483C1354 500 1308 483 1326.5 419C1338.17 374.833 1380.6 303.2 1457 370C1533.4 436.8 1613.17 364.5 1643.5 320C1676.5 265.5 1767.5 286.5 1727 232.5C1637.5 72.9999 1803.77 135.08 1827.5 70C1860.5 -20.5 1767.17 -64.3332 1704.5 -63.4999C1732 -19.6665 1750.4 66.4001 1604 60C1457.6 53.5999 1523.67 -25 1575 -63.4999L1007 -36.5C1007 -6 937.5 92.8209 1014.5 105.5C1091.5 118.179 1140.75 82.4359 1104 24C1032 -90.5001 1082 -259.5 1176.5 -13.5C1252.1 183.3 1348.5 18.5 1354 -63.4999L1443 -20.5C1404.17 41.5 1361.1 158.9 1499.5 132.5C1637.9 106.1 1619.17 188.167 1592.5 232.5C1564.83 277.833 1489.5 345.2 1409.5 252C1329.5 158.8 1308.5 222.167 1308 265.5C1303.5 342 1257.9 476 1111.5 400C965.1 324 874.5 408.333 859 455C842 518.5 832 548.5 749 541.5C700 530.5 660.6 525.4 681 593C701.4 660.6 763.833 647.833 792.5 633C846 609 889 699.5 962 699.5C1008.67 699.5 1085 686.2 1017 633C834.6 489 947.667 454.333 1027 455C1068.5 455.349 1117.5 490.4 1121.5 558C1125.5 625.6 1205.5 569.5 1245 533C1264 515.443 1316.5 528.5 1398 593C1479.5 657.5 1509.5 760.775 1509.5 851C1509.5 961 1594 891 1656 803C1718 715 1591 682.5 1557.5 651.5C1494.7 594.3 1583.67 565.333 1636 558C1670.83 557.333 1735.9 567.7 1717.5 614.5C1694.5 673 1792 722.5 1847 682.5C1891 650.5 1865.33 623.833 1847 614.5C1797.17 599.5 1727.4 562.2 1847 533C1966.6 503.8 2032.17 716.5 2045 813C1879.8 623 1687.83 905.5 1612.5 1070.5C1413.33 1107.67 1022 1141.4 1050 979C1078 816.6 1145 938 1175 1019C1218.17 1038.5 1295.2 1065.8 1258 1019C1211.5 960.5 1178.5 809.5 1245 803C1311.5 796.5 1338 838 1326.5 972.5C1317.3 1080.1 1400.33 1057.33 1443 1032.5C1450.67 974.833 1445.1 827.5 1361.5 699.5C1277.9 571.5 1219 646.167 1200 699.5C1192.17 734 1150.2 796.6 1045 771C913.5 739 1042 1065.5 918.5 1032.5C795 999.5 947 773 812.5 739.5C678 706 617.167 853.369 701 831.5C724 825.5 802.459 835.5 779.5 898C765.541 936 719.1 956.2 599.5 891C479.9 825.8 477.333 918.166 491 972.5C515.5 1000.17 540.9 1050.9 446.5 1032.5C328.5 1009.5 310 766 461 784.5C612 803 666 699.5 579.5 633C409.1 497 466.167 427.667 516 410C660.5 350 692.5 546.5 792.5 410C840.679 344.235 932 265.5 1088.5 313.5C1245 361.5 1258 87.5 1067 184.5C914.2 262.1 892.333 190.833 900.5 145.5C908.833 106.833 905.5 10.9 825.5 -63.4999C677.5 -209.5 699.5 -124.333 729 -63.4999C789.5 48.8335 859.5 279.1 655.5 301.5C400.5 329.5 857.5 29.5 621 68.0001C431.8 98.8002 390.833 55.1667 394 29.5C383.5 -57 347.8 -188.3 289 -21.5C215.5 187 652 85.5 471.5 232.5C291 379.5 295.5 165.5 236 135.5C188.4 111.5 166.639 155.5 178.5 184.5C247.7 353.7 70.6667 351.333 -26.5 329L-80.5 216C-16.5 238.667 104.7 260.9 77.5 168.5C50.3 76.1 -47.1667 87 -92.5 104L-49 -29C-12 2.83333 74.6 64.6 125 57C188 47.5 208 34 154 -54C110.8 -124.4 -52 -66.6667 -128 -29L-107 469C-49.8333 493.5 69.5 526.3 89.5 461.5C110.951 392 147.951 401.575 178.5 416.5C244 448.5 245.092 362.298 291.5 346.5C315 338.5 442.961 321.718 394 455C367 528.5 323.5 510.628 305.5 486.5C282 455 232 462.5 232 514C232 613.684 305.833 600.333 369.5 593C388.833 590.333 434.9 586.1 452.5 618.5C472.599 655.5 548.3 651.189 543 693C537.93 733 467.454 724.991 438.5 719C409.5 713 385.5 741.594 350 695C326 663.5 279.5 657.215 244 659.5C163.2 664.7 150.333 604 154 573C163.5 538 123.5 518.5 41.5 608C-43.9422 701.257 69.5 718.5 118.5 718.5C197 719.333 336.2 749.8 265 865C193.8 980.2 286 1044 341 1061.5L96 1043C63 975 21.5349 852.944 32 824.5C51.5 771.5 161.5 769.5 147 865C135.4 941.4 167.5 1008.5 185 1032.5" stroke="#202F92" stroke-opacity="0.5" stroke-width="43"/>
<path d="M1611.5 561.5C1611.5 559 1606.1 558.8 1606.5 562C1606.79 564.361 1611.5 562.5 1611.5 566C1611.5 568.5 1606 568.5 1606 566M1614 559V568C1614 565.833 1614 562 1616.5 562C1618.8 562 1618.5 566 1618.5 568M1621 563C1621.75 561.509 1625 561.346 1625 563.5M1625 568C1625 567.408 1625 566.847 1625 566.324M1625 563.5C1625 563.673 1625 563.865 1625 564.072M1625 563.5V564.072M1625 564.072C1624.5 564.382 1623.5 564.5 1622 565C1620.63 565.457 1621 567.5 1622.5 567.5C1624.5 567.5 1625 566.716 1625 566.324M1625 564.072C1625 564.691 1625 565.454 1625 566.324M1628 561.5V563.5M1628 568V563.5M1628 563.5C1628 562 1632 561.149 1632 563.5C1632 566.7 1632 567.833 1632 568M1639.5 566.5C1639 567.5 1636.38 568.336 1635 566.5C1634.5 565.833 1634.5 565 1634.5 564.5M1634.5 564.5C1634.5 563 1635.7 562.133 1636.5 562C1637.5 561.833 1639.5 562.1 1639.5 564.5H1634.5ZM1645.5 568V559.5L1648.79 567.5H1649.24L1653 559.5V568M1656 568V561.5M1656 560.5V559M1659 561.5V563.5M1659 563.5V568M1659 563.5C1659 562 1663 561.149 1663 563.5V568M1670.5 568V565.75M1670.5 559.5V563.5M1670.5 563.5C1669.5 561.5 1667 561.5 1666 563C1665.16 564.257 1665.5 567 1667 567.5C1667.83 567.833 1669.7 567.95 1670.5 565.75M1670.5 563.5V565.75M1673.5 561.5V563.5M1673.5 568V563.5M1673.5 563.5C1673.67 563 1674.4 562 1676 562M1682 566.5C1681.5 567.5 1678.88 568.336 1677.5 566.5C1677 565.833 1677 565 1677 564.5M1677 564.5C1677 563 1678.2 562.133 1679 562C1680 561.833 1682 562.1 1682 564.5H1677ZM1684.5 563C1685.25 561.509 1688.5 561.346 1688.5 563.5V564.072M1688.5 564.072C1688 564.382 1687 564.5 1685.5 565C1684.13 565.457 1684.5 567.5 1686 567.5C1688 567.5 1688.5 566.716 1688.5 566.324M1688.5 564.072V566.324M1688.5 566.324V568M1695.5 561.5V566M1695.5 568V566M1691.5 561.5V566C1691.5 566.5 1691.8 567.5 1693 567.5C1694.5 567.5 1695 567 1695.5 566" stroke="#111D68"/>
<path d="M-82.5 571L937.5 727.5L885 1033H-40L-82.5 571Z" fill="#111D68"/>
<path d="M846.692 762.446C849.148 762.064 850.829 759.764 850.446 757.308C850.064 754.852 847.764 753.171 845.308 753.554L846.692 762.446ZM-7.80792 895.446L846.692 762.446L845.308 753.554L-9.19208 886.554L-7.80792 895.446Z" fill="#303E99"/>
</g>
<path d="M93.0001 707L122.823 714.902C138.827 719.142 155.206 739.293 143.5 751V751C137 754.5 88.5002 729.5 88.5002 729.5L93.0001 707Z" fill="#030305"/>
<path d="M154.241 691.307L184.064 699.208C200.067 703.449 216.447 723.6 204.74 735.306V735.306C198.24 738.806 149.741 713.806 149.741 713.806L154.241 691.307Z" fill="#030305"/>
<path d="M120.776 550.603C118.821 540.712 126.39 531.5 136.472 531.5H164L185 703.5H151L120.776 550.603Z" fill="#928FBE"/>
<path d="M79.4624 552.142C78.7224 541.697 88.0502 533.368 98.3458 535.281L134.5 542L125 715H91L79.4624 552.142Z" fill="#9E9ACE"/>
<rect x="212.529" y="501.834" width="22" height="31" rx="7" transform="rotate(142.298 212.529 501.834)" fill="#F6A68D"/>
<path d="M141.042 386.343C146.976 383.392 154.179 385.811 157.13 391.745L203.437 484.86L177.65 497.684L131.343 404.569C128.392 398.634 130.811 391.432 136.745 388.481L141.042 386.343Z" fill="#651173"/>
<rect x="104" y="367" width="23" height="12" fill="#C9907E"/>
<path d="M67.3043 411.261C66.5913 390.344 83.3542 373 104.283 373H129.249C145.556 373 158.656 386.44 158.24 402.741L154.5 549L72 549L67.3043 411.261Z" fill="#832492"/>
<path d="M182.595 450.6C184.16 453.831 179.533 458.194 161.141 467.099C142.749 476.004 139.608 475.403 138.043 472.172C136.479 468.941 138.609 467.454 157.001 458.549C175.393 449.643 181.031 447.369 182.595 450.6Z" fill="#FEB49D"/>
<rect x="134" y="464.913" width="31" height="13" rx="6.5" transform="rotate(-23.6179 134 464.913)" fill="#FEB49D"/>
<path d="M75.6007 390.537C81.7946 384.94 91.6696 387.221 94.7816 394.967L109.734 432.191L156.5 454L135.133 473.31L93.3794 453.838C90.159 452.336 87.6302 449.665 86.3056 446.368L70.1196 406.075C68.2453 401.409 69.4785 396.07 73.209 392.699L75.6007 390.537Z" fill="#8C4498"/>
<rect x="93" y="315" width="49" height="55" rx="19" fill="#FEB49D"/>
<path d="M85.1561 322.017C84.5429 317.234 88.269 313 93.0911 313H99L95.5 348.5L89 352L85.1561 322.017Z" fill="#B16E22"/>
<path d="M94 313.122C94 312.425 94.3626 311.778 94.9571 311.415L103 306.5L110 312L121.5 306.5L126 312L133 308L140.766 312.659C142.124 313.474 142.873 315.014 142.677 316.586L142.109 321.124C142.047 321.624 141.622 322 141.117 322H98C95.7909 322 94 320.209 94 318V313.122Z" fill="#CF7E1E"/>
<path d="M94 501L188 477.5L269 481.5L153 512L94 501Z" fill="#B9B9B9"/>
<path d="M94 501L154.5 505.5L178 790L144 768.5L94 501Z" fill="#D8CCCC"/>
<path d="M153 505L270 481L257 777L178 790L153 505Z" fill="#E0DCDC"/>
<path d="M421 692L450.823 699.902C466.827 704.142 483.206 724.293 471.5 736C465 739.5 416.5 714.5 416.5 714.5L421 692Z" fill="#503B1D"/>
<path d="M482.24 676.307L512.063 684.208C528.067 688.449 544.447 708.6 532.74 720.306C526.24 723.806 477.74 698.806 477.74 698.806L482.24 676.307Z" fill="#503B1D"/>
<path d="M448.776 535.603C446.821 525.712 454.39 516.5 464.472 516.5H492L513 688.5H479L448.776 535.603Z" fill="#886734"/>
<path d="M407.462 537.142C406.722 526.697 416.05 518.368 426.346 520.281L462.5 527L453 700H419L407.462 537.142Z" fill="#99743C"/>
<rect x="550.218" y="276.979" width="22" height="31" rx="7" transform="rotate(33.7393 550.218 276.979)" fill="#F6A68D"/>
<rect x="556.883" y="267" width="7" height="20" rx="3.5" transform="rotate(33.7393 556.883 267)" fill="#F6A68D"/>
<path d="M463.485 381.506C458.799 376.819 458.799 369.222 463.485 364.535L537.02 291L557.385 311.364L483.85 384.9C479.163 389.586 471.565 389.586 466.879 384.9L463.485 381.506Z" fill="#094E1C"/>
<path d="M552.584 411.728C553.885 415.074 548.924 419.052 529.879 426.459C510.834 433.865 507.751 433.014 506.45 429.669C505.149 426.323 507.391 425.011 526.436 417.605C545.481 410.198 551.283 408.382 552.584 411.728Z" fill="#F6A68D"/>
<rect x="503" y="422.109" width="31" height="13" rx="6.5" transform="rotate(-19.0318 503 422.109)" fill="#F6A68D"/>
<rect x="432" y="352" width="23" height="12" fill="#C2836F"/>
<path d="M395.304 396.261C394.591 375.344 411.354 358 432.283 358H457.249C473.556 358 486.656 371.44 486.24 387.741L482.5 534L400 534L395.304 396.261Z" fill="#0A5A21"/>
<path d="M406.759 374.099C409.82 368.221 417.067 365.937 422.945 368.998L515.183 417.029L501.882 442.573L409.643 394.542C403.765 391.481 401.481 384.235 404.542 378.356L406.759 374.099Z" fill="#0C6324"/>
<rect x="421" y="300" width="49" height="55" rx="19" fill="#F6A68D"/>
<path d="M413.156 307.017C412.543 302.234 416.269 298 421.091 298H427L423.5 333.5L417 337L413.156 307.017Z" fill="#2C1B08"/>
<path d="M422 299C422 297.895 422.895 297 424 297H468C470.209 297 472 298.791 472 301V306C472 306.552 471.552 307 471 307H426C423.791 307 422 305.209 422 303V299Z" fill="#3D270E"/>
<path d="M459 454.5L553 431L634 435L518 465.5L459 454.5Z" fill="#B9B9B9"/>
<path d="M459 454.5L519.5 459L543 743.5L509 722L459 454.5Z" fill="#D8CCCC"/>
<path d="M518 458.5L635 434.5L622 730.5L543 743.5L518 458.5Z" fill="#E0DCDC"/>
<mask id="mask1_108_7" style="mask-type:alpha" maskUnits="userSpaceOnUse" x="513" y="422" width="53" height="28">
<path d="M534.5 423C519.589 427.067 514.667 441 513 449C513 449 531 451.06 545.5 447C565.5 443 565.5 436.5 565.5 436.5C562.333 430.5 551 418.5 534.5 423Z" fill="#890000"/>
</mask>
<g mask="url(#mask1_108_7)">
<path d="M534.5 423C519.589 427.067 514.667 441 513 449C513 449 531 451.06 545.5 447C565.5 443 565.5 436.5 565.5 436.5C562.333 430.5 551 418.5 534.5 423Z" fill="#890000"/>
<circle cx="541.5" cy="448.5" r="21.5" fill="#D90000"/>
<ellipse cx="541.751" cy="447.739" rx="5.5" ry="8.5" transform="rotate(-17.0507 541.751 447.739)" fill="#E5DD11" fill-opacity="0.38"/>
</g>
<path d="M510 445.5C510.667 441.833 512.8 433.8 516 431M548 419C553.667 420.167 565.7 424.5 568.5 432.5" stroke="#CE5555" stroke-opacity="0.75" stroke-width="4"/>
<path d="M165.5 465C142 470.5 147.667 487.988 146 495.988C146 495.988 164 498.048 178.5 493.988C198.5 489.987 198.5 483.487 198.5 483.487C195.333 477.487 190.5 459.149 165.5 465Z" fill="#890000"/>
<path d="M748.5 256L552.5 352.5L748.5 373L791.5 488L908.5 444L1007 520.5L1109 425.5L1228 455L1208 352.5L1299 247L1208 225L1149.5 130L1056 163L974 115.5L861 181L748.5 163V256Z" fill="white"/>
<path d="M537.262 503.407C537.111 501.445 538.41 499.664 540.324 499.209L616.074 481.173C618.587 480.575 621 482.48 621 485.064V522.853C621 524.7 619.736 526.306 617.942 526.741L545.069 544.393C542.674 544.973 540.328 543.27 540.139 540.812L537.262 503.407Z" fill="#030305"/>
<path d="M170.262 546.407C170.111 544.445 171.41 542.664 173.324 542.209L249.074 524.173C251.587 523.575 254 525.48 254 528.064V565.853C254 567.7 252.736 569.306 250.942 569.741L178.069 587.393C175.674 587.973 173.328 586.27 173.139 583.812L170.262 546.407Z" fill="#030305"/>
<path d="M193.5 545L232.5 566M229 539.5L196 574.5" stroke="#DF1010" stroke-width="12"/>
<path d="M195.5 546L231 565M227.5 541L197.5 573" stroke="#FF5E5E" stroke-width="4"/>
<ellipse cx="582.914" cy="512.187" rx="13" ry="14.5" transform="rotate(-4.44188 582.914 512.187)" stroke="#07A316" stroke-width="7"/>
<ellipse cx="582.914" cy="512.187" rx="13" ry="14.5" transform="rotate(-4.44188 582.914 512.187)" stroke="#A5D5AA" stroke-width="3"/>
<path d="M831.904 339.729L831.853 339.323C831.355 335.011 831.373 331.527 831.909 328.87C832.444 326.214 833.402 323.998 834.781 322.22C836.16 320.443 837.871 318.749 839.913 317.14C841.141 316.161 842.215 315.052 843.136 313.813C844.053 312.552 844.724 311.15 845.148 309.608C845.594 308.062 845.705 306.399 845.481 304.618C845.202 302.408 844.441 300.557 843.199 299.064C841.957 297.571 840.413 296.495 838.566 295.835C836.719 295.174 834.735 294.978 832.616 295.245C830.767 295.478 829.034 296.086 827.417 297.069C825.8 298.052 824.52 299.439 823.578 301.23C822.635 303.021 822.242 305.258 822.397 307.942L813.874 309.017C813.57 305.161 814.149 301.755 815.608 298.799C817.091 295.84 819.229 293.452 822.023 291.633C824.84 289.812 828.075 288.671 831.728 288.21C835.697 287.709 839.246 288.063 842.377 289.272C845.53 290.478 848.08 292.355 850.028 294.904C851.998 297.45 853.206 300.482 853.649 304C853.962 306.48 853.862 308.772 853.348 310.876C852.857 312.976 852.001 314.905 850.78 316.663C849.581 318.418 848.066 320.029 846.235 321.497C844.407 322.987 842.983 324.496 841.961 326.022C840.937 327.526 840.272 329.247 839.967 331.187C839.662 333.127 839.663 335.498 839.97 338.299L840.022 338.705L831.904 339.729ZM838.759 359.206C837.09 359.417 835.583 359 834.237 357.955C832.892 356.911 832.113 355.555 831.903 353.886C831.693 352.217 832.109 350.71 833.154 349.364C834.198 348.019 835.555 347.24 837.223 347.03C838.892 346.82 840.399 347.236 841.745 348.281C843.091 349.325 843.869 350.682 844.079 352.35C844.219 353.455 844.065 354.505 843.618 355.501C843.193 356.494 842.554 357.33 841.701 358.011C840.867 358.665 839.886 359.064 838.759 359.206ZM874.033 283.836L879.637 333.708L871.79 334.698L864.833 284.996L874.033 283.836ZM878.239 354.226C876.57 354.437 875.063 354.02 873.717 352.976C872.371 351.931 871.593 350.575 871.383 348.906C871.172 347.238 871.589 345.73 872.634 344.385C873.678 343.039 875.034 342.261 876.703 342.05C878.372 341.84 879.879 342.257 881.225 343.301C882.57 344.345 883.349 345.702 883.559 347.37C883.698 348.475 883.545 349.526 883.097 350.521C882.673 351.514 882.034 352.35 881.181 353.031C880.347 353.686 879.366 354.084 878.239 354.226ZM924.567 347.833L927.194 277.13L933.959 276.277L931.332 346.98L924.567 347.833ZM890.621 332.598L890.85 325.697L942.532 319.178L942.302 326.079L890.621 332.598ZM900.215 350.905L902.842 280.202L909.607 279.349L906.979 350.052L900.215 350.905ZM891.642 308.004L891.871 301.103L943.553 294.584L943.324 301.485L891.642 308.004ZM968.249 311.536L966.913 296.586L955.338 306.155L951.374 300.882L963.762 292.31L949.633 287.082L952.164 280.991L965.753 287.386L963.334 272.572L969.828 271.753L971.164 286.703L982.739 277.134L986.703 282.407L974.315 290.979L988.444 296.206L985.914 302.298L972.325 295.903L974.743 310.717L968.249 311.536ZM1048.65 350.737C1041.75 351.607 1035.53 351.43 1029.99 350.204C1024.46 349.001 1019.66 346.8 1015.59 343.602C1011.52 340.405 1008.23 336.273 1005.71 331.207C1003.19 326.141 1001.5 320.192 1000.64 313.36C999.808 306.753 999.998 300.728 1001.21 295.283C1002.45 289.835 1004.63 285.07 1007.76 280.988C1010.91 276.88 1014.93 273.543 1019.83 270.978C1024.75 268.41 1030.47 266.715 1036.99 265.893C1043.32 265.094 1049 265.432 1054.02 266.906C1059.06 268.355 1063.4 270.636 1067.05 273.75C1070.71 276.838 1073.62 280.469 1075.77 284.641C1077.95 288.811 1079.33 293.218 1079.92 297.863C1080.33 301.133 1080.59 304.467 1080.7 307.867C1080.8 311.266 1080.53 314.439 1079.87 317.386C1079.21 320.31 1077.93 322.763 1076.02 324.744C1074.14 326.722 1071.41 327.937 1067.82 328.389C1066.24 328.588 1064.48 328.559 1062.52 328.302C1060.56 328.045 1058.78 327.434 1057.17 326.469C1055.56 325.504 1054.5 324.069 1053.98 322.164L1053.57 322.215C1053.2 323.591 1052.52 324.936 1051.54 326.251C1050.58 327.563 1049.25 328.682 1047.53 329.609C1045.84 330.532 1043.7 331.111 1041.12 331.345C1038.17 331.602 1035.51 331.274 1033.13 330.36C1030.74 329.424 1028.66 328.014 1026.89 326.13C1025.14 324.221 1023.7 321.939 1022.59 319.285C1021.5 316.606 1020.75 313.665 1020.34 310.463C1019.96 307.419 1020.06 304.577 1020.64 301.938C1021.22 299.299 1022.2 296.931 1023.56 294.835C1024.94 292.736 1026.65 290.987 1028.67 289.586C1030.71 288.16 1032.98 287.153 1035.47 286.564C1037.7 286.054 1039.76 285.896 1041.66 286.092C1043.56 286.264 1045.17 286.692 1046.47 287.376C1047.76 288.037 1048.63 288.844 1049.07 289.796L1049.48 289.745L1049 285.957L1056.17 285.052L1060.03 315.628C1060.27 317.522 1061.01 319.124 1062.25 320.433C1063.49 321.743 1065.13 322.269 1067.16 322.013C1069.46 321.723 1071.12 320.712 1072.13 318.98C1073.17 317.246 1073.71 314.704 1073.75 311.355C1073.81 308.003 1073.51 303.756 1072.86 298.615C1072.48 295.594 1071.69 292.67 1070.49 289.844C1069.3 286.992 1067.71 284.387 1065.72 282.027C1063.75 279.664 1061.38 277.661 1058.61 276.017C1055.83 274.374 1052.67 273.215 1049.13 272.54C1045.61 271.839 1041.69 271.76 1037.38 272.303C1032.08 272.972 1027.44 274.393 1023.45 276.568C1019.49 278.718 1016.24 281.545 1013.7 285.049C1011.18 288.527 1009.44 292.596 1008.47 297.254C1007.52 301.886 1007.4 307.033 1008.12 312.692C1008.84 318.442 1010.24 323.454 1012.31 327.728C1014.41 331.999 1017.14 335.481 1020.5 338.172C1023.89 340.86 1027.89 342.715 1032.51 343.736C1037.13 344.779 1042.33 344.937 1048.1 344.209C1050.58 343.896 1053 343.351 1055.35 342.573C1057.7 341.795 1059.77 341.008 1061.55 340.211C1063.33 339.414 1064.6 338.829 1065.38 338.456L1068.06 344.44C1066.74 345.203 1064.98 346.019 1062.8 346.89C1060.64 347.758 1058.32 348.544 1055.82 349.249C1053.34 349.951 1050.95 350.447 1048.65 350.737ZM1041.33 324.309C1044.35 323.928 1046.72 323.01 1048.44 321.557C1050.16 320.103 1051.29 318.093 1051.84 315.527C1052.38 312.961 1052.42 309.807 1051.95 306.064C1051.47 302.276 1050.63 299.382 1049.41 297.381C1048.2 295.381 1046.61 294.069 1044.65 293.446C1042.7 292.822 1040.37 292.681 1037.66 293.022C1035.09 293.347 1032.98 294.3 1031.32 295.884C1029.68 297.441 1028.52 299.398 1027.83 301.752C1027.17 304.082 1027 306.554 1027.33 309.17C1027.69 312.056 1028.42 314.725 1029.5 317.176C1030.59 319.605 1032.1 321.499 1034.04 322.858C1035.97 324.195 1038.4 324.679 1041.33 324.309ZM1121.48 322.996L1124.1 252.293L1130.87 251.44L1128.24 322.143L1121.48 322.996ZM1087.53 307.761L1087.76 300.86L1139.44 294.341L1139.21 301.242L1087.53 307.761ZM1097.12 326.068L1099.75 255.365L1106.52 254.512L1103.89 325.215L1097.12 326.068ZM1088.55 283.167L1088.78 276.266L1140.46 269.747L1140.23 276.648L1088.55 283.167Z" fill="black"/>
</svg>
