<svg width="1920" height="960" viewBox="0 0 1920 960" fill="none" xmlns="http://www.w3.org/2000/svg">
<mask id="mask0_93_57" style="mask-type:alpha" maskUnits="userSpaceOnUse" x="0" y="0" width="1920" height="960">
<rect width="1920" height="960" fill="#020A3D"/>
</mask>
<g mask="url(#mask0_93_57)">
<rect width="1920" height="960" fill="#020A3D"/>
<path d="M1752 997C1790.17 982 1865.5 962.5 1872 894C1880.63 803 1959.83 854.667 2001 864L1957 109C1916 92.5 1771.5 175.9 1801.5 217.5C1831.5 259.1 1939.67 203.167 1988 171L2052.5 252C2024.33 230 1971.61 330.011 1885 302.5C1800 275.5 1827.5 454 1948.5 354L2078.5 313.5C2131.17 328.333 2177.33 363.356 1957 437.5C1747.5 508 1770.5 460.5 1780 432C1789.5 403.5 1790 378.5 1761.5 354C1733 329.5 1689.79 367.153 1684.5 398.5C1676.9 443.54 1716.06 485.658 1670.5 500C1643.5 508.5 1596.5 398.5 1566.5 483C1543.83 546.853 1485.17 542.5 1457 491.5C1442.09 464.5 1419.93 454.255 1378.5 483C1354 500 1308 483 1326.5 419C1338.17 374.833 1380.6 303.2 1457 370C1533.4 436.8 1613.17 364.5 1643.5 320C1676.5 265.5 1767.5 286.5 1727 232.5C1637.5 72.9999 1803.77 135.08 1827.5 70C1860.5 -20.5 1767.17 -64.3332 1704.5 -63.4999C1732 -19.6665 1750.4 66.4001 1604 60C1457.6 53.5999 1523.67 -25 1575 -63.4999L1007 -36.5C1007 -6 937.5 92.8209 1014.5 105.5C1091.5 118.179 1140.75 82.4359 1104 24C1032 -90.5001 1082 -259.5 1176.5 -13.5C1252.1 183.3 1348.5 18.5 1354 -63.4999L1443 -20.5C1404.17 41.5 1361.1 158.9 1499.5 132.5C1637.9 106.1 1619.17 188.167 1592.5 232.5C1564.83 277.833 1489.5 345.2 1409.5 252C1329.5 158.8 1308.5 222.167 1308 265.5C1303.5 342 1257.9 476 1111.5 400C965.1 324 874.5 408.333 859 455C842 518.5 832 548.5 749 541.5C700 530.5 660.6 525.4 681 593C701.4 660.6 763.833 647.833 792.5 633C846 609 889 699.5 962 699.5C1008.67 699.5 1085 686.2 1017 633C834.6 489 947.667 454.333 1027 455C1068.5 455.349 1117.5 490.4 1121.5 558C1125.5 625.6 1205.5 569.5 1245 533C1264 515.443 1316.5 528.5 1398 593C1479.5 657.5 1509.5 760.775 1509.5 851C1509.5 961 1594 891 1656 803C1718 715 1591 682.5 1557.5 651.5C1494.7 594.3 1583.67 565.333 1636 558C1670.83 557.333 1735.9 567.7 1717.5 614.5C1694.5 673 1792 722.5 1847 682.5C1891 650.5 1865.33 623.833 1847 614.5C1797.17 599.5 1727.4 562.2 1847 533C1966.6 503.8 2032.17 716.5 2045 813C1879.8 623 1687.83 905.5 1612.5 1070.5C1413.33 1107.67 1022 1141.4 1050 979C1078 816.6 1145 938 1175 1019C1218.17 1038.5 1295.2 1065.8 1258 1019C1211.5 960.5 1178.5 809.5 1245 803C1311.5 796.5 1338 838 1326.5 972.5C1317.3 1080.1 1400.33 1057.33 1443 1032.5C1450.67 974.833 1445.1 827.5 1361.5 699.5C1277.9 571.5 1219 646.167 1200 699.5C1192.17 734 1150.2 796.6 1045 771C913.5 739 1042 1065.5 918.5 1032.5C795 999.5 947 773 812.5 739.5C678 706 617.167 853.369 701 831.5C724 825.5 802.459 835.5 779.5 898C765.541 936 719.1 956.2 599.5 891C479.9 825.8 477.333 918.166 491 972.5C515.5 1000.17 540.9 1050.9 446.5 1032.5C328.5 1009.5 310 766 461 784.5C612 803 666 699.5 579.5 633C409.1 497 466.167 427.667 516 410C660.5 350 692.5 546.5 792.5 410C840.679 344.235 932 265.5 1088.5 313.5C1245 361.5 1258 87.5 1067 184.5C914.2 262.1 892.333 190.833 900.5 145.5C908.833 106.833 905.5 10.9 825.5 -63.4999C677.5 -209.5 699.5 -124.333 729 -63.4999C789.5 48.8335 859.5 279.1 655.5 301.5C400.5 329.5 857.5 29.5 621 68.0001C431.8 98.8002 390.833 55.1667 394 29.5C383.5 -57 347.8 -188.3 289 -21.5C215.5 187 652 85.5 471.5 232.5C291 379.5 295.5 165.5 236 135.5C188.4 111.5 166.639 155.5 178.5 184.5C247.7 353.7 70.6667 351.333 -26.5 329L-80.5 216C-16.5 238.667 104.7 260.9 77.5 168.5C50.3 76.1 -47.1667 87 -92.5 104L-49 -29C-12 2.83333 74.6 64.6 125 57C188 47.5 208 34 154 -54C110.8 -124.4 -52 -66.6667 -128 -29L-107 469C-49.8333 493.5 69.5 526.3 89.5 461.5C110.951 392 147.951 401.575 178.5 416.5C244 448.5 245.092 362.298 291.5 346.5C315 338.5 442.961 321.718 394 455C367 528.5 323.5 510.628 305.5 486.5C282 455 232 462.5 232 514C232 613.684 305.833 600.333 369.5 593C388.833 590.333 434.9 586.1 452.5 618.5C472.599 655.5 548.3 651.189 543 693C537.93 733 467.454 724.991 438.5 719C409.5 713 385.5 741.594 350 695C326 663.5 279.5 657.215 244 659.5C163.2 664.7 150.333 604 154 573C163.5 538 123.5 518.5 41.5 608C-43.9422 701.257 69.5 718.5 118.5 718.5C197 719.333 336.2 749.8 265 865C193.8 980.2 286 1044 341 1061.5L96 1043C63 975 21.5349 852.944 32 824.5C51.5 771.5 161.5 769.5 147 865C135.4 941.4 167.5 1008.5 185 1032.5" stroke="#202F92" stroke-opacity="0.5" stroke-width="43"/>
<path d="M1611.5 561.5C1611.5 559 1606.1 558.8 1606.5 562C1606.79 564.361 1611.5 562.5 1611.5 566C1611.5 568.5 1606 568.5 1606 566M1614 559V568C1614 565.833 1614 562 1616.5 562C1618.8 562 1618.5 566 1618.5 568M1621 563C1621.75 561.509 1625 561.346 1625 563.5M1625 568C1625 567.408 1625 566.847 1625 566.324M1625 563.5C1625 563.673 1625 563.865 1625 564.072M1625 563.5V564.072M1625 564.072C1624.5 564.382 1623.5 564.5 1622 565C1620.63 565.457 1621 567.5 1622.5 567.5C1624.5 567.5 1625 566.716 1625 566.324M1625 564.072C1625 564.691 1625 565.454 1625 566.324M1628 561.5V563.5M1628 568V563.5M1628 563.5C1628 562 1632 561.149 1632 563.5C1632 566.7 1632 567.833 1632 568M1639.5 566.5C1639 567.5 1636.38 568.336 1635 566.5C1634.5 565.833 1634.5 565 1634.5 564.5M1634.5 564.5C1634.5 563 1635.7 562.133 1636.5 562C1637.5 561.833 1639.5 562.1 1639.5 564.5H1634.5ZM1645.5 568V559.5L1648.79 567.5H1649.24L1653 559.5V568M1656 568V561.5M1656 560.5V559M1659 561.5V563.5M1659 563.5V568M1659 563.5C1659 562 1663 561.149 1663 563.5V568M1670.5 568V565.75M1670.5 559.5V563.5M1670.5 563.5C1669.5 561.5 1667 561.5 1666 563C1665.16 564.257 1665.5 567 1667 567.5C1667.83 567.833 1669.7 567.95 1670.5 565.75M1670.5 563.5V565.75M1673.5 561.5V563.5M1673.5 568V563.5M1673.5 563.5C1673.67 563 1674.4 562 1676 562M1682 566.5C1681.5 567.5 1678.88 568.336 1677.5 566.5C1677 565.833 1677 565 1677 564.5M1677 564.5C1677 563 1678.2 562.133 1679 562C1680 561.833 1682 562.1 1682 564.5H1677ZM1684.5 563C1685.25 561.509 1688.5 561.346 1688.5 563.5V564.072M1688.5 564.072C1688 564.382 1687 564.5 1685.5 565C1684.13 565.457 1684.5 567.5 1686 567.5C1688 567.5 1688.5 566.716 1688.5 566.324M1688.5 564.072V566.324M1688.5 566.324V568M1695.5 561.5V566M1695.5 568V566M1691.5 561.5V566C1691.5 566.5 1691.8 567.5 1693 567.5C1694.5 567.5 1695 567 1695.5 566" stroke="#111D68"/>
<path d="M164.613 816.031L152 732.5L181.257 811.75C182.809 815.953 180.89 820.645 176.837 822.555C171.606 825.02 165.476 821.749 164.613 816.031Z" fill="#4AB7C6"/>
<path d="M436.613 778.531L424 695L453.257 774.25C454.809 778.453 452.89 783.145 448.837 785.055C443.606 787.52 437.476 784.249 436.613 778.531Z" fill="#4AB7C6"/>
<path d="M1086.61 935.531L1074 852L1103.26 931.25C1104.81 935.453 1102.89 940.145 1098.84 942.055C1093.61 944.52 1087.48 941.249 1086.61 935.531Z" fill="#4AB7C6"/>
<path d="M593.613 801.531L581 718L610.257 797.25C611.809 801.453 609.89 806.145 605.837 808.055C600.606 810.52 594.476 807.249 593.613 801.531Z" fill="#4AB7C6"/>
<path d="M726.613 762.031L714 678.5L743.257 757.75C744.809 761.953 742.89 766.645 738.837 768.555C733.606 771.02 727.476 767.749 726.613 762.031Z" fill="#4AB7C6"/>
<path d="M1012.61 694.531L1000 611L1029.26 690.25C1030.81 694.453 1028.89 699.145 1024.84 701.055C1019.61 703.52 1013.48 700.249 1012.61 694.531Z" fill="#4AB7C6"/>
<path d="M825.613 983.531L813 900L842.257 979.25C843.809 983.453 841.89 988.145 837.837 990.055C832.606 992.52 826.476 989.249 825.613 983.531Z" fill="#4AB7C6"/>
<path d="M1204.61 730.531L1192 647L1221.26 726.25C1222.81 730.453 1220.89 735.145 1216.84 737.055C1211.61 739.52 1205.48 736.249 1204.61 730.531Z" fill="#4AB7C6"/>
<path d="M51.6131 755.031L39 671.5L68.2574 750.75C69.8091 754.953 67.8895 759.645 63.8367 761.555C58.6056 764.02 52.4765 760.749 51.6131 755.031Z" fill="#4AB7C6"/>
<path d="M337.613 687.531L325 604L354.257 683.25C355.809 687.453 353.89 692.145 349.837 694.055C344.606 696.52 338.476 693.249 337.613 687.531Z" fill="#4AB7C6"/>
<path d="M251.613 762.531L239 679L268.257 758.25C269.809 762.453 267.89 767.145 263.837 769.055C258.606 771.52 252.476 768.249 251.613 762.531Z" fill="#4AB7C6"/>
<path d="M507.613 692.531L495 609L524.257 688.25C525.809 692.453 523.89 697.145 519.837 699.055C514.606 701.52 508.476 698.249 507.613 692.531Z" fill="#4AB7C6"/>
<path d="M628.613 689.531L616 606L645.257 685.25C646.809 689.453 644.89 694.145 640.837 696.055C635.606 698.52 629.476 695.249 628.613 689.531Z" fill="#4AB7C6"/>
<path d="M899.613 633.531L887 550L916.257 629.25C917.809 633.453 915.89 638.145 911.837 640.055C906.606 642.52 900.476 639.249 899.613 633.531Z" fill="#4AB7C6"/>
<path d="M795.613 680.531L783 597L812.257 676.25C813.809 680.453 811.89 685.145 807.837 687.055C802.606 689.52 796.476 686.249 795.613 680.531Z" fill="#4AB7C6"/>
<path d="M1091.61 669.531L1079 586L1108.26 665.25C1109.81 669.453 1107.89 674.145 1103.84 676.055C1098.61 678.52 1092.48 675.249 1091.61 669.531Z" fill="#4AB7C6"/>
<path d="M157.613 949.031L145 865.5L174.257 944.75C175.809 948.953 173.89 953.645 169.837 955.555C164.606 958.02 158.476 954.749 157.613 949.031Z" fill="#4AB7C6"/>
<path d="M429.613 911.531L417 828L446.257 907.25C447.809 911.453 445.89 916.145 441.837 918.055C436.606 920.52 430.476 917.249 429.613 911.531Z" fill="#4AB7C6"/>
<path d="M349.613 985.031L337 901.5L366.257 980.75C367.809 984.953 365.89 989.645 361.837 991.555C356.606 994.02 350.476 990.749 349.613 985.031Z" fill="#4AB7C6"/>
<path d="M586.613 934.531L574 851L603.257 930.25C604.809 934.453 602.89 939.145 598.837 941.055C593.606 943.52 587.476 940.249 586.613 934.531Z" fill="#4AB7C6"/>
<path d="M719.613 895.031L707 811.5L736.257 890.75C737.809 894.953 735.89 899.645 731.837 901.555C726.606 904.02 720.476 900.749 719.613 895.031Z" fill="#4AB7C6"/>
<path d="M1005.61 827.531L993 744L1022.26 823.25C1023.81 827.453 1021.89 832.145 1017.84 834.055C1012.61 836.52 1006.48 833.249 1005.61 827.531Z" fill="#4AB7C6"/>
<path d="M911.613 931.031L899 847.5L928.257 926.75C929.809 930.953 927.89 935.645 923.837 937.555C918.606 940.02 912.476 936.749 911.613 931.031Z" fill="#4AB7C6"/>
<path d="M1197.61 863.531L1185 780L1214.26 859.25C1215.81 863.453 1213.89 868.145 1209.84 870.055C1204.61 872.52 1198.48 869.249 1197.61 863.531Z" fill="#4AB7C6"/>
<path d="M44.6131 888.031L32 804.5L61.2574 883.75C62.8091 887.953 60.8895 892.645 56.8367 894.555C51.6056 897.02 45.4765 893.749 44.6131 888.031Z" fill="#4AB7C6"/>
<path d="M330.613 820.531L318 737L347.257 816.25C348.809 820.453 346.89 825.145 342.837 827.055C337.606 829.52 331.476 826.249 330.613 820.531Z" fill="#4AB7C6"/>
<path d="M244.613 895.531L232 812L261.257 891.25C262.809 895.453 260.89 900.145 256.837 902.055C251.606 904.52 245.476 901.249 244.613 895.531Z" fill="#4AB7C6"/>
<path d="M500.613 825.531L488 742L517.257 821.25C518.809 825.453 516.89 830.145 512.837 832.055C507.606 834.52 501.476 831.249 500.613 825.531Z" fill="#4AB7C6"/>
<path d="M534.613 995.531L522 912L551.257 991.25C552.809 995.453 550.89 1000.14 546.837 1002.05C541.606 1004.52 535.476 1001.25 534.613 995.531Z" fill="#4AB7C6"/>
<path d="M892.613 766.531L880 683L909.257 762.25C910.809 766.453 908.89 771.145 904.837 773.055C899.606 775.52 893.476 772.249 892.613 766.531Z" fill="#4AB7C6"/>
<path d="M788.613 813.531L776 730L805.257 809.25C806.809 813.453 804.89 818.145 800.837 820.055C795.606 822.52 789.476 819.249 788.613 813.531Z" fill="#4AB7C6"/>
<path d="M1084.61 802.531L1072 719L1101.26 798.25C1102.81 802.453 1100.89 807.145 1096.84 809.055C1091.61 811.52 1085.48 808.249 1084.61 802.531Z" fill="#4AB7C6"/>
<path d="M55.4997 790.5C55.5 788 50.0997 787.8 50.4997 791C50.7948 793.361 55.4997 791.5 55.5 795C55.5 797.5 50 797.5 50 795M58 788V797C58 794.833 58 791 60.5 791C62.7996 791 62.5 795 62.5 797M65 792C65.7456 790.509 69 790.346 69 792.5M69 797C69 796.408 69 795.847 69 795.324M69 792.5C69 792.673 69 792.865 69 793.072M69 792.5V793.072M69 793.072C68.5 793.382 67.5 793.5 66 794C64.6301 794.457 65 796.5 66.5 796.5C68.5 796.5 69 795.716 69 795.324M69 793.072C69 793.691 69 794.454 69 795.324M72 790.5V792.5M72 797V792.5M72 792.5C72 791 76 790.149 76 792.5C76 795.7 76 796.833 76 797M83.5 795.5C83 796.5 80.3773 797.336 79 795.5C78.5 794.833 78.5 794 78.5 793.5M78.5 793.5C78.5 792 79.7039 791.133 80.5 791C81.5 790.833 83.5 791.1 83.5 793.5H78.5ZM89.5 797V788.5L92.7941 796.5H93.2353L97 788.5V797M100 797V790.5M100 789.5V788M103 790.5V792.5M103 792.5V797M103 792.5C103 791 107 790.149 107 792.5V797M114.5 797V794.75M114.5 788.5V792.5M114.5 792.5C113.5 790.5 111 790.5 110 792C109.162 793.257 109.5 796 111 796.5C111.833 796.833 113.7 796.95 114.5 794.75M114.5 792.5V794.75M117.5 790.5V792.5M117.5 797V792.5M117.5 792.5C117.667 792 118.4 791 120 791M126 795.5C125.5 796.5 122.877 797.336 121.5 795.5C121 794.833 121 794 121 793.5M121 793.5C121 792 122.204 791.133 123 791C124 790.833 126 791.1 126 793.5H121ZM128.5 792C129.246 790.509 132.5 790.346 132.5 792.5V793.072M132.5 793.072C132 793.382 131 793.5 129.5 794C128.13 794.457 128.5 796.5 130 796.5C132 796.5 132.5 795.716 132.5 795.324M132.5 793.072V795.324M132.5 795.324V797M139.5 790.5V795M139.5 797V795M135.5 790.5V795C135.5 795.5 135.8 796.5 137 796.5C138.5 796.5 139 796 139.5 795" stroke="#111D68"/>
<path d="M695 211.5C650.6 -34.9 379.5 -46.1667 249.5 -21L-77.5 -49.5L-38.5 558.5H1054.5C1085 558.5 1162.8 546 1230 496C1297.2 446 1079 423.833 961.5 419C967.1 347.4 886.5 339.167 845.5 344C862.7 226.8 752.333 206.833 695 211.5Z" fill="#CDCDCD"/>
<path d="M671.074 237.565C630.052 10.1301 379.577 -0.269461 259.468 22.9601C259.468 22.9601 129.374 -59.6657 -42.654 -3.34622C-59.6075 3.63143 -6.62115 557.856 -6.62115 557.856L-42.1554 435.747V669C314.865 657.437 394.148 607.032 389.161 583.275C501.653 664.215 692.994 617 774.604 583.275C865.45 613.849 930.633 587.766 966.285 558.958L1003.5 559C1031.68 559 1103.28 546.318 1165.37 500.167C1227.46 454.015 1025.86 433.555 917.298 429.093C922.472 363.004 848.004 355.405 810.123 359.866C826.015 251.687 724.045 233.257 671.074 237.565Z" fill="#6D6D6D"/>
<path d="M320 153.465C386.333 149.298 499.1 171.365 419.5 292.965C436.333 256.631 440 177.865 320 153.465Z" fill="#CDCDCD"/>
<path d="M94.5 304.965C161.7 264.165 94.5 214.965 52.5 195.465C126.9 263.065 72.5 317.631 36 336.465C282.4 338.865 312 465.798 296 528.965C505.2 412.165 248.833 330.965 94.5 304.965Z" fill="#CDCDCD"/>
<path d="M756 502.965C851.2 428.565 742.333 360.965 676 336.465C769.6 400.065 763.333 473.965 748.5 502.965C711.333 533.965 660.8 577.365 756 502.965Z" fill="#CDCDCD"/>
<path d="M83.712 653.453C83.4752 650.964 78.0803 651.277 78.7819 654.425C79.2994 656.747 83.8068 654.449 84.1389 657.933C84.376 660.422 78.9007 660.943 78.6637 658.454M85.964 650.727L86.8173 659.687C86.6119 657.53 86.2484 653.714 88.7371 653.477C91.0264 653.259 91.1074 657.269 91.297 659.26M93.3117 654.046C93.9126 652.49 97.1369 652.02 97.3411 654.164M97.7677 658.644C97.7116 658.055 97.6584 657.496 97.6089 656.976M97.3411 654.164C97.3575 654.337 97.3757 654.527 97.3953 654.734M97.3411 654.164L97.3953 654.734M97.3953 654.734C96.9269 655.089 95.9426 655.302 94.4968 655.942C93.1764 656.526 93.7383 658.525 95.2316 658.383C97.2226 658.193 97.646 657.366 97.6089 656.976M97.3953 654.734C97.454 655.349 97.5263 656.109 97.6089 656.976M100.138 651.889L100.328 653.88M100.754 658.359L100.328 653.88M100.328 653.88C100.185 652.386 104.087 651.16 104.31 653.5C104.613 656.686 104.72 657.814 104.736 657.98M112.06 655.776C111.657 656.819 109.126 657.9 107.58 656.202C107.02 655.586 106.94 654.757 106.893 654.259M106.893 654.259C106.751 652.766 107.867 651.788 108.647 651.581C109.627 651.32 111.643 651.396 111.871 653.785L106.893 654.259ZM118.175 656.7L117.369 648.238L121.407 655.89L121.846 655.848L124.836 647.527L125.642 655.989M128.628 655.705L128.012 649.234M127.917 648.238L127.775 646.745M130.998 648.949L131.188 650.94M131.188 650.94L131.615 655.42M131.188 650.94C131.046 649.447 134.947 648.221 135.17 650.561L135.597 655.041M143.063 654.33L142.849 652.09M142.257 645.868L142.636 649.85M142.636 649.85C141.451 647.954 138.962 648.191 138.109 649.779C137.394 651.11 137.99 653.808 139.531 654.164C140.392 654.417 142.262 654.356 142.849 652.09M142.636 649.85L142.849 652.09M145.433 647.575L145.623 649.566M146.049 654.045L145.623 649.566M145.623 649.566C145.741 649.052 146.376 647.987 147.969 647.835M154.369 651.746C153.966 652.789 151.434 653.87 149.889 652.173C149.328 651.557 149.249 650.727 149.202 650.229M149.202 650.229C149.059 648.736 150.176 647.758 150.956 647.551C151.935 647.29 153.952 647.366 154.179 649.755L149.202 650.229ZM156.526 648.025C157.127 646.47 160.351 646 160.555 648.143L160.609 648.713M160.609 648.713C160.141 649.068 159.157 649.281 157.711 649.921C156.39 650.506 156.952 652.505 158.446 652.362C160.437 652.173 160.86 651.345 160.823 650.955M160.609 648.713L160.823 650.955M160.823 650.955L160.982 652.623M167.334 645.489L167.76 649.968M167.95 651.959L167.76 649.968M163.352 645.868L163.779 650.348C163.826 650.845 164.219 651.813 165.414 651.699C166.907 651.557 167.358 651.011 167.76 649.968" stroke="#808080"/>
</g>
</svg>
