<svg width="212" height="240" viewBox="0 0 212 240" fill="none" xmlns="http://www.w3.org/2000/svg">
<path d="M19.2514 216.009L0 0H211.611L192.334 215.974L105.677 240L19.2514 216.009Z" fill="#1572B6"/>
<path d="M105.806 221.64L175.834 202.226L192.309 17.666H105.806V221.64Z" fill="#33A9DC"/>
<path d="M105.806 95.9234H140.863L143.28 68.7948H105.806V42.3005H105.9H172.234L171.6 49.4063L165.094 122.418H105.806V95.9234Z" fill="white"/>
<path d="M105.968 164.725L105.848 164.759L76.3454 156.788L74.4597 135.659H60.1197H47.8625L51.574 177.256L105.84 192.325L105.968 192.291V164.725Z" fill="#EBEBEB"/>
<path d="M138.609 121.293L135.42 156.77L105.875 164.742V192.308L160.183 177.256L160.586 172.782L165.189 121.293H138.609Z" fill="white"/>
<path d="M105.901 42.3005V58.7577V68.7263V68.7948H41.992H41.9063L41.3748 62.8377L40.1663 49.4063L39.532 42.3005H105.901Z" fill="#EBEBEB"/>
<path d="M105.805 95.9243V112.381V122.35V122.419H76.7566H76.6709L76.1395 116.461L74.9395 103.03L74.3052 95.9243H105.805Z" fill="#EBEBEB"/>
</svg>
