<svg width="214" height="240" viewBox="0 0 214 240" fill="none" xmlns="http://www.w3.org/2000/svg">
<path fill-rule="evenodd" clip-rule="evenodd" d="M127.304 27.5036L176.654 55.9963C178.043 54.5244 179.666 53.2248 181.508 52.1553C191.743 46.2717 204.797 49.7651 210.742 60C216.625 70.2349 213.132 83.2891 202.897 89.2339C201.07 90.2843 199.151 91.0358 197.197 91.5035V148.511C199.129 148.98 201.027 149.727 202.836 150.766C213.132 156.711 216.625 169.765 210.68 180C204.797 190.235 191.681 193.728 181.446 187.845C179.409 186.673 177.638 185.215 176.156 183.551L127.107 211.869C127.809 213.988 128.188 216.255 128.188 218.611C128.188 230.378 118.627 240 106.799 240C94.9704 240 85.4096 230.439 85.4096 218.611C85.4096 216.508 85.7117 214.477 86.2749 212.559L36.9386 184.074C35.5639 185.517 33.9632 186.792 32.1512 187.845C21.855 193.728 8.80086 190.235 2.9173 180C-2.96625 169.765 0.527109 156.711 10.762 150.766C12.5717 149.726 14.4694 148.979 16.4004 148.51V91.5035C14.4471 91.0358 12.528 90.2843 10.7008 89.2339C0.465822 83.3504 -3.02754 70.2349 2.85602 60C8.73957 49.7651 21.855 46.2717 32.0899 52.1553C33.9213 53.219 35.5367 54.5103 36.9213 55.9723L86.2841 27.4719C85.715 25.5445 85.4096 23.503 85.4096 21.3892C85.4096 9.56078 94.9704 0 106.799 0C118.627 0 128.188 9.56078 128.188 21.3892C128.188 23.5146 127.879 25.5669 127.304 27.5036ZM122.163 36.2823L171.63 64.8429C170.1 70.2133 170.662 76.168 173.663 81.3892C176.674 86.6273 181.58 90.0996 187.024 91.4529V148.532C186.746 148.6 186.47 148.674 186.196 148.753L121.588 36.8528C121.783 36.6662 121.975 36.476 122.163 36.2823ZM92.023 36.8657L27.4167 148.764C27.1374 148.683 26.8564 148.607 26.5741 148.537V91.4529C32.0181 90.0996 36.9235 86.6273 39.9347 81.3892C42.942 76.1577 43.4995 70.1897 41.959 64.811L91.4121 36.2585C91.6116 36.465 91.8153 36.6674 92.023 36.8657ZM112.775 41.935L177.367 153.808C175.921 155.186 174.647 156.792 173.602 158.611C172.562 160.419 171.816 162.317 171.347 164.249H42.2519C41.7834 162.318 41.0362 160.42 39.996 158.611C38.9463 156.804 37.6749 155.207 36.2365 153.834L100.84 41.9402C102.731 42.486 104.73 42.7783 106.799 42.7783C108.874 42.7783 110.879 42.4841 112.775 41.935ZM122.617 204.201L171.763 175.826C171.615 175.363 171.483 174.895 171.368 174.423H42.2246C42.1561 174.7 42.0821 174.976 42.0026 175.25L91.3896 203.765C95.2781 199.729 100.741 197.222 106.799 197.222C113.072 197.222 118.707 199.911 122.617 204.201Z" fill="#E535AB"/>
</svg>
