<svg width="212" height="240" viewBox="0 0 212 240" fill="none" xmlns="http://www.w3.org/2000/svg">
<path d="M19.26 216.009L0 0H211.629L192.343 215.974L105.686 240L19.26 216.009Z" fill="#E44F26"/>
<path d="M105.814 221.64L175.843 202.226L192.317 17.6658H105.814V221.64Z" fill="#F1662A"/>
<path d="M105.814 97.7732H70.7567L68.3395 70.6447H105.814V44.1504H105.72H39.3853L40.0195 51.2647L46.5253 124.268H105.814V97.7732Z" fill="#EBEBEB"/>
<path d="M105.814 166.576L105.694 166.611L76.1909 158.648L74.3052 137.519H59.9652H47.708L51.4194 179.108L105.694 194.176L105.814 194.142V166.576Z" fill="#EBEBEB"/>
<path d="M105.72 97.7739V124.268H138.343L135.274 158.631L105.72 166.603V194.168L160.037 179.108L160.431 174.634L166.654 104.888L167.306 97.7739H160.166H105.72Z" fill="white"/>
<path d="M105.72 44.1504V60.6075V70.5847V70.6447H169.629H169.714L170.246 64.6961L171.454 51.2647L172.089 44.1504H105.72Z" fill="white"/>
</svg>
