<svg width="240" height="240" viewBox="0 0 240 240" fill="none" xmlns="http://www.w3.org/2000/svg">
<path d="M204 0H36C16.1178 0 0 16.1178 0 36V204C0 223.882 16.1178 240 36 240H204C223.882 240 240 223.882 240 204V36C240 16.1178 223.882 0 204 0Z" fill="#F7DF1E"/>
<path d="M151.875 173.438C156.562 181.406 163.125 187.031 173.906 187.031C183.281 187.031 189.375 182.344 189.375 175.781C189.375 168.281 183.281 165.469 172.969 160.781L167.344 158.438C150.938 151.406 140.156 142.969 140.156 124.688C140.156 107.812 152.812 94.6875 172.969 94.6875C187.5 94.6875 197.812 99.8438 204.844 112.969L187.5 124.219C183.75 117.188 179.531 114.375 172.969 114.375C166.406 114.375 162.188 118.594 162.188 124.219C162.188 130.781 166.406 133.594 176.25 137.812L181.875 140.156C201.094 148.594 211.875 156.562 211.875 175.781C211.875 195.938 195.938 207.188 174.375 207.188C153.281 207.188 139.688 197.344 133.125 184.219L151.875 173.438ZM72.1875 175.312C75.9375 181.406 78.75 187.031 86.7188 187.031C94.2188 187.031 98.9062 184.219 98.9062 172.969V95.1562H121.406V172.031C121.406 195.469 107.812 205.781 87.6562 205.781C69.375 205.781 59.0625 196.406 53.9062 185.156L72.1875 175.312Z" fill="black"/>
</svg>
