<svg width="240" height="240" viewBox="0 0 240 240" fill="none" xmlns="http://www.w3.org/2000/svg">
<path d="M120 0C59.7491 4.79999e-05 10.9067 17.0932 10.9076 38.1784C10.9088 59.2632 59.7504 76.3556 120 76.3557C140.673 76.3558 160.002 74.3434 176.477 70.8479C179.471 67.3393 182.814 63.9006 186.568 60.6081C186.453 60.6958 187.146 59.9935 187.388 59.244C187.777 58.0376 187.993 56.9553 187.993 56.9553C188.479 54.4174 189.858 52.1377 191.881 50.5301C193.904 48.9224 196.437 48.0933 199.019 48.1933C201.01 48.2703 202.942 48.8968 204.599 50.0035C206.257 51.1103 207.576 52.654 208.41 54.4639C208.41 54.4639 209.537 56.7713 210.833 59.3272C222.366 53.2729 229.092 46.0006 229.093 38.1784C229.049 37.4013 228.939 36.6247 228.76 35.8499C228.588 34.8664 228.307 33.8856 227.918 32.9097C220.414 14.0595 174.384 0.022626 120 0ZM187.968 59.3975C187.126 60.1088 186.761 60.4406 186.631 60.553C187.073 60.1664 187.515 59.78 187.968 59.3975ZM10.9076 59.8827V92.8346C11.0913 113.872 59.8725 130.894 119.988 130.896C130.037 130.896 139.758 130.411 148.999 129.521C150.005 122.37 151.81 115.272 154.633 108.494C157.707 101.113 161.574 92.4124 167.145 83.5721C152.686 85.8953 136.776 87.1568 120 87.1568C88.8533 87.1568 60.6511 82.8424 39.2927 75.3678C28.6135 71.6305 19.6055 67.1599 12.5963 61.3604C12.0207 60.8842 11.4604 60.3875 10.9076 59.8827ZM229.093 59.8827C228.54 60.3875 227.98 60.8842 227.404 61.3604C224.181 64.0269 220.531 66.4096 216.495 68.5721C219.86 72.5427 224.595 76.9323 229.093 82.9428V59.8827ZM197.815 79.6768C186.065 91.1456 179.644 104.623 174.572 116.799C173.343 119.752 172.391 122.968 171.676 126.345C177.211 125.301 182.444 124.087 187.353 122.736L187.558 114.471C187.632 111.696 188.771 109.056 190.74 107.099C192.708 105.142 195.354 104.018 198.129 103.96C200.905 103.902 203.596 104.914 205.644 106.787C207.693 108.66 208.941 111.25 209.131 114.02L209.177 114.708C213.031 112.797 216.394 110.757 219.207 108.609C217.442 104.857 215.491 101.29 213.278 97.9685C209.956 92.982 203.637 87.6791 197.815 79.6768ZM10.9076 114.433V147.481C11.0913 168.519 59.8725 185.54 119.988 185.543C132.07 185.543 143.679 184.846 154.542 183.577C154.483 183.409 154.42 183.243 154.364 183.073C150.34 171.066 147.547 155.965 148.058 140.481C139.063 141.279 129.668 141.697 119.988 141.697C88.8415 141.697 60.6394 137.383 39.281 129.908C28.6018 126.171 19.5938 121.7 12.5845 115.901C12.013 115.428 11.4566 114.934 10.9076 114.433ZM223.451 118.878C219.456 121.647 214.939 124.089 209.948 126.284L212.694 167.495C223.077 161.65 229.081 154.754 229.081 147.365V153.115C229.084 153.049 229.089 152.983 229.093 152.918V145.303C228.686 137.231 227.099 129.317 224.395 121.516C224.087 120.629 223.771 119.752 223.451 118.878ZM187.074 133.999C181.727 135.376 176.079 136.583 170.171 137.608C169.284 151.316 171.393 165.916 174.843 176.21C175.248 177.418 175.816 178.698 176.511 180.025C179.791 179.329 182.948 178.568 185.99 177.758L187.074 133.999ZM10.9076 169.08V201.716C10.9034 201.743 10.8997 201.77 10.8959 201.798C10.8971 222.882 59.7387 239.975 119.988 239.975C145.122 239.975 168.253 236.993 186.699 231.994C186.685 231.712 186.678 231.459 186.662 231.168C186.539 228.999 186.227 226.763 185.976 225.077C180.752 220.787 167.59 209.28 159.166 193.92C146.902 195.502 133.733 196.344 119.988 196.344C88.8415 196.344 60.6394 192.029 39.281 184.555C28.6018 180.817 19.5938 176.347 12.5845 170.547C12.013 170.074 11.4566 169.581 10.9076 169.08ZM226.249 171.464C222.508 174.395 218.237 176.979 213.48 179.296L214.471 194.183C217.16 190.672 219.705 187.053 221.21 183.941C223.423 179.362 225.242 175.271 226.249 171.464ZM185.711 188.987C184.795 189.215 183.882 189.445 182.949 189.664C183.814 190.775 184.7 191.884 185.613 192.977L185.711 188.987Z" fill="url(#paint0_linear_66_46)"/>
<path d="M198.601 58.9834C198.601 58.9834 197.332 65.6264 194.935 67.6498C178.462 81.5566 170.395 98.7427 164.603 112.647C155.808 133.762 158.524 161.501 164.603 179.642C170.861 198.315 194.887 218.43 195.768 219.163L198.355 114.738L205.301 218.991L195.835 219.25C197.672 224.26 197.675 238.115 197.675 238.115L202.624 240C202.727 230.941 202.733 223.155 205.443 218.789L206.267 217.972C206.267 217.972 215.98 209.634 220.599 203.973C224.359 199.364 228.344 193.996 230.932 188.641C233.333 183.675 235.642 178.672 236.931 173.309C239.108 164.249 240.31 154.954 239.931 145.644C239.546 136.192 237.71 126.956 234.599 117.979C231.441 108.87 227.611 100.004 222.266 91.981C217.368 84.6294 210.185 78.9877 205.267 71.6493C202.611 67.686 198.601 58.9834 198.601 58.9834Z" fill="#99B000"/>
<defs>
<linearGradient id="paint0_linear_66_46" x1="21.8161" y1="240" x2="229.092" y2="0.000508298" gradientUnits="userSpaceOnUse">
<stop stop-color="#4E505D"/>
<stop offset="1" stop-color="#7A859C"/>
</linearGradient>
</defs>
</svg>
