<svg width="270" height="240" viewBox="0 0 270 240" fill="none" xmlns="http://www.w3.org/2000/svg">
<path d="M134.933 144.665C148.837 144.665 160.108 133.394 160.108 119.49C160.108 105.586 148.837 94.3142 134.933 94.3142C121.029 94.3142 109.758 105.586 109.758 119.49C109.758 133.394 121.029 144.665 134.933 144.665Z" fill="#00D8FF"/>
<path fill-rule="evenodd" clip-rule="evenodd" d="M136.783 66.4195C179.707 66.7119 226.539 69.8433 258.685 98.51C259.63 99.3533 260.541 100.23 261.429 101.135C269.013 108.866 272.976 121.347 266.854 131.618C254.295 152.706 226.207 161.904 199.013 167.565C158.344 176.032 115.819 176.099 75.166 168.645C51.7728 164.349 27.8511 156.821 11.2268 141.074C4.75591 134.946 -0.776149 126.884 0.0896411 117.912C1.49514 103.395 15.4209 94.0798 27.1428 87.7719C59.6998 70.2537 99.3687 66.3352 136.783 66.4195ZM133.669 73.0141C93.0552 73.2896 49.0967 75.8814 17.7371 101.849C16.6408 102.755 15.5839 103.705 14.5663 104.7C13.9085 105.341 13.2733 106.01 12.6605 106.696C7.15651 112.88 5.26189 122.814 10.4566 130.241C15.6851 137.712 23.6234 143.104 31.7978 147.5C62.3703 163.939 98.4973 166.857 133.719 166.98C169.38 167.11 206.153 163.86 237.653 147.573C250.202 141.08 264.324 131.545 263.824 119.266C263.363 108 252.377 101.04 244.152 96.07C241.926 94.7264 239.638 93.4839 237.316 92.3145C206.046 76.646 169.402 72.9354 133.669 73.0141Z" fill="#00D8FF"/>
<path fill-rule="evenodd" clip-rule="evenodd" d="M191.791 0.00339528C207.494 0.402558 215.629 19.2813 216.703 33.2239C216.916 35.9955 216.995 38.7784 216.961 41.5613C216.927 44.5747 216.764 47.5881 216.5 50.5902C213.189 87.763 196.216 123.165 176.23 155.857C156.682 187.835 132.845 219.723 100.417 234.542C89.6957 239.445 76.945 242.469 67.4551 236.999C54.4457 229.505 53.0234 211.976 53.2651 198.68C53.327 195.413 53.5406 192.147 53.8779 188.892C58.8759 140.767 83.2698 95.1784 113.797 55.903C131.608 32.9877 152.797 10.2579 179.193 2.02732C183.347 0.728633 186.647 -0.0584468 191.791 0.00339528ZM191.038 6.59239C172.604 6.88474 156.052 20.5462 141.396 34.7418C102.862 72.0551 74.4657 121.681 63.0418 173.724C62.1591 177.755 61.417 181.814 60.8717 185.901C60.45 189.066 60.1408 192.248 59.9778 195.441C59.8485 197.982 59.8035 200.529 59.8822 203.076C59.9384 205.066 60.0677 207.056 60.287 209.035C60.45 210.548 60.6693 212.054 60.9448 213.55C61.1528 214.657 61.3945 215.759 61.6756 216.856C61.9061 217.744 62.1648 218.627 62.4571 219.504C64.7565 226.435 70.6821 233.058 78.6372 233.277C97.1955 233.783 114.669 220.251 129.775 205.544C156.294 179.733 176.055 147.3 191.493 113.208C203.952 85.6828 215.348 55.7625 208.984 25.4655C208.742 24.3186 208.461 23.1829 208.14 22.0585C207.876 21.1422 207.578 20.237 207.252 19.3431C204.778 12.6023 198.96 6.57553 191.038 6.59239Z" fill="#00D8FF"/>
<path fill-rule="evenodd" clip-rule="evenodd" d="M79.3221 0.252453C99.359 0.640372 117.355 14.24 133.333 29.47C162.489 57.2596 183.993 92.6109 200.308 129.817C212.946 158.641 224.572 190.996 214.239 221.411C210.984 230.997 202.748 239.767 191.768 239.992C171.636 240.397 152.976 225.757 136.785 209.998C96.1657 170.453 66.0092 118.247 55.676 62.8817C54.9338 58.9238 54.3435 54.9321 53.9387 50.9236C53.6071 47.6516 53.399 44.3627 53.3428 41.0739C53.2978 38.4203 53.3541 35.7667 53.5396 33.1244C53.6633 31.359 53.8432 29.605 54.0849 27.8565C54.3154 26.2149 54.6078 24.5789 54.9732 22.9598C55.2149 21.886 55.4848 20.8234 55.794 19.7665C58.8243 9.40509 66.7063 0.173745 79.3221 0.252453ZM78.5632 6.84707C66.83 7.10569 61.461 20.9415 60.3816 30.6507C60.1623 32.6409 60.0274 34.6479 59.9655 36.655C59.8868 39.2186 59.9206 41.7879 60.0499 44.3515C61.8939 81.4512 78.4788 117.32 98.4932 150.163C117.338 181.084 140.096 211.882 171.399 227.713C180.44 232.284 191.425 235.877 199.234 231.559C209.028 226.139 210.231 213.225 210.754 203.601C210.894 200.981 210.911 198.35 210.827 195.724C210.725 192.43 210.467 189.141 210.079 185.869C206.47 155.302 192.932 126.377 177.381 99.0424C158.03 65.0405 134.322 31.151 100.77 13.4473C93.8213 9.78176 86.2991 6.78523 78.5632 6.84707Z" fill="#00D8FF"/>
</svg>
