<svg width="180" height="240" viewBox="0 0 180 240" fill="none" xmlns="http://www.w3.org/2000/svg">
<path d="M75.6508 239.846C53.1857 238.227 30.9818 232.572 17.3644 225.002C9.60789 220.69 3.69853 215.391 1.37967 210.668L0 207.858V119.717V31.5751L1.09172 29.3584C5.97045 19.4533 21.5407 10.5238 43.2759 5.16596C50.6539 3.34711 61.3052 1.53582 69.9947 0.622455C78.8677 -0.310454 102.386 -0.168519 111.237 0.872733C134.761 3.63649 154.779 9.82386 167.115 18.1446C171.872 21.3534 176.754 26.4878 178.408 30.0219L179.826 33.052L179.704 120.927L179.583 208.802L178.445 211.115C177.819 212.386 175.928 214.888 174.243 216.674C163.985 227.548 141.983 235.592 113.123 239.019C107.241 239.718 81.6858 240.281 75.6508 239.846ZM117.051 164.321C116.964 164.095 113.606 161.104 109.588 157.672C105.57 154.24 102.109 151.271 101.897 151.074C101.686 150.877 102.428 150.179 103.547 149.523C104.666 148.867 106.81 147.043 108.311 145.468C112.701 140.865 114.772 135.178 114.772 127.729C114.772 120.396 112.538 114.48 108.064 109.963C103.554 105.411 98.3762 103.455 90.8357 103.455C79.2127 103.455 70.2862 110.237 67.4371 121.232C66.457 125.014 66.4622 132.657 67.4473 136.01C70.0167 144.758 77.0145 151.111 85.7237 152.603C88.6709 153.107 89.07 153.325 91.0793 155.522C92.2735 156.827 94.7239 159.433 96.5248 161.313L99.7991 164.73H108.504C113.291 164.73 117.137 164.546 117.051 164.321ZM87.1998 139.949C85.1043 138.856 84.3121 138.008 83.1171 135.579C82.1942 133.703 82.0364 132.636 82.026 128.201C82.0157 123.695 82.1591 122.721 83.1228 120.764C84.6994 117.562 86.8721 116.047 90.2331 115.804C94.9115 115.464 97.612 117.76 99.0273 123.278C100.763 130.043 98.8543 137.236 94.691 139.623C92.5068 140.875 89.2487 141.017 87.1998 139.949ZM48.6179 152.506C57.744 150.776 62.9246 145.469 62.9246 137.85C62.9246 131.091 59.58 127.152 50.3362 123.026C45.0446 120.664 43.1279 119.181 43.1279 117.448C43.1279 116.012 44.9468 114.439 47.0644 114.044C49.1318 113.658 54.6154 114.61 57.8535 115.918L60.5678 117.015V111.006V104.998L57.6218 104.344C55.8012 103.94 51.9753 103.698 47.6057 103.711C41.4162 103.711 40.2043 103.861 37.875 104.786C31.0712 107.487 27.8426 112.088 27.8942 119.01C27.9426 125.489 31.3607 129.531 39.8676 133.166C44.887 135.312 46.8988 136.945 46.8988 138.876C46.8988 142.978 40.0636 143.483 32.8268 139.915C30.8449 138.938 29.0643 138.059 28.8698 137.962C28.6754 137.864 28.5164 140.671 28.5164 144.199C28.5164 150.584 28.5232 150.615 29.6793 151.055C34.0328 152.71 43.655 153.448 48.6179 152.506ZM152.952 146.583V141.163H144.703H136.454V122.545V103.926H129.149H121.843V127.965V152.004H137.397H152.952V146.583ZM102.046 51.595C116.564 50.588 127.447 48.6869 137.024 45.4849C146.564 42.295 152.2 38.4352 153.46 34.2277C153.946 32.6063 153.911 31.9913 153.233 30.2136C150.189 22.2439 133.186 16.1208 107.204 13.6382C96.0907 12.576 75.8787 12.9203 65.2819 14.3517C49.1127 16.5364 35.9906 20.5944 30.156 25.2143C18.3531 34.5606 30.8347 44.8402 59.861 49.6786C72.4466 51.7765 88.7523 52.5173 102.046 51.595Z" fill="#00BCF2"/>
</svg>
