<svg width="500" height="500" viewBox="0 0 500 500" fill="none" xmlns="http://www.w3.org/2000/svg">
<circle cx="250" cy="250" r="250" fill="#030305"/>
<path d="M440.048 294.647C434.448 288.647 428.381 294.48 426.048 298.147C422.048 304.432 410.448 313.947 406.048 317.147C400.548 321.147 386.048 326.147 382.048 323.147C378.848 320.747 381.048 313.147 382.548 309.647C399.214 271.647 432.548 193.047 432.548 182.647C432.548 175.647 426.048 165.147 422.548 158.647C419.048 152.147 420.048 150.647 394.548 168.147C369.048 185.647 328.548 261.147 326.048 255.647C323.548 250.147 345.048 193.647 348.048 184.647C351.048 175.646 346.048 154.147 337.548 150.647C330.748 147.847 321.714 155.813 318.048 160.147L271.048 216.647L289.048 177.147C291.548 171.647 289.548 160.98 288.048 155.647C286.22 149.147 280.748 138.947 265.548 148.147C246.548 159.647 226.048 178.147 221.548 184.647C217.048 191.147 211.048 207.147 207.548 218.147C204.048 229.147 213.048 233.147 220.048 235.147C225.648 236.747 229.714 233.147 231.048 231.147C235.214 225.313 244.348 212.047 247.548 205.647C251.548 197.647 251.048 196.647 249.548 195.647C248.048 194.647 245.548 196.647 243.548 200.147C241.548 203.647 228.548 216.147 224.048 218.147C219.548 220.147 218.048 216.647 224.048 204.647C230.048 192.647 254.048 178.647 259.048 174.647C264.048 170.647 268.048 169.647 268.548 170.147C268.948 170.547 266.714 175.647 265.548 178.147C241.048 233.313 191.448 345.047 189.048 350.647C186.648 356.247 191.048 355.647 193.548 354.647C195.381 353.647 200.648 351.247 207.048 349.647C215.048 347.647 214.048 346.647 216.548 340.147C243.748 273.747 293.881 211.48 315.548 188.647C319.148 184.647 321.381 186.313 322.048 187.647C324.548 192.647 324.048 196.647 323.548 200.147C321.778 212.531 290.048 297.647 287.548 305.647C285.048 313.647 286.548 322.147 292.548 330.647C297.348 337.447 302.214 331.147 304.048 327.147C307.048 319.813 320.447 294.047 350.047 249.647C379.647 205.247 396.047 189.147 400.547 186.647C401.547 185.647 402.37 186.147 403.047 189.647C406.047 205.147 397.548 225.147 392.548 236.147C383.881 256.813 365.148 300.947 359.548 312.147C352.548 326.147 356.548 335.147 366.548 348.647C374.548 359.447 387.214 353.147 392.548 348.647C410.714 333.147 445.648 300.647 440.048 294.647Z" fill="#FCC127"/>
<path d="M159.548 188.147C152.348 196.947 162.548 194.48 168.548 192.147C177.548 188.647 184.548 181.147 189.048 176.647C192.648 173.047 191.881 168.813 191.048 167.147C189.215 163.147 183.648 155.147 176.048 155.147C157.048 156.147 137.548 176.647 128.548 188.147C121.348 197.347 122.548 204.313 124.048 206.647C131.881 222.813 150.048 259.747 160.048 278.147C172.548 301.147 162.548 318.647 136.548 337.647C115.748 352.847 95.2145 354.313 87.5478 353.147C50.3478 350.747 43.8571 304.647 61.0479 295.147C67.3812 291.647 82.2478 283.747 91.0478 280.147C102.048 275.647 119.048 272.147 124.048 291.147C128.048 306.347 109.715 314.147 100.048 316.147C95.0478 317.313 84.9478 318.647 84.5478 314.647C84.1478 310.647 87.7145 308.647 89.5478 308.147C94.5478 306.313 105.248 301.147 108.048 295.147C110.848 289.147 103.881 289.98 100.048 291.147C94.0479 293.813 81.0481 299.847 77.0481 302.647C72.0481 306.147 71.5481 317.647 83.0481 325.647C92.2481 332.047 105.215 328.313 110.548 325.647C118.215 322.313 134.948 313.447 140.548 304.647C146.148 295.847 140.881 283.313 137.548 278.147C126.715 263.813 104.148 232.547 100.548 222.147C96.0482 209.147 96.5482 203.147 110.048 181.147C123.548 159.147 167.048 144.147 182.548 142.147C198.048 140.147 211.048 159.147 213.548 165.147C215.548 169.947 212.048 174.813 210.048 176.647C202.215 183.48 185.048 198.047 179.048 201.647C171.548 206.147 151.048 220.147 143.048 211.147C135.048 202.147 142.048 192.147 148.548 181.147C155.048 170.147 177.048 164.147 177.548 168.647C178.048 173.147 174.548 173.147 172.548 174.647C170.548 176.146 168.548 177.147 159.548 188.147Z" fill="#FCC127"/>
<path d="M440.048 294.647C434.448 288.647 428.381 294.48 426.048 298.147C422.048 304.432 410.448 313.947 406.048 317.147C400.548 321.147 386.048 326.147 382.048 323.147C378.848 320.747 381.048 313.147 382.548 309.647C399.214 271.647 432.548 193.047 432.548 182.647C432.548 175.647 426.048 165.147 422.548 158.647C419.048 152.147 420.048 150.647 394.548 168.147C369.048 185.647 328.548 261.147 326.048 255.647C323.548 250.147 345.048 193.647 348.048 184.647C351.048 175.646 346.048 154.147 337.548 150.647C330.748 147.847 321.714 155.813 318.048 160.147L271.048 216.647L289.048 177.147C291.548 171.647 289.548 160.98 288.048 155.647C286.22 149.147 280.748 138.947 265.548 148.147C246.548 159.647 226.048 178.147 221.548 184.647C217.048 191.147 211.048 207.147 207.548 218.147C204.048 229.147 213.048 233.147 220.048 235.147C225.648 236.747 229.714 233.147 231.048 231.147C235.214 225.313 244.348 212.047 247.548 205.647C251.548 197.647 251.048 196.647 249.548 195.647C248.048 194.647 245.548 196.647 243.548 200.147C241.548 203.647 228.548 216.147 224.048 218.147C219.548 220.147 218.048 216.647 224.048 204.647C230.048 192.647 254.048 178.647 259.048 174.647C264.048 170.647 268.048 169.647 268.548 170.147C268.948 170.547 266.714 175.647 265.548 178.147C241.048 233.313 191.448 345.047 189.048 350.647C186.648 356.247 191.048 355.647 193.548 354.647C195.381 353.647 200.648 351.247 207.048 349.647C215.048 347.647 214.048 346.647 216.548 340.147C243.748 273.747 293.881 211.48 315.548 188.647C319.148 184.647 321.381 186.313 322.048 187.647C324.548 192.647 324.048 196.647 323.548 200.147C321.778 212.531 290.048 297.647 287.548 305.647C285.048 313.647 286.548 322.147 292.548 330.647C297.348 337.447 302.214 331.147 304.048 327.147C307.048 319.813 320.447 294.047 350.047 249.647C379.647 205.247 396.047 189.147 400.547 186.647C401.547 185.647 402.37 186.147 403.047 189.647C406.047 205.147 397.548 225.147 392.548 236.147C383.881 256.813 365.148 300.947 359.548 312.147C352.548 326.147 356.548 335.147 366.548 348.647C374.548 359.447 387.214 353.147 392.548 348.647C410.714 333.147 445.648 300.647 440.048 294.647Z" stroke="#FBD45D"/>
<path d="M159.548 188.147C152.348 196.947 162.548 194.48 168.548 192.147C177.548 188.647 184.548 181.147 189.048 176.647C192.648 173.047 191.881 168.813 191.048 167.147C189.215 163.147 183.648 155.147 176.048 155.147C157.048 156.147 137.548 176.647 128.548 188.147C121.348 197.347 122.548 204.313 124.048 206.647C131.881 222.813 150.048 259.747 160.048 278.147C172.548 301.147 162.548 318.647 136.548 337.647C115.748 352.847 95.2145 354.313 87.5478 353.147C50.3478 350.747 43.8571 304.647 61.0479 295.147C67.3812 291.647 82.2478 283.747 91.0478 280.147C102.048 275.647 119.048 272.147 124.048 291.147C128.048 306.347 109.715 314.147 100.048 316.147C95.0478 317.313 84.9478 318.647 84.5478 314.647C84.1478 310.647 87.7145 308.647 89.5478 308.147C94.5478 306.313 105.248 301.147 108.048 295.147C110.848 289.147 103.881 289.98 100.048 291.147C94.0479 293.813 81.0481 299.847 77.0481 302.647C72.0481 306.147 71.5481 317.647 83.0481 325.647C92.2481 332.047 105.215 328.313 110.548 325.647C118.215 322.313 134.948 313.447 140.548 304.647C146.148 295.847 140.881 283.313 137.548 278.147C126.715 263.813 104.148 232.547 100.548 222.147C96.0482 209.147 96.5482 203.147 110.048 181.147C123.548 159.147 167.048 144.147 182.548 142.147C198.048 140.147 211.048 159.147 213.548 165.147C215.548 169.947 212.048 174.813 210.048 176.647C202.215 183.48 185.048 198.047 179.048 201.647C171.548 206.147 151.048 220.147 143.048 211.147C135.048 202.147 142.048 192.147 148.548 181.147C155.048 170.147 177.048 164.147 177.548 168.647C178.048 173.147 174.548 173.147 172.548 174.647C170.548 176.146 168.548 177.147 159.548 188.147Z" stroke="#FBD45D"/>
</svg>
