<svg width="137" height="154" viewBox="0 0 137 154" fill="none" xmlns="http://www.w3.org/2000/svg">
<path fill-rule="evenodd" clip-rule="evenodd" d="M0.159754 21.1152L0.159753 20.9872L0.159755 16.9924L0.159754 6.14913C0.159757 1.57872 5.06571 -1.31357 9.06472 0.899242L18.5523 6.14913L22.0477 8.08326L22.1598 8.14525L119.891 62.2238L120.062 62.3186L124.145 64.5775L133.047 69.5039C137.11 71.752 137.189 77.5649 133.189 79.9227L124.423 85.0893L120.404 87.4584L120.235 87.5579L22.1598 145.365L21.9916 145.464L17.9761 147.831L9.20638 153C5.20662 155.357 0.159761 152.473 0.159761 147.831L0.15976 137.651L0.159759 132.99L0.159761 132.795L0.159754 21.1152ZM22.1598 119.828L22.1598 33.2887L97.8883 75.1923L22.1598 119.828ZM70.5711 79.8064C73.2361 78.264 73.232 74.415 70.5636 72.8783L39.044 54.7258C36.3756 53.1891 33.0444 55.1172 33.0477 58.1964L33.0871 94.5694C33.0904 97.6486 36.4258 99.5695 39.0908 98.0271L70.5711 79.8064Z" fill="#941B0C"/>
</svg>
